ISO-10303-21;
HEADER;
/* Generated by software containing ST-Developer
 * from STEP Tools, Inc. (www.steptools.com) 
 */

FILE_DESCRIPTION(
/* description */ (''),
/* implementation_level */ '2;1');

FILE_NAME(
/* name */ 'Backplate.step',
/* time_stamp */ '2026-10-05T06:41:32+05:30',
/* author */ (''),
/* organization */ (''),
/* preprocessor_version */ 'ST-DEVELOPER v20.2',
/* originating_system */ 'Autodesk Translation Framework v15.15.0.0',
/* authorisation */ '');

FILE_SCHEMA (('AUTOMOTIVE_DESIGN { 1 0 10303 214 3 1 1 }'));
ENDSEC;

DATA;
#10=MECHANICAL_DESIGN_GEOMETRIC_PRESENTATION_REPRESENTATION('',(#13),#1355);
#11=SHAPE_REPRESENTATION_RELATIONSHIP('SRR','None',#1362,#12);
#12=ADVANCED_BREP_SHAPE_REPRESENTATION('',(#14),#1354);
#13=STYLED_ITEM('',(#1371),#14);
#14=MANIFOLD_SOLID_BREP('Body8',#797);
#15=FACE_BOUND('',#92,.T.);
#16=FACE_BOUND('',#93,.T.);
#17=FACE_BOUND('',#111,.T.);
#18=FACE_BOUND('',#122,.T.);
#19=FACE_BOUND('',#125,.T.);
#20=FACE_BOUND('',#129,.T.);
#21=FACE_BOUND('',#131,.T.);
#22=FACE_BOUND('',#134,.T.);
#23=FACE_BOUND('',#135,.T.);
#24=FACE_BOUND('',#136,.T.);
#25=FACE_BOUND('',#137,.T.);
#26=PLANE('',#816);
#27=PLANE('',#825);
#28=PLANE('',#826);
#29=PLANE('',#836);
#30=PLANE('',#856);
#31=PLANE('',#857);
#32=PLANE('',#863);
#33=PLANE('',#866);
#34=PLANE('',#869);
#35=PLANE('',#870);
#36=PLANE('',#871);
#37=PLANE('',#875);
#38=PLANE('',#879);
#39=PLANE('',#886);
#40=PLANE('',#887);
#41=PLANE('',#888);
#42=PLANE('',#889);
#43=FACE_OUTER_BOUND('',#85,.T.);
#44=FACE_OUTER_BOUND('',#86,.T.);
#45=FACE_OUTER_BOUND('',#87,.T.);
#46=FACE_OUTER_BOUND('',#88,.T.);
#47=FACE_OUTER_BOUND('',#89,.T.);
#48=FACE_OUTER_BOUND('',#90,.T.);
#49=FACE_OUTER_BOUND('',#91,.T.);
#50=FACE_OUTER_BOUND('',#94,.T.);
#51=FACE_OUTER_BOUND('',#95,.T.);
#52=FACE_OUTER_BOUND('',#96,.T.);
#53=FACE_OUTER_BOUND('',#97,.T.);
#54=FACE_OUTER_BOUND('',#98,.T.);
#55=FACE_OUTER_BOUND('',#99,.T.);
#56=FACE_OUTER_BOUND('',#100,.T.);
#57=FACE_OUTER_BOUND('',#101,.T.);
#58=FACE_OUTER_BOUND('',#102,.T.);
#59=FACE_OUTER_BOUND('',#103,.T.);
#60=FACE_OUTER_BOUND('',#104,.T.);
#61=FACE_OUTER_BOUND('',#105,.T.);
#62=FACE_OUTER_BOUND('',#106,.T.);
#63=FACE_OUTER_BOUND('',#107,.T.);
#64=FACE_OUTER_BOUND('',#108,.T.);
#65=FACE_OUTER_BOUND('',#109,.T.);
#66=FACE_OUTER_BOUND('',#110,.T.);
#67=FACE_OUTER_BOUND('',#112,.T.);
#68=FACE_OUTER_BOUND('',#113,.T.);
#69=FACE_OUTER_BOUND('',#114,.T.);
#70=FACE_OUTER_BOUND('',#115,.T.);
#71=FACE_OUTER_BOUND('',#116,.T.);
#72=FACE_OUTER_BOUND('',#117,.T.);
#73=FACE_OUTER_BOUND('',#118,.T.);
#74=FACE_OUTER_BOUND('',#119,.T.);
#75=FACE_OUTER_BOUND('',#120,.T.);
#76=FACE_OUTER_BOUND('',#121,.T.);
#77=FACE_OUTER_BOUND('',#123,.T.);
#78=FACE_OUTER_BOUND('',#124,.T.);
#79=FACE_OUTER_BOUND('',#126,.T.);
#80=FACE_OUTER_BOUND('',#127,.T.);
#81=FACE_OUTER_BOUND('',#128,.T.);
#82=FACE_OUTER_BOUND('',#130,.T.);
#83=FACE_OUTER_BOUND('',#132,.T.);
#84=FACE_OUTER_BOUND('',#133,.T.);
#85=EDGE_LOOP('',(#508,#509,#510,#511));
#86=EDGE_LOOP('',(#512,#513,#514,#515));
#87=EDGE_LOOP('',(#516,#517,#518,#519,#520,#521,#522,#523));
#88=EDGE_LOOP('',(#524,#525,#526,#527));
#89=EDGE_LOOP('',(#528,#529,#530,#531));
#90=EDGE_LOOP('',(#532,#533,#534,#535));
#91=EDGE_LOOP('',(#536,#537,#538,#539,#540,#541,#542,#543,#544,#545,#546,
#547,#548,#549));
#92=EDGE_LOOP('',(#550,#551,#552,#553));
#93=EDGE_LOOP('',(#554,#555,#556,#557));
#94=EDGE_LOOP('',(#558,#559,#560,#561,#562,#563,#564,#565,#566,#567));
#95=EDGE_LOOP('',(#568,#569,#570,#571));
#96=EDGE_LOOP('',(#572,#573,#574,#575));
#97=EDGE_LOOP('',(#576,#577,#578,#579));
#98=EDGE_LOOP('',(#580,#581,#582,#583));
#99=EDGE_LOOP('',(#584,#585,#586,#587,#588,#589,#590,#591));
#100=EDGE_LOOP('',(#592,#593,#594,#595));
#101=EDGE_LOOP('',(#596,#597,#598,#599));
#102=EDGE_LOOP('',(#600,#601,#602,#603));
#103=EDGE_LOOP('',(#604,#605,#606,#607));
#104=EDGE_LOOP('',(#608,#609,#610,#611));
#105=EDGE_LOOP('',(#612,#613,#614,#615));
#106=EDGE_LOOP('',(#616,#617,#618,#619));
#107=EDGE_LOOP('',(#620,#621,#622,#623));
#108=EDGE_LOOP('',(#624,#625,#626,#627));
#109=EDGE_LOOP('',(#628,#629,#630,#631));
#110=EDGE_LOOP('',(#632,#633,#634,#635,#636,#637,#638,#639));
#111=EDGE_LOOP('',(#640,#641,#642,#643));
#112=EDGE_LOOP('',(#644,#645,#646,#647));
#113=EDGE_LOOP('',(#648,#649,#650,#651));
#114=EDGE_LOOP('',(#652,#653,#654,#655));
#115=EDGE_LOOP('',(#656,#657,#658,#659));
#116=EDGE_LOOP('',(#660,#661,#662,#663));
#117=EDGE_LOOP('',(#664,#665,#666,#667,#668,#669));
#118=EDGE_LOOP('',(#670,#671,#672,#673));
#119=EDGE_LOOP('',(#674,#675,#676,#677));
#120=EDGE_LOOP('',(#678,#679,#680,#681));
#121=EDGE_LOOP('',(#682,#683,#684,#685));
#122=EDGE_LOOP('',(#686));
#123=EDGE_LOOP('',(#687,#688,#689,#690));
#124=EDGE_LOOP('',(#691,#692,#693,#694));
#125=EDGE_LOOP('',(#695));
#126=EDGE_LOOP('',(#696,#697,#698,#699));
#127=EDGE_LOOP('',(#700,#701,#702,#703));
#128=EDGE_LOOP('',(#704,#705,#706,#707));
#129=EDGE_LOOP('',(#708));
#130=EDGE_LOOP('',(#709,#710,#711,#712));
#131=EDGE_LOOP('',(#713));
#132=EDGE_LOOP('',(#714,#715,#716,#717));
#133=EDGE_LOOP('',(#718,#719,#720,#721,#722,#723,#724,#725));
#134=EDGE_LOOP('',(#726));
#135=EDGE_LOOP('',(#727));
#136=EDGE_LOOP('',(#728));
#137=EDGE_LOOP('',(#729));
#138=ELLIPSE('',#813,7.07106781186548,5.);
#139=ELLIPSE('',#820,7.07106781186547,5.);
#140=ELLIPSE('',#822,7.07106781186548,5.);
#141=ELLIPSE('',#829,7.07106781186548,5.00000000000001);
#142=ELLIPSE('',#833,7.07106781186548,5.);
#143=ELLIPSE('',#838,5.65685424949238,4.);
#144=ELLIPSE('',#839,5.65685424949238,4.);
#145=ELLIPSE('',#841,5.65685424949238,4.);
#146=ELLIPSE('',#843,5.65685424949238,4.);
#147=ELLIPSE('',#846,5.65685424949238,4.);
#148=ELLIPSE('',#847,5.65685424949238,4.);
#149=ELLIPSE('',#849,5.65685424949238,4.);
#150=ELLIPSE('',#850,5.65685424949238,4.00000000000001);
#151=LINE('',#1130,#225);
#152=LINE('',#1133,#226);
#153=LINE('',#1138,#227);
#154=LINE('',#1139,#228);
#155=LINE('',#1142,#229);
#156=LINE('',#1146,#230);
#157=LINE('',#1148,#231);
#158=LINE('',#1150,#232);
#159=LINE('',#1152,#233);
#160=LINE('',#1153,#234);
#161=LINE('',#1159,#235);
#162=LINE('',#1162,#236);
#163=LINE('',#1165,#237);
#164=LINE('',#1168,#238);
#165=LINE('',#1173,#239);
#166=LINE('',#1174,#240);
#167=LINE('',#1177,#241);
#168=LINE('',#1179,#242);
#169=LINE('',#1181,#243);
#170=LINE('',#1183,#244);
#171=LINE('',#1184,#245);
#172=LINE('',#1186,#246);
#173=LINE('',#1188,#247);
#174=LINE('',#1189,#248);
#175=LINE('',#1192,#249);
#176=LINE('',#1194,#250);
#177=LINE('',#1196,#251);
#178=LINE('',#1197,#252);
#179=LINE('',#1200,#253);
#180=LINE('',#1202,#254);
#181=LINE('',#1204,#255);
#182=LINE('',#1205,#256);
#183=LINE('',#1208,#257);
#184=LINE('',#1209,#258);
#185=LINE('',#1211,#259);
#186=LINE('',#1213,#260);
#187=LINE('',#1216,#261);
#188=LINE('',#1219,#262);
#189=LINE('',#1224,#263);
#190=LINE('',#1229,#264);
#191=LINE('',#1231,#265);
#192=LINE('',#1233,#266);
#193=LINE('',#1235,#267);
#194=LINE('',#1236,#268);
#195=LINE('',#1241,#269);
#196=LINE('',#1245,#270);
#197=LINE('',#1249,#271);
#198=LINE('',#1252,#272);
#199=LINE('',#1257,#273);
#200=LINE('',#1262,#274);
#201=LINE('',#1266,#275);
#202=LINE('',#1268,#276);
#203=LINE('',#1274,#277);
#204=LINE('',#1277,#278);
#205=LINE('',#1280,#279);
#206=LINE('',#1282,#280);
#207=LINE('',#1283,#281);
#208=LINE('',#1286,#282);
#209=LINE('',#1290,#283);
#210=LINE('',#1294,#284);
#211=LINE('',#1296,#285);
#212=LINE('',#1299,#286);
#213=LINE('',#1303,#287);
#214=LINE('',#1304,#288);
#215=LINE('',#1307,#289);
#216=LINE('',#1310,#290);
#217=LINE('',#1313,#291);
#218=LINE('',#1314,#292);
#219=LINE('',#1318,#293);
#220=LINE('',#1325,#294);
#221=LINE('',#1332,#295);
#222=LINE('',#1339,#296);
#223=LINE('',#1345,#297);
#224=LINE('',#1350,#298);
#225=VECTOR('',#896,10.);
#226=VECTOR('',#899,5.);
#227=VECTOR('',#904,5.);
#228=VECTOR('',#905,10.);
#229=VECTOR('',#908,10.);
#230=VECTOR('',#911,10.);
#231=VECTOR('',#912,10.);
#232=VECTOR('',#913,10.);
#233=VECTOR('',#914,10.);
#234=VECTOR('',#915,10.);
#235=VECTOR('',#920,10.);
#236=VECTOR('',#923,5.);
#237=VECTOR('',#926,10.);
#238=VECTOR('',#929,5.);
#239=VECTOR('',#934,5.);
#240=VECTOR('',#935,10.);
#241=VECTOR('',#938,10.);
#242=VECTOR('',#939,5.);
#243=VECTOR('',#940,5.);
#244=VECTOR('',#941,10.);
#245=VECTOR('',#942,10.);
#246=VECTOR('',#943,10.);
#247=VECTOR('',#944,5.);
#248=VECTOR('',#945,5.);
#249=VECTOR('',#946,4.);
#250=VECTOR('',#947,4.);
#251=VECTOR('',#948,4.);
#252=VECTOR('',#949,4.);
#253=VECTOR('',#950,4.);
#254=VECTOR('',#951,4.);
#255=VECTOR('',#952,4.);
#256=VECTOR('',#953,4.);
#257=VECTOR('',#956,10.);
#258=VECTOR('',#957,10.);
#259=VECTOR('',#958,10.);
#260=VECTOR('',#961,10.);
#261=VECTOR('',#964,10.);
#262=VECTOR('',#969,10.);
#263=VECTOR('',#974,10.);
#264=VECTOR('',#981,10.);
#265=VECTOR('',#984,10.);
#266=VECTOR('',#985,10.);
#267=VECTOR('',#986,10.);
#268=VECTOR('',#987,10.);
#269=VECTOR('',#992,10.);
#270=VECTOR('',#997,10.);
#271=VECTOR('',#1002,10.);
#272=VECTOR('',#1007,10.);
#273=VECTOR('',#1012,10.);
#274=VECTOR('',#1017,10.);
#275=VECTOR('',#1024,10.);
#276=VECTOR('',#1027,10.);
#277=VECTOR('',#1032,10.);
#278=VECTOR('',#1035,10.);
#279=VECTOR('',#1038,10.);
#280=VECTOR('',#1039,10.);
#281=VECTOR('',#1040,10.);
#282=VECTOR('',#1043,10.);
#283=VECTOR('',#1046,10.);
#284=VECTOR('',#1049,10.);
#285=VECTOR('',#1052,10.);
#286=VECTOR('',#1055,10.);
#287=VECTOR('',#1060,10.);
#288=VECTOR('',#1061,10.);
#289=VECTOR('',#1064,10.);
#290=VECTOR('',#1067,10.);
#291=VECTOR('',#1070,10.);
#292=VECTOR('',#1071,10.);
#293=VECTOR('',#1078,10.);
#294=VECTOR('',#1087,1.5);
#295=VECTOR('',#1096,1.5);
#296=VECTOR('',#1105,1.5);
#297=VECTOR('',#1112,1.5);
#298=VECTOR('',#1121,10.);
#299=CIRCLE('',#812,5.);
#300=CIRCLE('',#815,5.00000000000001);
#301=CIRCLE('',#817,5.);
#302=CIRCLE('',#819,5.);
#303=CIRCLE('',#824,5.);
#304=CIRCLE('',#827,5.00000000000001);
#305=CIRCLE('',#832,5.);
#306=CIRCLE('',#835,5.);
#307=CIRCLE('',#854,5.);
#308=CIRCLE('',#855,5.);
#309=CIRCLE('',#858,5.);
#310=CIRCLE('',#859,5.);
#311=CIRCLE('',#860,5.);
#312=CIRCLE('',#862,5.);
#313=CIRCLE('',#865,5.);
#314=CIRCLE('',#868,5.);
#315=CIRCLE('',#873,1.5);
#316=CIRCLE('',#874,1.5);
#317=CIRCLE('',#877,1.5);
#318=CIRCLE('',#878,1.5);
#319=CIRCLE('',#881,1.5);
#320=CIRCLE('',#882,1.5);
#321=CIRCLE('',#884,1.5);
#322=CIRCLE('',#885,1.5);
#323=VERTEX_POINT('',#1126);
#324=VERTEX_POINT('',#1127);
#325=VERTEX_POINT('',#1129);
#326=VERTEX_POINT('',#1131);
#327=VERTEX_POINT('',#1135);
#328=VERTEX_POINT('',#1136);
#329=VERTEX_POINT('',#1141);
#330=VERTEX_POINT('',#1143);
#331=VERTEX_POINT('',#1145);
#332=VERTEX_POINT('',#1147);
#333=VERTEX_POINT('',#1149);
#334=VERTEX_POINT('',#1151);
#335=VERTEX_POINT('',#1155);
#336=VERTEX_POINT('',#1156);
#337=VERTEX_POINT('',#1158);
#338=VERTEX_POINT('',#1160);
#339=VERTEX_POINT('',#1164);
#340=VERTEX_POINT('',#1166);
#341=VERTEX_POINT('',#1170);
#342=VERTEX_POINT('',#1171);
#343=VERTEX_POINT('',#1176);
#344=VERTEX_POINT('',#1178);
#345=VERTEX_POINT('',#1180);
#346=VERTEX_POINT('',#1182);
#347=VERTEX_POINT('',#1185);
#348=VERTEX_POINT('',#1187);
#349=VERTEX_POINT('',#1190);
#350=VERTEX_POINT('',#1191);
#351=VERTEX_POINT('',#1193);
#352=VERTEX_POINT('',#1195);
#353=VERTEX_POINT('',#1198);
#354=VERTEX_POINT('',#1199);
#355=VERTEX_POINT('',#1201);
#356=VERTEX_POINT('',#1203);
#357=VERTEX_POINT('',#1207);
#358=VERTEX_POINT('',#1210);
#359=VERTEX_POINT('',#1215);
#360=VERTEX_POINT('',#1221);
#361=VERTEX_POINT('',#1223);
#362=VERTEX_POINT('',#1227);
#363=VERTEX_POINT('',#1232);
#364=VERTEX_POINT('',#1234);
#365=VERTEX_POINT('',#1238);
#366=VERTEX_POINT('',#1240);
#367=VERTEX_POINT('',#1244);
#368=VERTEX_POINT('',#1248);
#369=VERTEX_POINT('',#1254);
#370=VERTEX_POINT('',#1256);
#371=VERTEX_POINT('',#1260);
#372=VERTEX_POINT('',#1261);
#373=VERTEX_POINT('',#1270);
#374=VERTEX_POINT('',#1271);
#375=VERTEX_POINT('',#1273);
#376=VERTEX_POINT('',#1275);
#377=VERTEX_POINT('',#1279);
#378=VERTEX_POINT('',#1281);
#379=VERTEX_POINT('',#1285);
#380=VERTEX_POINT('',#1287);
#381=VERTEX_POINT('',#1289);
#382=VERTEX_POINT('',#1291);
#383=VERTEX_POINT('',#1293);
#384=VERTEX_POINT('',#1298);
#385=VERTEX_POINT('',#1302);
#386=VERTEX_POINT('',#1306);
#387=VERTEX_POINT('',#1308);
#388=VERTEX_POINT('',#1312);
#389=VERTEX_POINT('',#1322);
#390=VERTEX_POINT('',#1324);
#391=VERTEX_POINT('',#1329);
#392=VERTEX_POINT('',#1331);
#393=VERTEX_POINT('',#1336);
#394=VERTEX_POINT('',#1338);
#395=VERTEX_POINT('',#1342);
#396=VERTEX_POINT('',#1344);
#397=EDGE_CURVE('',#323,#324,#299,.T.);
#398=EDGE_CURVE('',#325,#323,#151,.T.);
#399=EDGE_CURVE('',#325,#326,#138,.T.);
#400=EDGE_CURVE('',#326,#324,#152,.T.);
#401=EDGE_CURVE('',#327,#328,#300,.T.);
#402=EDGE_CURVE('',#327,#326,#153,.T.);
#403=EDGE_CURVE('',#328,#325,#154,.T.);
#404=EDGE_CURVE('',#329,#324,#155,.T.);
#405=EDGE_CURVE('',#329,#330,#301,.T.);
#406=EDGE_CURVE('',#331,#330,#156,.T.);
#407=EDGE_CURVE('',#331,#332,#157,.T.);
#408=EDGE_CURVE('',#333,#332,#158,.T.);
#409=EDGE_CURVE('',#334,#333,#159,.T.);
#410=EDGE_CURVE('',#323,#334,#160,.T.);
#411=EDGE_CURVE('',#335,#336,#302,.T.);
#412=EDGE_CURVE('',#337,#335,#161,.T.);
#413=EDGE_CURVE('',#337,#338,#139,.T.);
#414=EDGE_CURVE('',#338,#336,#162,.T.);
#415=EDGE_CURVE('',#339,#337,#163,.T.);
#416=EDGE_CURVE('',#339,#340,#140,.T.);
#417=EDGE_CURVE('',#340,#338,#164,.T.);
#418=EDGE_CURVE('',#341,#342,#303,.T.);
#419=EDGE_CURVE('',#341,#340,#165,.T.);
#420=EDGE_CURVE('',#342,#339,#166,.T.);
#421=EDGE_CURVE('',#327,#343,#167,.T.);
#422=EDGE_CURVE('',#344,#343,#168,.T.);
#423=EDGE_CURVE('',#345,#344,#169,.T.);
#424=EDGE_CURVE('',#345,#346,#170,.T.);
#425=EDGE_CURVE('',#346,#336,#171,.T.);
#426=EDGE_CURVE('',#341,#347,#172,.T.);
#427=EDGE_CURVE('',#348,#347,#173,.T.);
#428=EDGE_CURVE('',#329,#348,#174,.T.);
#429=EDGE_CURVE('',#349,#350,#175,.T.);
#430=EDGE_CURVE('',#351,#349,#176,.T.);
#431=EDGE_CURVE('',#352,#351,#177,.T.);
#432=EDGE_CURVE('',#350,#352,#178,.T.);
#433=EDGE_CURVE('',#353,#354,#179,.T.);
#434=EDGE_CURVE('',#355,#353,#180,.T.);
#435=EDGE_CURVE('',#356,#355,#181,.T.);
#436=EDGE_CURVE('',#354,#356,#182,.T.);
#437=EDGE_CURVE('',#346,#357,#183,.T.);
#438=EDGE_CURVE('',#332,#357,#184,.T.);
#439=EDGE_CURVE('',#358,#331,#185,.T.);
#440=EDGE_CURVE('',#358,#347,#304,.T.);
#441=EDGE_CURVE('',#335,#342,#186,.T.);
#442=EDGE_CURVE('',#359,#358,#187,.T.);
#443=EDGE_CURVE('',#359,#348,#141,.T.);
#444=EDGE_CURVE('',#330,#359,#188,.T.);
#445=EDGE_CURVE('',#360,#343,#305,.T.);
#446=EDGE_CURVE('',#361,#360,#189,.T.);
#447=EDGE_CURVE('',#361,#344,#142,.T.);
#448=EDGE_CURVE('',#345,#362,#306,.T.);
#449=EDGE_CURVE('',#362,#361,#190,.T.);
#450=EDGE_CURVE('',#334,#328,#191,.T.);
#451=EDGE_CURVE('',#363,#333,#192,.T.);
#452=EDGE_CURVE('',#364,#363,#193,.T.);
#453=EDGE_CURVE('',#360,#364,#194,.T.);
#454=EDGE_CURVE('',#350,#365,#143,.T.);
#455=EDGE_CURVE('',#366,#365,#195,.T.);
#456=EDGE_CURVE('',#366,#349,#144,.T.);
#457=EDGE_CURVE('',#365,#367,#196,.T.);
#458=EDGE_CURVE('',#367,#352,#145,.T.);
#459=EDGE_CURVE('',#368,#366,#197,.T.);
#460=EDGE_CURVE('',#368,#351,#146,.T.);
#461=EDGE_CURVE('',#367,#368,#198,.T.);
#462=EDGE_CURVE('',#355,#369,#147,.T.);
#463=EDGE_CURVE('',#370,#369,#199,.T.);
#464=EDGE_CURVE('',#370,#356,#148,.T.);
#465=EDGE_CURVE('',#371,#372,#200,.T.);
#466=EDGE_CURVE('',#371,#353,#149,.T.);
#467=EDGE_CURVE('',#372,#354,#150,.T.);
#468=EDGE_CURVE('',#369,#371,#201,.T.);
#469=EDGE_CURVE('',#372,#370,#202,.T.);
#470=EDGE_CURVE('',#373,#374,#307,.T.);
#471=EDGE_CURVE('',#374,#375,#203,.T.);
#472=EDGE_CURVE('',#375,#376,#308,.T.);
#473=EDGE_CURVE('',#376,#373,#204,.T.);
#474=EDGE_CURVE('',#377,#374,#205,.T.);
#475=EDGE_CURVE('',#378,#377,#206,.T.);
#476=EDGE_CURVE('',#378,#375,#207,.T.);
#477=EDGE_CURVE('',#373,#379,#208,.T.);
#478=EDGE_CURVE('',#380,#379,#309,.T.);
#479=EDGE_CURVE('',#380,#381,#209,.T.);
#480=EDGE_CURVE('',#382,#381,#310,.T.);
#481=EDGE_CURVE('',#382,#383,#210,.T.);
#482=EDGE_CURVE('',#377,#383,#311,.T.);
#483=EDGE_CURVE('',#357,#363,#211,.T.);
#484=EDGE_CURVE('',#383,#384,#212,.T.);
#485=EDGE_CURVE('',#384,#378,#312,.T.);
#486=EDGE_CURVE('',#385,#382,#213,.T.);
#487=EDGE_CURVE('',#385,#384,#214,.T.);
#488=EDGE_CURVE('',#379,#386,#215,.T.);
#489=EDGE_CURVE('',#386,#387,#313,.T.);
#490=EDGE_CURVE('',#387,#380,#216,.T.);
#491=EDGE_CURVE('',#387,#388,#217,.T.);
#492=EDGE_CURVE('',#381,#388,#218,.T.);
#493=EDGE_CURVE('',#388,#385,#314,.T.);
#494=EDGE_CURVE('',#364,#362,#219,.T.);
#495=EDGE_CURVE('',#389,#389,#315,.T.);
#496=EDGE_CURVE('',#389,#390,#220,.T.);
#497=EDGE_CURVE('',#390,#390,#316,.T.);
#498=EDGE_CURVE('',#391,#391,#317,.T.);
#499=EDGE_CURVE('',#391,#392,#221,.T.);
#500=EDGE_CURVE('',#392,#392,#318,.T.);
#501=EDGE_CURVE('',#393,#393,#319,.T.);
#502=EDGE_CURVE('',#393,#394,#222,.T.);
#503=EDGE_CURVE('',#394,#394,#320,.T.);
#504=EDGE_CURVE('',#395,#395,#321,.T.);
#505=EDGE_CURVE('',#395,#396,#223,.T.);
#506=EDGE_CURVE('',#396,#396,#322,.T.);
#507=EDGE_CURVE('',#376,#386,#224,.T.);
#508=ORIENTED_EDGE('',*,*,#397,.F.);
#509=ORIENTED_EDGE('',*,*,#398,.F.);
#510=ORIENTED_EDGE('',*,*,#399,.T.);
#511=ORIENTED_EDGE('',*,*,#400,.T.);
#512=ORIENTED_EDGE('',*,*,#401,.F.);
#513=ORIENTED_EDGE('',*,*,#402,.T.);
#514=ORIENTED_EDGE('',*,*,#399,.F.);
#515=ORIENTED_EDGE('',*,*,#403,.F.);
#516=ORIENTED_EDGE('',*,*,#397,.T.);
#517=ORIENTED_EDGE('',*,*,#404,.F.);
#518=ORIENTED_EDGE('',*,*,#405,.T.);
#519=ORIENTED_EDGE('',*,*,#406,.F.);
#520=ORIENTED_EDGE('',*,*,#407,.T.);
#521=ORIENTED_EDGE('',*,*,#408,.F.);
#522=ORIENTED_EDGE('',*,*,#409,.F.);
#523=ORIENTED_EDGE('',*,*,#410,.F.);
#524=ORIENTED_EDGE('',*,*,#411,.F.);
#525=ORIENTED_EDGE('',*,*,#412,.F.);
#526=ORIENTED_EDGE('',*,*,#413,.T.);
#527=ORIENTED_EDGE('',*,*,#414,.T.);
#528=ORIENTED_EDGE('',*,*,#415,.F.);
#529=ORIENTED_EDGE('',*,*,#416,.T.);
#530=ORIENTED_EDGE('',*,*,#417,.T.);
#531=ORIENTED_EDGE('',*,*,#413,.F.);
#532=ORIENTED_EDGE('',*,*,#418,.F.);
#533=ORIENTED_EDGE('',*,*,#419,.T.);
#534=ORIENTED_EDGE('',*,*,#416,.F.);
#535=ORIENTED_EDGE('',*,*,#420,.F.);
#536=ORIENTED_EDGE('',*,*,#402,.F.);
#537=ORIENTED_EDGE('',*,*,#421,.T.);
#538=ORIENTED_EDGE('',*,*,#422,.F.);
#539=ORIENTED_EDGE('',*,*,#423,.F.);
#540=ORIENTED_EDGE('',*,*,#424,.T.);
#541=ORIENTED_EDGE('',*,*,#425,.T.);
#542=ORIENTED_EDGE('',*,*,#414,.F.);
#543=ORIENTED_EDGE('',*,*,#417,.F.);
#544=ORIENTED_EDGE('',*,*,#419,.F.);
#545=ORIENTED_EDGE('',*,*,#426,.T.);
#546=ORIENTED_EDGE('',*,*,#427,.F.);
#547=ORIENTED_EDGE('',*,*,#428,.F.);
#548=ORIENTED_EDGE('',*,*,#404,.T.);
#549=ORIENTED_EDGE('',*,*,#400,.F.);
#550=ORIENTED_EDGE('',*,*,#429,.F.);
#551=ORIENTED_EDGE('',*,*,#430,.F.);
#552=ORIENTED_EDGE('',*,*,#431,.F.);
#553=ORIENTED_EDGE('',*,*,#432,.F.);
#554=ORIENTED_EDGE('',*,*,#433,.F.);
#555=ORIENTED_EDGE('',*,*,#434,.F.);
#556=ORIENTED_EDGE('',*,*,#435,.F.);
#557=ORIENTED_EDGE('',*,*,#436,.F.);
#558=ORIENTED_EDGE('',*,*,#411,.T.);
#559=ORIENTED_EDGE('',*,*,#425,.F.);
#560=ORIENTED_EDGE('',*,*,#437,.T.);
#561=ORIENTED_EDGE('',*,*,#438,.F.);
#562=ORIENTED_EDGE('',*,*,#407,.F.);
#563=ORIENTED_EDGE('',*,*,#439,.F.);
#564=ORIENTED_EDGE('',*,*,#440,.T.);
#565=ORIENTED_EDGE('',*,*,#426,.F.);
#566=ORIENTED_EDGE('',*,*,#418,.T.);
#567=ORIENTED_EDGE('',*,*,#441,.F.);
#568=ORIENTED_EDGE('',*,*,#440,.F.);
#569=ORIENTED_EDGE('',*,*,#442,.F.);
#570=ORIENTED_EDGE('',*,*,#443,.T.);
#571=ORIENTED_EDGE('',*,*,#427,.T.);
#572=ORIENTED_EDGE('',*,*,#405,.F.);
#573=ORIENTED_EDGE('',*,*,#428,.T.);
#574=ORIENTED_EDGE('',*,*,#443,.F.);
#575=ORIENTED_EDGE('',*,*,#444,.F.);
#576=ORIENTED_EDGE('',*,*,#445,.F.);
#577=ORIENTED_EDGE('',*,*,#446,.F.);
#578=ORIENTED_EDGE('',*,*,#447,.T.);
#579=ORIENTED_EDGE('',*,*,#422,.T.);
#580=ORIENTED_EDGE('',*,*,#448,.F.);
#581=ORIENTED_EDGE('',*,*,#423,.T.);
#582=ORIENTED_EDGE('',*,*,#447,.F.);
#583=ORIENTED_EDGE('',*,*,#449,.F.);
#584=ORIENTED_EDGE('',*,*,#401,.T.);
#585=ORIENTED_EDGE('',*,*,#450,.F.);
#586=ORIENTED_EDGE('',*,*,#409,.T.);
#587=ORIENTED_EDGE('',*,*,#451,.F.);
#588=ORIENTED_EDGE('',*,*,#452,.F.);
#589=ORIENTED_EDGE('',*,*,#453,.F.);
#590=ORIENTED_EDGE('',*,*,#445,.T.);
#591=ORIENTED_EDGE('',*,*,#421,.F.);
#592=ORIENTED_EDGE('',*,*,#429,.T.);
#593=ORIENTED_EDGE('',*,*,#454,.T.);
#594=ORIENTED_EDGE('',*,*,#455,.F.);
#595=ORIENTED_EDGE('',*,*,#456,.T.);
#596=ORIENTED_EDGE('',*,*,#457,.F.);
#597=ORIENTED_EDGE('',*,*,#454,.F.);
#598=ORIENTED_EDGE('',*,*,#432,.T.);
#599=ORIENTED_EDGE('',*,*,#458,.F.);
#600=ORIENTED_EDGE('',*,*,#430,.T.);
#601=ORIENTED_EDGE('',*,*,#456,.F.);
#602=ORIENTED_EDGE('',*,*,#459,.F.);
#603=ORIENTED_EDGE('',*,*,#460,.T.);
#604=ORIENTED_EDGE('',*,*,#431,.T.);
#605=ORIENTED_EDGE('',*,*,#460,.F.);
#606=ORIENTED_EDGE('',*,*,#461,.F.);
#607=ORIENTED_EDGE('',*,*,#458,.T.);
#608=ORIENTED_EDGE('',*,*,#435,.T.);
#609=ORIENTED_EDGE('',*,*,#462,.T.);
#610=ORIENTED_EDGE('',*,*,#463,.F.);
#611=ORIENTED_EDGE('',*,*,#464,.T.);
#612=ORIENTED_EDGE('',*,*,#465,.F.);
#613=ORIENTED_EDGE('',*,*,#466,.T.);
#614=ORIENTED_EDGE('',*,*,#433,.T.);
#615=ORIENTED_EDGE('',*,*,#467,.F.);
#616=ORIENTED_EDGE('',*,*,#434,.T.);
#617=ORIENTED_EDGE('',*,*,#466,.F.);
#618=ORIENTED_EDGE('',*,*,#468,.F.);
#619=ORIENTED_EDGE('',*,*,#462,.F.);
#620=ORIENTED_EDGE('',*,*,#436,.T.);
#621=ORIENTED_EDGE('',*,*,#464,.F.);
#622=ORIENTED_EDGE('',*,*,#469,.F.);
#623=ORIENTED_EDGE('',*,*,#467,.T.);
#624=ORIENTED_EDGE('',*,*,#470,.T.);
#625=ORIENTED_EDGE('',*,*,#471,.T.);
#626=ORIENTED_EDGE('',*,*,#472,.T.);
#627=ORIENTED_EDGE('',*,*,#473,.T.);
#628=ORIENTED_EDGE('',*,*,#471,.F.);
#629=ORIENTED_EDGE('',*,*,#474,.F.);
#630=ORIENTED_EDGE('',*,*,#475,.F.);
#631=ORIENTED_EDGE('',*,*,#476,.T.);
#632=ORIENTED_EDGE('',*,*,#470,.F.);
#633=ORIENTED_EDGE('',*,*,#477,.T.);
#634=ORIENTED_EDGE('',*,*,#478,.F.);
#635=ORIENTED_EDGE('',*,*,#479,.T.);
#636=ORIENTED_EDGE('',*,*,#480,.F.);
#637=ORIENTED_EDGE('',*,*,#481,.T.);
#638=ORIENTED_EDGE('',*,*,#482,.F.);
#639=ORIENTED_EDGE('',*,*,#474,.T.);
#640=ORIENTED_EDGE('',*,*,#438,.T.);
#641=ORIENTED_EDGE('',*,*,#483,.T.);
#642=ORIENTED_EDGE('',*,*,#451,.T.);
#643=ORIENTED_EDGE('',*,*,#408,.T.);
#644=ORIENTED_EDGE('',*,*,#482,.T.);
#645=ORIENTED_EDGE('',*,*,#484,.T.);
#646=ORIENTED_EDGE('',*,*,#485,.T.);
#647=ORIENTED_EDGE('',*,*,#475,.T.);
#648=ORIENTED_EDGE('',*,*,#484,.F.);
#649=ORIENTED_EDGE('',*,*,#481,.F.);
#650=ORIENTED_EDGE('',*,*,#486,.F.);
#651=ORIENTED_EDGE('',*,*,#487,.T.);
#652=ORIENTED_EDGE('',*,*,#478,.T.);
#653=ORIENTED_EDGE('',*,*,#488,.T.);
#654=ORIENTED_EDGE('',*,*,#489,.T.);
#655=ORIENTED_EDGE('',*,*,#490,.T.);
#656=ORIENTED_EDGE('',*,*,#490,.F.);
#657=ORIENTED_EDGE('',*,*,#491,.T.);
#658=ORIENTED_EDGE('',*,*,#492,.F.);
#659=ORIENTED_EDGE('',*,*,#479,.F.);
#660=ORIENTED_EDGE('',*,*,#480,.T.);
#661=ORIENTED_EDGE('',*,*,#492,.T.);
#662=ORIENTED_EDGE('',*,*,#493,.T.);
#663=ORIENTED_EDGE('',*,*,#486,.T.);
#664=ORIENTED_EDGE('',*,*,#448,.T.);
#665=ORIENTED_EDGE('',*,*,#494,.F.);
#666=ORIENTED_EDGE('',*,*,#452,.T.);
#667=ORIENTED_EDGE('',*,*,#483,.F.);
#668=ORIENTED_EDGE('',*,*,#437,.F.);
#669=ORIENTED_EDGE('',*,*,#424,.F.);
#670=ORIENTED_EDGE('',*,*,#457,.T.);
#671=ORIENTED_EDGE('',*,*,#461,.T.);
#672=ORIENTED_EDGE('',*,*,#459,.T.);
#673=ORIENTED_EDGE('',*,*,#455,.T.);
#674=ORIENTED_EDGE('',*,*,#468,.T.);
#675=ORIENTED_EDGE('',*,*,#465,.T.);
#676=ORIENTED_EDGE('',*,*,#469,.T.);
#677=ORIENTED_EDGE('',*,*,#463,.T.);
#678=ORIENTED_EDGE('',*,*,#495,.F.);
#679=ORIENTED_EDGE('',*,*,#496,.T.);
#680=ORIENTED_EDGE('',*,*,#497,.F.);
#681=ORIENTED_EDGE('',*,*,#496,.F.);
#682=ORIENTED_EDGE('',*,*,#420,.T.);
#683=ORIENTED_EDGE('',*,*,#415,.T.);
#684=ORIENTED_EDGE('',*,*,#412,.T.);
#685=ORIENTED_EDGE('',*,*,#441,.T.);
#686=ORIENTED_EDGE('',*,*,#495,.T.);
#687=ORIENTED_EDGE('',*,*,#498,.F.);
#688=ORIENTED_EDGE('',*,*,#499,.T.);
#689=ORIENTED_EDGE('',*,*,#500,.F.);
#690=ORIENTED_EDGE('',*,*,#499,.F.);
#691=ORIENTED_EDGE('',*,*,#453,.T.);
#692=ORIENTED_EDGE('',*,*,#494,.T.);
#693=ORIENTED_EDGE('',*,*,#449,.T.);
#694=ORIENTED_EDGE('',*,*,#446,.T.);
#695=ORIENTED_EDGE('',*,*,#498,.T.);
#696=ORIENTED_EDGE('',*,*,#501,.F.);
#697=ORIENTED_EDGE('',*,*,#502,.T.);
#698=ORIENTED_EDGE('',*,*,#503,.F.);
#699=ORIENTED_EDGE('',*,*,#502,.F.);
#700=ORIENTED_EDGE('',*,*,#504,.F.);
#701=ORIENTED_EDGE('',*,*,#505,.T.);
#702=ORIENTED_EDGE('',*,*,#506,.F.);
#703=ORIENTED_EDGE('',*,*,#505,.F.);
#704=ORIENTED_EDGE('',*,*,#439,.T.);
#705=ORIENTED_EDGE('',*,*,#406,.T.);
#706=ORIENTED_EDGE('',*,*,#444,.T.);
#707=ORIENTED_EDGE('',*,*,#442,.T.);
#708=ORIENTED_EDGE('',*,*,#501,.T.);
#709=ORIENTED_EDGE('',*,*,#403,.T.);
#710=ORIENTED_EDGE('',*,*,#398,.T.);
#711=ORIENTED_EDGE('',*,*,#410,.T.);
#712=ORIENTED_EDGE('',*,*,#450,.T.);
#713=ORIENTED_EDGE('',*,*,#504,.T.);
#714=ORIENTED_EDGE('',*,*,#473,.F.);
#715=ORIENTED_EDGE('',*,*,#507,.T.);
#716=ORIENTED_EDGE('',*,*,#488,.F.);
#717=ORIENTED_EDGE('',*,*,#477,.F.);
#718=ORIENTED_EDGE('',*,*,#472,.F.);
#719=ORIENTED_EDGE('',*,*,#476,.F.);
#720=ORIENTED_EDGE('',*,*,#485,.F.);
#721=ORIENTED_EDGE('',*,*,#487,.F.);
#722=ORIENTED_EDGE('',*,*,#493,.F.);
#723=ORIENTED_EDGE('',*,*,#491,.F.);
#724=ORIENTED_EDGE('',*,*,#489,.F.);
#725=ORIENTED_EDGE('',*,*,#507,.F.);
#726=ORIENTED_EDGE('',*,*,#497,.T.);
#727=ORIENTED_EDGE('',*,*,#500,.T.);
#728=ORIENTED_EDGE('',*,*,#503,.T.);
#729=ORIENTED_EDGE('',*,*,#506,.T.);
#730=CYLINDRICAL_SURFACE('',#811,5.);
#731=CYLINDRICAL_SURFACE('',#814,5.00000000000001);
#732=CYLINDRICAL_SURFACE('',#818,5.);
#733=CYLINDRICAL_SURFACE('',#821,5.);
#734=CYLINDRICAL_SURFACE('',#823,5.);
#735=CYLINDRICAL_SURFACE('',#828,5.00000000000001);
#736=CYLINDRICAL_SURFACE('',#830,5.);
#737=CYLINDRICAL_SURFACE('',#831,5.);
#738=CYLINDRICAL_SURFACE('',#834,5.);
#739=CYLINDRICAL_SURFACE('',#837,4.);
#740=CYLINDRICAL_SURFACE('',#840,4.);
#741=CYLINDRICAL_SURFACE('',#842,4.);
#742=CYLINDRICAL_SURFACE('',#844,4.);
#743=CYLINDRICAL_SURFACE('',#845,4.);
#744=CYLINDRICAL_SURFACE('',#848,4.);
#745=CYLINDRICAL_SURFACE('',#851,4.);
#746=CYLINDRICAL_SURFACE('',#852,4.);
#747=CYLINDRICAL_SURFACE('',#853,5.);
#748=CYLINDRICAL_SURFACE('',#861,5.);
#749=CYLINDRICAL_SURFACE('',#864,5.);
#750=CYLINDRICAL_SURFACE('',#867,5.);
#751=CYLINDRICAL_SURFACE('',#872,1.5);
#752=CYLINDRICAL_SURFACE('',#876,1.5);
#753=CYLINDRICAL_SURFACE('',#880,1.5);
#754=CYLINDRICAL_SURFACE('',#883,1.5);
#755=ADVANCED_FACE('',(#43),#730,.F.);
#756=ADVANCED_FACE('',(#44),#731,.F.);
#757=ADVANCED_FACE('',(#45),#26,.T.);
#758=ADVANCED_FACE('',(#46),#732,.F.);
#759=ADVANCED_FACE('',(#47),#733,.F.);
#760=ADVANCED_FACE('',(#48),#734,.F.);
#761=ADVANCED_FACE('',(#49,#15,#16),#27,.T.);
#762=ADVANCED_FACE('',(#50),#28,.T.);
#763=ADVANCED_FACE('',(#51),#735,.F.);
#764=ADVANCED_FACE('',(#52),#736,.F.);
#765=ADVANCED_FACE('',(#53),#737,.F.);
#766=ADVANCED_FACE('',(#54),#738,.F.);
#767=ADVANCED_FACE('',(#55),#29,.T.);
#768=ADVANCED_FACE('',(#56),#739,.F.);
#769=ADVANCED_FACE('',(#57),#740,.F.);
#770=ADVANCED_FACE('',(#58),#741,.F.);
#771=ADVANCED_FACE('',(#59),#742,.F.);
#772=ADVANCED_FACE('',(#60),#743,.F.);
#773=ADVANCED_FACE('',(#61),#744,.F.);
#774=ADVANCED_FACE('',(#62),#745,.F.);
#775=ADVANCED_FACE('',(#63),#746,.F.);
#776=ADVANCED_FACE('',(#64),#747,.T.);
#777=ADVANCED_FACE('',(#65),#30,.T.);
#778=ADVANCED_FACE('',(#66,#17),#31,.T.);
#779=ADVANCED_FACE('',(#67),#748,.T.);
#780=ADVANCED_FACE('',(#68),#32,.T.);
#781=ADVANCED_FACE('',(#69),#749,.T.);
#782=ADVANCED_FACE('',(#70),#33,.T.);
#783=ADVANCED_FACE('',(#71),#750,.T.);
#784=ADVANCED_FACE('',(#72),#34,.T.);
#785=ADVANCED_FACE('',(#73),#35,.T.);
#786=ADVANCED_FACE('',(#74),#36,.T.);
#787=ADVANCED_FACE('',(#75),#751,.F.);
#788=ADVANCED_FACE('',(#76,#18),#37,.T.);
#789=ADVANCED_FACE('',(#77),#752,.F.);
#790=ADVANCED_FACE('',(#78,#19),#38,.T.);
#791=ADVANCED_FACE('',(#79),#753,.F.);
#792=ADVANCED_FACE('',(#80),#754,.F.);
#793=ADVANCED_FACE('',(#81,#20),#39,.T.);
#794=ADVANCED_FACE('',(#82,#21),#40,.T.);
#795=ADVANCED_FACE('',(#83),#41,.T.);
#796=ADVANCED_FACE('',(#84,#22,#23,#24,#25),#42,.F.);
#797=CLOSED_SHELL('',(#755,#756,#757,#758,#759,#760,#761,#762,#763,#764,
#765,#766,#767,#768,#769,#770,#771,#772,#773,#774,#775,#776,#777,#778,#779,
#780,#781,#782,#783,#784,#785,#786,#787,#788,#789,#790,#791,#792,#793,#794,
#795,#796));
#798=DERIVED_UNIT_ELEMENT(#800,1.);
#799=DERIVED_UNIT_ELEMENT(#1357,-3.);
#800=(
MASS_UNIT()
NAMED_UNIT(*)
SI_UNIT(.KILO.,.GRAM.)
);
#801=DERIVED_UNIT((#798,#799));
#802=MEASURE_REPRESENTATION_ITEM('density measure',
POSITIVE_RATIO_MEASURE(7850.),#801);
#803=PROPERTY_DEFINITION_REPRESENTATION(#808,#805);
#804=PROPERTY_DEFINITION_REPRESENTATION(#809,#806);
#805=REPRESENTATION('material name',(#807),#1354);
#806=REPRESENTATION('density',(#802),#1354);
#807=DESCRIPTIVE_REPRESENTATION_ITEM('Steel','Steel');
#808=PROPERTY_DEFINITION('material property','material name',#1364);
#809=PROPERTY_DEFINITION('material property','density of part',#1364);
#810=AXIS2_PLACEMENT_3D('',#1124,#890,#891);
#811=AXIS2_PLACEMENT_3D('',#1125,#892,#893);
#812=AXIS2_PLACEMENT_3D('',#1128,#894,#895);
#813=AXIS2_PLACEMENT_3D('',#1132,#897,#898);
#814=AXIS2_PLACEMENT_3D('',#1134,#900,#901);
#815=AXIS2_PLACEMENT_3D('',#1137,#902,#903);
#816=AXIS2_PLACEMENT_3D('',#1140,#906,#907);
#817=AXIS2_PLACEMENT_3D('',#1144,#909,#910);
#818=AXIS2_PLACEMENT_3D('',#1154,#916,#917);
#819=AXIS2_PLACEMENT_3D('',#1157,#918,#919);
#820=AXIS2_PLACEMENT_3D('',#1161,#921,#922);
#821=AXIS2_PLACEMENT_3D('',#1163,#924,#925);
#822=AXIS2_PLACEMENT_3D('',#1167,#927,#928);
#823=AXIS2_PLACEMENT_3D('',#1169,#930,#931);
#824=AXIS2_PLACEMENT_3D('',#1172,#932,#933);
#825=AXIS2_PLACEMENT_3D('',#1175,#936,#937);
#826=AXIS2_PLACEMENT_3D('',#1206,#954,#955);
#827=AXIS2_PLACEMENT_3D('',#1212,#959,#960);
#828=AXIS2_PLACEMENT_3D('',#1214,#962,#963);
#829=AXIS2_PLACEMENT_3D('',#1217,#965,#966);
#830=AXIS2_PLACEMENT_3D('',#1218,#967,#968);
#831=AXIS2_PLACEMENT_3D('',#1220,#970,#971);
#832=AXIS2_PLACEMENT_3D('',#1222,#972,#973);
#833=AXIS2_PLACEMENT_3D('',#1225,#975,#976);
#834=AXIS2_PLACEMENT_3D('',#1226,#977,#978);
#835=AXIS2_PLACEMENT_3D('',#1228,#979,#980);
#836=AXIS2_PLACEMENT_3D('',#1230,#982,#983);
#837=AXIS2_PLACEMENT_3D('',#1237,#988,#989);
#838=AXIS2_PLACEMENT_3D('',#1239,#990,#991);
#839=AXIS2_PLACEMENT_3D('',#1242,#993,#994);
#840=AXIS2_PLACEMENT_3D('',#1243,#995,#996);
#841=AXIS2_PLACEMENT_3D('',#1246,#998,#999);
#842=AXIS2_PLACEMENT_3D('',#1247,#1000,#1001);
#843=AXIS2_PLACEMENT_3D('',#1250,#1003,#1004);
#844=AXIS2_PLACEMENT_3D('',#1251,#1005,#1006);
#845=AXIS2_PLACEMENT_3D('',#1253,#1008,#1009);
#846=AXIS2_PLACEMENT_3D('',#1255,#1010,#1011);
#847=AXIS2_PLACEMENT_3D('',#1258,#1013,#1014);
#848=AXIS2_PLACEMENT_3D('',#1259,#1015,#1016);
#849=AXIS2_PLACEMENT_3D('',#1263,#1018,#1019);
#850=AXIS2_PLACEMENT_3D('',#1264,#1020,#1021);
#851=AXIS2_PLACEMENT_3D('',#1265,#1022,#1023);
#852=AXIS2_PLACEMENT_3D('',#1267,#1025,#1026);
#853=AXIS2_PLACEMENT_3D('',#1269,#1028,#1029);
#854=AXIS2_PLACEMENT_3D('',#1272,#1030,#1031);
#855=AXIS2_PLACEMENT_3D('',#1276,#1033,#1034);
#856=AXIS2_PLACEMENT_3D('',#1278,#1036,#1037);
#857=AXIS2_PLACEMENT_3D('',#1284,#1041,#1042);
#858=AXIS2_PLACEMENT_3D('',#1288,#1044,#1045);
#859=AXIS2_PLACEMENT_3D('',#1292,#1047,#1048);
#860=AXIS2_PLACEMENT_3D('',#1295,#1050,#1051);
#861=AXIS2_PLACEMENT_3D('',#1297,#1053,#1054);
#862=AXIS2_PLACEMENT_3D('',#1300,#1056,#1057);
#863=AXIS2_PLACEMENT_3D('',#1301,#1058,#1059);
#864=AXIS2_PLACEMENT_3D('',#1305,#1062,#1063);
#865=AXIS2_PLACEMENT_3D('',#1309,#1065,#1066);
#866=AXIS2_PLACEMENT_3D('',#1311,#1068,#1069);
#867=AXIS2_PLACEMENT_3D('',#1315,#1072,#1073);
#868=AXIS2_PLACEMENT_3D('',#1316,#1074,#1075);
#869=AXIS2_PLACEMENT_3D('',#1317,#1076,#1077);
#870=AXIS2_PLACEMENT_3D('',#1319,#1079,#1080);
#871=AXIS2_PLACEMENT_3D('',#1320,#1081,#1082);
#872=AXIS2_PLACEMENT_3D('',#1321,#1083,#1084);
#873=AXIS2_PLACEMENT_3D('',#1323,#1085,#1086);
#874=AXIS2_PLACEMENT_3D('',#1326,#1088,#1089);
#875=AXIS2_PLACEMENT_3D('',#1327,#1090,#1091);
#876=AXIS2_PLACEMENT_3D('',#1328,#1092,#1093);
#877=AXIS2_PLACEMENT_3D('',#1330,#1094,#1095);
#878=AXIS2_PLACEMENT_3D('',#1333,#1097,#1098);
#879=AXIS2_PLACEMENT_3D('',#1334,#1099,#1100);
#880=AXIS2_PLACEMENT_3D('',#1335,#1101,#1102);
#881=AXIS2_PLACEMENT_3D('',#1337,#1103,#1104);
#882=AXIS2_PLACEMENT_3D('',#1340,#1106,#1107);
#883=AXIS2_PLACEMENT_3D('',#1341,#1108,#1109);
#884=AXIS2_PLACEMENT_3D('',#1343,#1110,#1111);
#885=AXIS2_PLACEMENT_3D('',#1346,#1113,#1114);
#886=AXIS2_PLACEMENT_3D('',#1347,#1115,#1116);
#887=AXIS2_PLACEMENT_3D('',#1348,#1117,#1118);
#888=AXIS2_PLACEMENT_3D('',#1349,#1119,#1120);
#889=AXIS2_PLACEMENT_3D('',#1351,#1122,#1123);
#890=DIRECTION('axis',(0.,0.,1.));
#891=DIRECTION('refdir',(1.,0.,0.));
#892=DIRECTION('center_axis',(0.,-1.,0.));
#893=DIRECTION('ref_axis',(-0.916515138991168,0.,-0.4));
#894=DIRECTION('center_axis',(0.,-1.,0.));
#895=DIRECTION('ref_axis',(-0.916515138991168,0.,-0.4));
#896=DIRECTION('',(0.,1.,0.));
#897=DIRECTION('center_axis',(-0.707106781186548,-0.707106781186547,0.));
#898=DIRECTION('ref_axis',(-0.707106781186547,0.707106781186548,0.));
#899=DIRECTION('',(0.,1.,0.));
#900=DIRECTION('center_axis',(-1.,0.,0.));
#901=DIRECTION('ref_axis',(0.,0.916515138991168,-0.399999999999999));
#902=DIRECTION('center_axis',(1.,0.,0.));
#903=DIRECTION('ref_axis',(0.,0.916515138991168,-0.399999999999999));
#904=DIRECTION('',(1.,0.,0.));
#905=DIRECTION('',(1.,0.,0.));
#906=DIRECTION('center_axis',(0.,-1.,0.));
#907=DIRECTION('ref_axis',(1.,0.,0.));
#908=DIRECTION('',(-1.,0.,0.));
#909=DIRECTION('center_axis',(0.,-1.,0.));
#910=DIRECTION('ref_axis',(0.916515138991168,0.,-0.4));
#911=DIRECTION('',(-1.,0.,0.));
#912=DIRECTION('',(0.,0.,1.));
#913=DIRECTION('',(1.,0.,0.));
#914=DIRECTION('',(0.,0.,1.));
#915=DIRECTION('',(-1.,0.,0.));
#916=DIRECTION('center_axis',(-1.,0.,0.));
#917=DIRECTION('ref_axis',(0.,0.916515138991168,-0.4));
#918=DIRECTION('center_axis',(-1.,0.,0.));
#919=DIRECTION('ref_axis',(0.,0.916515138991168,-0.4));
#920=DIRECTION('',(1.,0.,0.));
#921=DIRECTION('center_axis',(-0.707106781186548,0.707106781186547,0.));
#922=DIRECTION('ref_axis',(0.707106781186547,0.707106781186548,0.));
#923=DIRECTION('',(1.,0.,0.));
#924=DIRECTION('center_axis',(0.,1.,0.));
#925=DIRECTION('ref_axis',(0.916515138991168,0.,-0.4));
#926=DIRECTION('',(0.,-1.,0.));
#927=DIRECTION('center_axis',(0.707106781186548,0.707106781186547,0.));
#928=DIRECTION('ref_axis',(0.707106781186547,-0.707106781186548,0.));
#929=DIRECTION('',(0.,-1.,0.));
#930=DIRECTION('center_axis',(1.,0.,0.));
#931=DIRECTION('ref_axis',(0.,-0.916515138991168,-0.4));
#932=DIRECTION('center_axis',(-1.,0.,0.));
#933=DIRECTION('ref_axis',(0.,-0.916515138991168,-0.4));
#934=DIRECTION('',(-1.,0.,0.));
#935=DIRECTION('',(-1.,0.,0.));
#936=DIRECTION('center_axis',(0.,0.,1.));
#937=DIRECTION('ref_axis',(1.,0.,0.));
#938=DIRECTION('',(0.,-1.,0.));
#939=DIRECTION('',(-1.,0.,0.));
#940=DIRECTION('',(0.,1.,0.));
#941=DIRECTION('',(1.,0.,0.));
#942=DIRECTION('',(0.,1.,0.));
#943=DIRECTION('',(0.,1.,0.));
#944=DIRECTION('',(1.,0.,0.));
#945=DIRECTION('',(0.,-1.,0.));
#946=DIRECTION('',(0.,1.,0.));
#947=DIRECTION('',(1.,0.,0.));
#948=DIRECTION('',(0.,-1.,0.));
#949=DIRECTION('',(-1.,0.,0.));
#950=DIRECTION('',(0.,-1.,0.));
#951=DIRECTION('',(-1.,0.,0.));
#952=DIRECTION('',(0.,1.,0.));
#953=DIRECTION('',(1.,0.,0.));
#954=DIRECTION('center_axis',(-1.,0.,0.));
#955=DIRECTION('ref_axis',(0.,-1.,0.));
#956=DIRECTION('',(0.,0.,1.));
#957=DIRECTION('',(0.,-1.,0.));
#958=DIRECTION('',(0.,1.,0.));
#959=DIRECTION('center_axis',(-1.,0.,0.));
#960=DIRECTION('ref_axis',(0.,0.916515138991168,-0.399999999999999));
#961=DIRECTION('',(0.,1.,0.));
#962=DIRECTION('center_axis',(-1.,0.,0.));
#963=DIRECTION('ref_axis',(0.,0.916515138991168,-0.399999999999999));
#964=DIRECTION('',(1.,0.,0.));
#965=DIRECTION('center_axis',(-0.707106781186548,0.707106781186547,0.));
#966=DIRECTION('ref_axis',(0.707106781186547,0.707106781186548,0.));
#967=DIRECTION('center_axis',(0.,1.,0.));
#968=DIRECTION('ref_axis',(0.916515138991168,0.,-0.4));
#969=DIRECTION('',(0.,-1.,0.));
#970=DIRECTION('center_axis',(1.,0.,0.));
#971=DIRECTION('ref_axis',(0.,-0.916515138991168,-0.4));
#972=DIRECTION('center_axis',(1.,0.,0.));
#973=DIRECTION('ref_axis',(0.,-0.916515138991168,-0.4));
#974=DIRECTION('',(-1.,0.,0.));
#975=DIRECTION('center_axis',(0.707106781186548,-0.707106781186548,0.));
#976=DIRECTION('ref_axis',(-0.707106781186548,-0.707106781186548,0.));
#977=DIRECTION('center_axis',(0.,-1.,0.));
#978=DIRECTION('ref_axis',(-0.916515138991168,0.,-0.4));
#979=DIRECTION('center_axis',(0.,1.,0.));
#980=DIRECTION('ref_axis',(-0.916515138991168,0.,-0.4));
#981=DIRECTION('',(0.,1.,0.));
#982=DIRECTION('center_axis',(1.,0.,0.));
#983=DIRECTION('ref_axis',(0.,1.,0.));
#984=DIRECTION('',(0.,-1.,0.));
#985=DIRECTION('',(0.,1.,0.));
#986=DIRECTION('',(0.,0.,1.));
#987=DIRECTION('',(0.,-1.,0.));
#988=DIRECTION('center_axis',(0.,-1.,0.));
#989=DIRECTION('ref_axis',(-0.968245836551854,0.,-0.25));
#990=DIRECTION('center_axis',(-0.707106781186548,0.707106781186547,0.));
#991=DIRECTION('ref_axis',(0.707106781186547,0.707106781186548,0.));
#992=DIRECTION('',(0.,1.,0.));
#993=DIRECTION('center_axis',(-0.707106781186548,-0.707106781186547,0.));
#994=DIRECTION('ref_axis',(-0.707106781186547,0.707106781186548,0.));
#995=DIRECTION('center_axis',(1.,0.,0.));
#996=DIRECTION('ref_axis',(0.,-0.968245836551854,-0.25));
#997=DIRECTION('',(-1.,0.,0.));
#998=DIRECTION('center_axis',(0.707106781186548,0.707106781186547,0.));
#999=DIRECTION('ref_axis',(0.707106781186547,-0.707106781186548,0.));
#1000=DIRECTION('center_axis',(-1.,0.,0.));
#1001=DIRECTION('ref_axis',(0.,0.968245836551854,-0.25));
#1002=DIRECTION('',(1.,0.,0.));
#1003=DIRECTION('center_axis',(-0.707106781186548,0.707106781186547,0.));
#1004=DIRECTION('ref_axis',(0.707106781186547,0.707106781186548,0.));
#1005=DIRECTION('center_axis',(0.,1.,0.));
#1006=DIRECTION('ref_axis',(0.968245836551854,0.,-0.25));
#1007=DIRECTION('',(0.,-1.,0.));
#1008=DIRECTION('center_axis',(0.,-1.,0.));
#1009=DIRECTION('ref_axis',(-0.968245836551854,0.,-0.25));
#1010=DIRECTION('center_axis',(-0.707106781186548,0.707106781186547,0.));
#1011=DIRECTION('ref_axis',(0.707106781186547,0.707106781186548,0.));
#1012=DIRECTION('',(0.,1.,0.));
#1013=DIRECTION('center_axis',(-0.707106781186548,-0.707106781186547,0.));
#1014=DIRECTION('ref_axis',(-0.707106781186547,0.707106781186548,0.));
#1015=DIRECTION('center_axis',(0.,1.,0.));
#1016=DIRECTION('ref_axis',(0.968245836551854,0.,-0.25));
#1017=DIRECTION('',(0.,-1.,0.));
#1018=DIRECTION('center_axis',(0.707106781186548,0.707106781186547,0.));
#1019=DIRECTION('ref_axis',(0.707106781186547,-0.707106781186548,0.));
#1020=DIRECTION('center_axis',(-0.707106781186548,0.707106781186547,0.));
#1021=DIRECTION('ref_axis',(0.707106781186547,0.707106781186548,0.));
#1022=DIRECTION('center_axis',(1.,0.,0.));
#1023=DIRECTION('ref_axis',(0.,-0.968245836551854,-0.25));
#1024=DIRECTION('',(-1.,0.,0.));
#1025=DIRECTION('center_axis',(-1.,0.,0.));
#1026=DIRECTION('ref_axis',(0.,0.968245836551854,-0.25));
#1027=DIRECTION('',(1.,0.,0.));
#1028=DIRECTION('center_axis',(0.,0.,1.));
#1029=DIRECTION('ref_axis',(-0.707106781186547,0.707106781186547,0.));
#1030=DIRECTION('center_axis',(0.,0.,-1.));
#1031=DIRECTION('ref_axis',(-0.707106781186547,0.707106781186547,0.));
#1032=DIRECTION('',(0.,0.,-1.));
#1033=DIRECTION('center_axis',(0.,0.,1.));
#1034=DIRECTION('ref_axis',(-0.707106781186547,0.707106781186547,0.));
#1035=DIRECTION('',(0.,0.,1.));
#1036=DIRECTION('center_axis',(0.,1.,0.));
#1037=DIRECTION('ref_axis',(-1.,0.,0.));
#1038=DIRECTION('',(-1.,0.,0.));
#1039=DIRECTION('',(0.,0.,1.));
#1040=DIRECTION('',(-1.,0.,0.));
#1041=DIRECTION('center_axis',(0.,0.,1.));
#1042=DIRECTION('ref_axis',(1.,0.,0.));
#1043=DIRECTION('',(0.,-1.,0.));
#1044=DIRECTION('center_axis',(0.,0.,-1.));
#1045=DIRECTION('ref_axis',(-0.707106781186547,-0.707106781186547,0.));
#1046=DIRECTION('',(1.,0.,0.));
#1047=DIRECTION('center_axis',(0.,0.,-1.));
#1048=DIRECTION('ref_axis',(0.707106781186547,-0.707106781186547,0.));
#1049=DIRECTION('',(0.,1.,0.));
#1050=DIRECTION('center_axis',(0.,0.,-1.));
#1051=DIRECTION('ref_axis',(0.707106781186547,0.707106781186547,0.));
#1052=DIRECTION('',(-1.,0.,0.));
#1053=DIRECTION('center_axis',(0.,0.,1.));
#1054=DIRECTION('ref_axis',(0.707106781186547,0.707106781186547,0.));
#1055=DIRECTION('',(0.,0.,-1.));
#1056=DIRECTION('center_axis',(0.,0.,1.));
#1057=DIRECTION('ref_axis',(0.707106781186547,0.707106781186547,0.));
#1058=DIRECTION('center_axis',(1.,0.,0.));
#1059=DIRECTION('ref_axis',(0.,1.,0.));
#1060=DIRECTION('',(0.,0.,1.));
#1061=DIRECTION('',(0.,1.,0.));
#1062=DIRECTION('center_axis',(0.,0.,1.));
#1063=DIRECTION('ref_axis',(-0.707106781186547,-0.707106781186547,0.));
#1064=DIRECTION('',(0.,0.,-1.));
#1065=DIRECTION('center_axis',(0.,0.,1.));
#1066=DIRECTION('ref_axis',(-0.707106781186547,-0.707106781186547,0.));
#1067=DIRECTION('',(0.,0.,1.));
#1068=DIRECTION('center_axis',(0.,-1.,0.));
#1069=DIRECTION('ref_axis',(1.,0.,0.));
#1070=DIRECTION('',(1.,0.,0.));
#1071=DIRECTION('',(0.,0.,-1.));
#1072=DIRECTION('center_axis',(0.,0.,1.));
#1073=DIRECTION('ref_axis',(0.707106781186547,-0.707106781186547,0.));
#1074=DIRECTION('center_axis',(0.,0.,1.));
#1075=DIRECTION('ref_axis',(0.707106781186547,-0.707106781186547,0.));
#1076=DIRECTION('center_axis',(0.,1.,0.));
#1077=DIRECTION('ref_axis',(-1.,0.,0.));
#1078=DIRECTION('',(1.,0.,0.));
#1079=DIRECTION('center_axis',(0.,0.,1.));
#1080=DIRECTION('ref_axis',(1.,0.,0.));
#1081=DIRECTION('center_axis',(0.,0.,1.));
#1082=DIRECTION('ref_axis',(1.,0.,0.));
#1083=DIRECTION('center_axis',(0.,0.,-1.));
#1084=DIRECTION('ref_axis',(-1.,0.,0.));
#1085=DIRECTION('center_axis',(0.,0.,-1.));
#1086=DIRECTION('ref_axis',(-1.,0.,0.));
#1087=DIRECTION('',(0.,0.,-1.));
#1088=DIRECTION('center_axis',(0.,0.,1.));
#1089=DIRECTION('ref_axis',(-1.,0.,0.));
#1090=DIRECTION('center_axis',(0.,0.,1.));
#1091=DIRECTION('ref_axis',(1.,0.,0.));
#1092=DIRECTION('center_axis',(0.,0.,-1.));
#1093=DIRECTION('ref_axis',(-1.,0.,0.));
#1094=DIRECTION('center_axis',(0.,0.,-1.));
#1095=DIRECTION('ref_axis',(-1.,0.,0.));
#1096=DIRECTION('',(0.,0.,-1.));
#1097=DIRECTION('center_axis',(0.,0.,1.));
#1098=DIRECTION('ref_axis',(-1.,0.,0.));
#1099=DIRECTION('center_axis',(0.,0.,1.));
#1100=DIRECTION('ref_axis',(1.,0.,0.));
#1101=DIRECTION('center_axis',(0.,0.,-1.));
#1102=DIRECTION('ref_axis',(-1.,0.,0.));
#1103=DIRECTION('center_axis',(0.,0.,-1.));
#1104=DIRECTION('ref_axis',(-1.,0.,0.));
#1105=DIRECTION('',(0.,0.,-1.));
#1106=DIRECTION('center_axis',(0.,0.,1.));
#1107=DIRECTION('ref_axis',(-1.,0.,0.));
#1108=DIRECTION('center_axis',(0.,0.,-1.));
#1109=DIRECTION('ref_axis',(-1.,0.,0.));
#1110=DIRECTION('center_axis',(0.,0.,-1.));
#1111=DIRECTION('ref_axis',(-1.,0.,0.));
#1112=DIRECTION('',(0.,0.,-1.));
#1113=DIRECTION('center_axis',(0.,0.,1.));
#1114=DIRECTION('ref_axis',(-1.,0.,0.));
#1115=DIRECTION('center_axis',(0.,0.,1.));
#1116=DIRECTION('ref_axis',(1.,0.,0.));
#1117=DIRECTION('center_axis',(0.,0.,1.));
#1118=DIRECTION('ref_axis',(1.,0.,0.));
#1119=DIRECTION('center_axis',(-1.,0.,0.));
#1120=DIRECTION('ref_axis',(0.,-1.,0.));
#1121=DIRECTION('',(0.,-1.,0.));
#1122=DIRECTION('center_axis',(0.,0.,1.));
#1123=DIRECTION('ref_axis',(1.,0.,0.));
#1124=CARTESIAN_POINT('',(0.,0.,0.));
#1125=CARTESIAN_POINT('Origin',(14.5825756279006,95.7499978598207,8.));
#1126=CARTESIAN_POINT('',(9.99999993294477,95.7499978598207,6.));
#1127=CARTESIAN_POINT('',(14.5825756279006,95.75,3.));
#1128=CARTESIAN_POINT('Origin',(14.5825756279006,95.75,8.));
#1129=CARTESIAN_POINT('',(9.99999993294477,88.7499978598207,6.));
#1130=CARTESIAN_POINT('',(9.99999993294477,95.7499978598207,6.));
#1131=CARTESIAN_POINT('',(14.5825756279006,84.1674221648649,3.));
#1132=CARTESIAN_POINT('Origin',(14.5825756279006,84.1674221648649,8.));
#1133=CARTESIAN_POINT('',(14.5825756279006,95.7499978598207,3.));
#1134=CARTESIAN_POINT('Origin',(9.99999993294477,84.1674221648649,8.));
#1135=CARTESIAN_POINT('',(3.,84.1674221648649,3.));
#1136=CARTESIAN_POINT('',(2.99999993294477,88.7499978598207,6.));
#1137=CARTESIAN_POINT('Origin',(3.,84.1674221648649,8.));
#1138=CARTESIAN_POINT('',(9.99999993294477,84.1674221648649,3.));
#1139=CARTESIAN_POINT('',(9.99999993294477,88.7499978598207,6.));
#1140=CARTESIAN_POINT('Origin',(3.00000000000001,95.75,3.));
#1141=CARTESIAN_POINT('',(79.9174222598598,95.75,3.));
#1142=CARTESIAN_POINT('',(25.125,95.75,3.));
#1143=CARTESIAN_POINT('',(84.4999979548156,95.7499978598207,6.));
#1144=CARTESIAN_POINT('Origin',(79.9174222598598,95.75,8.));
#1145=CARTESIAN_POINT('',(91.4999979548156,95.7499978598207,6.));
#1146=CARTESIAN_POINT('',(91.4999979548156,95.7499978598207,6.));
#1147=CARTESIAN_POINT('',(91.5,95.75,13.5));
#1148=CARTESIAN_POINT('',(91.5,95.75,3.));
#1149=CARTESIAN_POINT('',(3.00000000000001,95.75,13.5));
#1150=CARTESIAN_POINT('',(94.5,95.75,13.5));
#1151=CARTESIAN_POINT('',(2.99999993294477,95.7499978598207,6.));
#1152=CARTESIAN_POINT('',(3.,95.75,3.));
#1153=CARTESIAN_POINT('',(2.99999993294477,95.7499978598207,6.));
#1154=CARTESIAN_POINT('Origin',(91.4999979548156,21.9174243050442,8.));
#1155=CARTESIAN_POINT('',(91.4999979548156,26.5,6.));
#1156=CARTESIAN_POINT('',(91.5,21.9174243050442,3.));
#1157=CARTESIAN_POINT('Origin',(91.5,21.9174243050442,8.));
#1158=CARTESIAN_POINT('',(84.4999979548156,26.5,6.));
#1159=CARTESIAN_POINT('',(91.4999979548156,26.5,6.));
#1160=CARTESIAN_POINT('',(79.9174222598598,21.9174243050442,3.));
#1161=CARTESIAN_POINT('Origin',(79.9174222598598,21.9174243050442,8.));
#1162=CARTESIAN_POINT('',(91.4999979548156,21.9174243050442,3.));
#1163=CARTESIAN_POINT('Origin',(79.9174222598598,26.5,8.));
#1164=CARTESIAN_POINT('',(84.4999979548156,31.5,6.));
#1165=CARTESIAN_POINT('',(84.4999979548156,26.5,6.));
#1166=CARTESIAN_POINT('',(79.9174222598598,36.0825756949558,3.));
#1167=CARTESIAN_POINT('Origin',(79.9174222598598,36.0825756949558,8.));
#1168=CARTESIAN_POINT('',(79.9174222598598,26.5,3.));
#1169=CARTESIAN_POINT('Origin',(84.4999979548156,36.0825756949558,8.));
#1170=CARTESIAN_POINT('',(91.5,36.0825756949558,3.));
#1171=CARTESIAN_POINT('',(91.4999979548156,31.5,6.));
#1172=CARTESIAN_POINT('Origin',(91.5,36.0825756949558,8.));
#1173=CARTESIAN_POINT('',(84.4999979548156,36.0825756949558,3.));
#1174=CARTESIAN_POINT('',(84.4999979548156,31.5,6.));
#1175=CARTESIAN_POINT('Origin',(47.25,49.375,3.));
#1176=CARTESIAN_POINT('',(3.,14.5825756279006,3.));
#1177=CARTESIAN_POINT('',(3.,26.1875,3.));
#1178=CARTESIAN_POINT('',(14.5825756279006,14.5825756279006,3.));
#1179=CARTESIAN_POINT('',(9.99999993294477,14.5825756279006,3.));
#1180=CARTESIAN_POINT('',(14.5825756279006,3.,3.));
#1181=CARTESIAN_POINT('',(14.5825756279006,2.99999993294477,3.));
#1182=CARTESIAN_POINT('',(91.5,3.00000000000001,3.));
#1183=CARTESIAN_POINT('',(69.375,3.,3.));
#1184=CARTESIAN_POINT('',(91.5,72.5625,3.));
#1185=CARTESIAN_POINT('',(91.5,84.1674221648649,3.));
#1186=CARTESIAN_POINT('',(91.5,72.5625,3.));
#1187=CARTESIAN_POINT('',(79.9174222598598,84.1674221648649,3.));
#1188=CARTESIAN_POINT('',(84.4999979548156,84.1674221648649,3.));
#1189=CARTESIAN_POINT('',(79.9174222598598,95.7499978598207,3.));
#1190=CARTESIAN_POINT('',(33.8729833462074,45.8770166537926,3.));
#1191=CARTESIAN_POINT('',(33.8729833462074,58.6229833462074,3.));
#1192=CARTESIAN_POINT('',(33.8729833462074,54.75,3.));
#1193=CARTESIAN_POINT('',(21.1270166537926,45.8770166537926,3.));
#1194=CARTESIAN_POINT('',(30.,45.8770166537926,3.));
#1195=CARTESIAN_POINT('',(21.1270166537926,58.6229833462074,3.));
#1196=CARTESIAN_POINT('',(21.1270166537926,49.75,3.));
#1197=CARTESIAN_POINT('',(25.,58.6229833462074,3.));
#1198=CARTESIAN_POINT('',(62.6270166537926,58.6229833462074,3.));
#1199=CARTESIAN_POINT('',(62.6270166537926,45.8770166537926,3.));
#1200=CARTESIAN_POINT('',(62.6270166537926,49.75,3.));
#1201=CARTESIAN_POINT('',(75.3729833462074,58.6229833462074,3.));
#1202=CARTESIAN_POINT('',(66.5,58.6229833462074,3.));
#1203=CARTESIAN_POINT('',(75.3729833462074,45.8770166537926,3.));
#1204=CARTESIAN_POINT('',(75.3729833462074,54.75,3.));
#1205=CARTESIAN_POINT('',(71.5,45.8770166537926,3.));
#1206=CARTESIAN_POINT('Origin',(91.5,95.75,3.));
#1207=CARTESIAN_POINT('',(91.5,3.00000000000001,13.5));
#1208=CARTESIAN_POINT('',(91.5,3.00000000000001,3.));
#1209=CARTESIAN_POINT('',(91.5,98.75,13.5));
#1210=CARTESIAN_POINT('',(91.4999979548156,88.7499978598207,6.));
#1211=CARTESIAN_POINT('',(91.4999979548156,88.7499978598207,6.));
#1212=CARTESIAN_POINT('Origin',(91.5,84.1674221648649,8.));
#1213=CARTESIAN_POINT('',(91.4999979548156,31.5,6.));
#1214=CARTESIAN_POINT('Origin',(84.4999979548156,84.1674221648649,8.));
#1215=CARTESIAN_POINT('',(84.4999979548156,88.7499978598207,6.));
#1216=CARTESIAN_POINT('',(84.4999979548156,88.7499978598207,6.));
#1217=CARTESIAN_POINT('Origin',(79.9174222598598,84.1674221648649,8.));
#1218=CARTESIAN_POINT('Origin',(79.9174222598598,95.7499978598207,8.));
#1219=CARTESIAN_POINT('',(84.4999979548156,95.7499978598207,6.));
#1220=CARTESIAN_POINT('Origin',(9.99999993294477,14.5825756279006,8.));
#1221=CARTESIAN_POINT('',(2.99999993294477,9.99999993294477,6.));
#1222=CARTESIAN_POINT('Origin',(3.,14.5825756279006,8.));
#1223=CARTESIAN_POINT('',(9.99999993294477,9.99999993294477,6.));
#1224=CARTESIAN_POINT('',(9.99999993294477,9.99999993294477,6.));
#1225=CARTESIAN_POINT('Origin',(14.5825756279006,14.5825756279006,8.));
#1226=CARTESIAN_POINT('Origin',(14.5825756279006,2.99999993294477,8.));
#1227=CARTESIAN_POINT('',(9.99999993294477,2.99999993294477,6.));
#1228=CARTESIAN_POINT('Origin',(14.5825756279006,3.,8.));
#1229=CARTESIAN_POINT('',(9.99999993294477,2.99999993294477,6.));
#1230=CARTESIAN_POINT('Origin',(3.,3.00000000000001,3.));
#1231=CARTESIAN_POINT('',(2.99999993294477,88.7499978598207,6.));
#1232=CARTESIAN_POINT('',(3.00000000000001,3.00000000000001,13.5));
#1233=CARTESIAN_POINT('',(3.,98.75,13.5));
#1234=CARTESIAN_POINT('',(2.99999993294477,2.99999993294477,6.));
#1235=CARTESIAN_POINT('',(3.,3.00000000000001,3.));
#1236=CARTESIAN_POINT('',(2.99999993294477,9.99999993294477,6.));
#1237=CARTESIAN_POINT('Origin',(33.8729833462074,54.75,7.));
#1238=CARTESIAN_POINT('',(30.,54.75,6.));
#1239=CARTESIAN_POINT('Origin',(33.8729833462074,58.6229833462074,7.));
#1240=CARTESIAN_POINT('',(30.,49.75,6.));
#1241=CARTESIAN_POINT('',(30.,54.75,6.));
#1242=CARTESIAN_POINT('Origin',(33.8729833462074,45.8770166537926,7.));
#1243=CARTESIAN_POINT('Origin',(25.,58.6229833462074,7.));
#1244=CARTESIAN_POINT('',(25.,54.75,6.));
#1245=CARTESIAN_POINT('',(25.,54.75,6.));
#1246=CARTESIAN_POINT('Origin',(21.1270166537926,58.6229833462074,7.));
#1247=CARTESIAN_POINT('Origin',(30.,45.8770166537926,7.));
#1248=CARTESIAN_POINT('',(25.,49.75,6.));
#1249=CARTESIAN_POINT('',(30.,49.75,6.));
#1250=CARTESIAN_POINT('Origin',(21.1270166537926,45.8770166537926,7.));
#1251=CARTESIAN_POINT('Origin',(21.1270166537926,49.75,7.));
#1252=CARTESIAN_POINT('',(25.,49.75,6.));
#1253=CARTESIAN_POINT('Origin',(75.3729833462074,54.75,7.));
#1254=CARTESIAN_POINT('',(71.5,54.75,6.));
#1255=CARTESIAN_POINT('Origin',(75.3729833462074,58.6229833462074,7.));
#1256=CARTESIAN_POINT('',(71.5,49.75,6.));
#1257=CARTESIAN_POINT('',(71.5,54.75,6.));
#1258=CARTESIAN_POINT('Origin',(75.3729833462074,45.8770166537926,7.));
#1259=CARTESIAN_POINT('Origin',(62.6270166537926,49.75,7.));
#1260=CARTESIAN_POINT('',(66.5,54.75,6.));
#1261=CARTESIAN_POINT('',(66.5,49.75,6.));
#1262=CARTESIAN_POINT('',(66.5,49.75,6.));
#1263=CARTESIAN_POINT('Origin',(62.6270166537926,58.6229833462074,7.));
#1264=CARTESIAN_POINT('Origin',(62.6270166537926,45.8770166537926,7.));
#1265=CARTESIAN_POINT('Origin',(66.5,58.6229833462074,7.));
#1266=CARTESIAN_POINT('',(66.5,54.75,6.));
#1267=CARTESIAN_POINT('Origin',(71.5,45.8770166537926,7.));
#1268=CARTESIAN_POINT('',(71.5,49.75,6.));
#1269=CARTESIAN_POINT('Origin',(5.,93.75,0.));
#1270=CARTESIAN_POINT('',(0.,93.75,13.5));
#1271=CARTESIAN_POINT('',(5.,98.75,13.5));
#1272=CARTESIAN_POINT('Origin',(5.,93.75,13.5));
#1273=CARTESIAN_POINT('',(5.,98.75,0.));
#1274=CARTESIAN_POINT('',(5.,98.75,0.));
#1275=CARTESIAN_POINT('',(0.,93.75,0.));
#1276=CARTESIAN_POINT('Origin',(5.,93.75,0.));
#1277=CARTESIAN_POINT('',(0.,93.75,0.));
#1278=CARTESIAN_POINT('Origin',(94.5,98.75,0.));
#1279=CARTESIAN_POINT('',(89.5,98.75,13.5));
#1280=CARTESIAN_POINT('',(94.5,98.75,13.5));
#1281=CARTESIAN_POINT('',(89.5,98.75,0.));
#1282=CARTESIAN_POINT('',(89.5,98.75,0.));
#1283=CARTESIAN_POINT('',(94.5,98.75,0.));
#1284=CARTESIAN_POINT('Origin',(47.25,49.375,13.5));
#1285=CARTESIAN_POINT('',(0.,5.,13.5));
#1286=CARTESIAN_POINT('',(0.,0.,13.5));
#1287=CARTESIAN_POINT('',(5.,0.,13.5));
#1288=CARTESIAN_POINT('Origin',(5.,5.,13.5));
#1289=CARTESIAN_POINT('',(89.5,0.,13.5));
#1290=CARTESIAN_POINT('',(0.,0.,13.5));
#1291=CARTESIAN_POINT('',(94.5,5.,13.5));
#1292=CARTESIAN_POINT('Origin',(89.5,5.,13.5));
#1293=CARTESIAN_POINT('',(94.5,93.75,13.5));
#1294=CARTESIAN_POINT('',(94.5,0.,13.5));
#1295=CARTESIAN_POINT('Origin',(89.5,93.75,13.5));
#1296=CARTESIAN_POINT('',(94.5,3.,13.5));
#1297=CARTESIAN_POINT('Origin',(89.5,93.75,0.));
#1298=CARTESIAN_POINT('',(94.5,93.75,0.));
#1299=CARTESIAN_POINT('',(94.5,93.75,0.));
#1300=CARTESIAN_POINT('Origin',(89.5,93.75,0.));
#1301=CARTESIAN_POINT('Origin',(94.5,0.,0.));
#1302=CARTESIAN_POINT('',(94.5,5.,0.));
#1303=CARTESIAN_POINT('',(94.5,5.,0.));
#1304=CARTESIAN_POINT('',(94.5,0.,0.));
#1305=CARTESIAN_POINT('Origin',(5.,5.,0.));
#1306=CARTESIAN_POINT('',(0.,5.,0.));
#1307=CARTESIAN_POINT('',(0.,5.,0.));
#1308=CARTESIAN_POINT('',(5.,0.,0.));
#1309=CARTESIAN_POINT('Origin',(5.,5.,0.));
#1310=CARTESIAN_POINT('',(5.,0.,0.));
#1311=CARTESIAN_POINT('Origin',(0.,0.,0.));
#1312=CARTESIAN_POINT('',(89.5,0.,0.));
#1313=CARTESIAN_POINT('',(0.,0.,0.));
#1314=CARTESIAN_POINT('',(89.5,0.,0.));
#1315=CARTESIAN_POINT('Origin',(89.5,5.,0.));
#1316=CARTESIAN_POINT('Origin',(89.5,5.,0.));
#1317=CARTESIAN_POINT('Origin',(91.5,3.,3.));
#1318=CARTESIAN_POINT('',(2.99999993294477,2.99999993294477,6.));
#1319=CARTESIAN_POINT('Origin',(27.5,52.25,6.));
#1320=CARTESIAN_POINT('Origin',(69.,52.25,6.));
#1321=CARTESIAN_POINT('Origin',(87.25,29.,6.));
#1322=CARTESIAN_POINT('',(88.75,29.,6.));
#1323=CARTESIAN_POINT('Origin',(87.25,29.,6.));
#1324=CARTESIAN_POINT('',(88.75,29.,0.));
#1325=CARTESIAN_POINT('',(88.75,29.,6.));
#1326=CARTESIAN_POINT('Origin',(87.25,29.,0.));
#1327=CARTESIAN_POINT('Origin',(87.9999979548156,29.,6.));
#1328=CARTESIAN_POINT('Origin',(7.25,7.25,6.));
#1329=CARTESIAN_POINT('',(8.75,7.25,6.));
#1330=CARTESIAN_POINT('Origin',(7.25,7.25,6.));
#1331=CARTESIAN_POINT('',(8.75,7.25,0.));
#1332=CARTESIAN_POINT('',(8.75,7.25,6.));
#1333=CARTESIAN_POINT('Origin',(7.25,7.25,0.));
#1334=CARTESIAN_POINT('Origin',(6.49999993294478,6.49999993294478,6.));
#1335=CARTESIAN_POINT('Origin',(87.25,91.5,6.));
#1336=CARTESIAN_POINT('',(88.75,91.5,6.));
#1337=CARTESIAN_POINT('Origin',(87.25,91.5,6.));
#1338=CARTESIAN_POINT('',(88.75,91.5,0.));
#1339=CARTESIAN_POINT('',(88.75,91.5,6.));
#1340=CARTESIAN_POINT('Origin',(87.25,91.5,0.));
#1341=CARTESIAN_POINT('Origin',(7.25,91.5,6.));
#1342=CARTESIAN_POINT('',(8.75,91.5,6.));
#1343=CARTESIAN_POINT('Origin',(7.25,91.5,6.));
#1344=CARTESIAN_POINT('',(8.75,91.5,0.));
#1345=CARTESIAN_POINT('',(8.75,91.5,6.));
#1346=CARTESIAN_POINT('Origin',(7.25,91.5,0.));
#1347=CARTESIAN_POINT('Origin',(87.9999979548156,92.2499978598207,6.));
#1348=CARTESIAN_POINT('Origin',(6.49999993294478,92.2499978598207,6.));
#1349=CARTESIAN_POINT('Origin',(0.,98.75,0.));
#1350=CARTESIAN_POINT('',(0.,98.75,0.));
#1351=CARTESIAN_POINT('Origin',(47.25,49.375,0.));
#1352=UNCERTAINTY_MEASURE_WITH_UNIT(LENGTH_MEASURE(0.01),#1356,
'DISTANCE_ACCURACY_VALUE',
'Maximum model space distance between geometric entities at asserted c
onnectivities');
#1353=UNCERTAINTY_MEASURE_WITH_UNIT(LENGTH_MEASURE(0.01),#1356,
'DISTANCE_ACCURACY_VALUE',
'Maximum model space distance between geometric entities at asserted c
onnectivities');
#1354=(
GEOMETRIC_REPRESENTATION_CONTEXT(3)
GLOBAL_UNCERTAINTY_ASSIGNED_CONTEXT((#1352))
GLOBAL_UNIT_ASSIGNED_CONTEXT((#1356,#1358,#1359))
REPRESENTATION_CONTEXT('','3D')
);
#1355=(
GEOMETRIC_REPRESENTATION_CONTEXT(3)
GLOBAL_UNCERTAINTY_ASSIGNED_CONTEXT((#1353))
GLOBAL_UNIT_ASSIGNED_CONTEXT((#1356,#1358,#1359))
REPRESENTATION_CONTEXT('','3D')
);
#1356=(
LENGTH_UNIT()
NAMED_UNIT(*)
SI_UNIT(.MILLI.,.METRE.)
);
#1357=(
LENGTH_UNIT()
NAMED_UNIT(*)
SI_UNIT($,.METRE.)
);
#1358=(
NAMED_UNIT(*)
PLANE_ANGLE_UNIT()
SI_UNIT($,.RADIAN.)
);
#1359=(
NAMED_UNIT(*)
SI_UNIT($,.STERADIAN.)
SOLID_ANGLE_UNIT()
);
#1360=SHAPE_DEFINITION_REPRESENTATION(#1361,#1362);
#1361=PRODUCT_DEFINITION_SHAPE('',$,#1364);
#1362=SHAPE_REPRESENTATION('',(#810),#1354);
#1363=PRODUCT_DEFINITION_CONTEXT('part definition',#1368,'design');
#1364=PRODUCT_DEFINITION('2026-07-11-20-40-48-682','Backplate',#1365,#1363);
#1365=PRODUCT_DEFINITION_FORMATION('',$,#1370);
#1366=PRODUCT_RELATED_PRODUCT_CATEGORY('Backplate','Backplate',(#1370));
#1367=APPLICATION_PROTOCOL_DEFINITION('international standard',
'automotive_design',2009,#1368);
#1368=APPLICATION_CONTEXT(
'Core Data for Automotive Mechanical Design Process');
#1369=PRODUCT_CONTEXT('part definition',#1368,'mechanical');
#1370=PRODUCT('2026-07-11-20-40-48-682','Backplate',$,(#1369));
#1371=PRESENTATION_STYLE_ASSIGNMENT((#1372));
#1372=SURFACE_STYLE_USAGE(.BOTH.,#1373);
#1373=SURFACE_SIDE_STYLE('',(#1374));
#1374=SURFACE_STYLE_FILL_AREA(#1375);
#1375=FILL_AREA_STYLE('Steel - Satin',(#1376));
#1376=FILL_AREA_STYLE_COLOUR('Steel - Satin',#1377);
#1377=COLOUR_RGB('Steel - Satin',0.627450980392157,0.627450980392157,0.627450980392157);
ENDSEC;
END-ISO-10303-21;
