ISO-10303-21;
HEADER;
/* Generated by software containing ST-Developer
 * from STEP Tools, Inc. (www.steptools.com) 
 */

FILE_DESCRIPTION(
/* description */ (''),
/* implementation_level */ '2;1');

FILE_NAME(
/* name */ 'Frontplate.step',
/* time_stamp */ '2026-10-05T06:40:47+05:30',
/* author */ (''),
/* organization */ (''),
/* preprocessor_version */ 'ST-DEVELOPER v20.2',
/* originating_system */ 'Autodesk Translation Framework v15.15.0.0',
/* authorisation */ '');

FILE_SCHEMA (('AUTOMOTIVE_DESIGN { 1 0 10303 214 3 1 1 }'));
ENDSEC;

DATA;
#10=MECHANICAL_DESIGN_GEOMETRIC_PRESENTATION_REPRESENTATION('',(#13),#1730);
#11=SHAPE_REPRESENTATION_RELATIONSHIP('SRR','None',#1737,#12);
#12=ADVANCED_BREP_SHAPE_REPRESENTATION('',(#14),#1729);
#13=STYLED_ITEM('',(#1746),#14);
#14=MANIFOLD_SOLID_BREP('Body1',#1033);
#15=SPHERICAL_SURFACE('',#1059,0.5);
#16=FACE_BOUND('',#118,.T.);
#17=FACE_BOUND('',#159,.T.);
#18=FACE_BOUND('',#160,.T.);
#19=FACE_BOUND('',#161,.T.);
#20=FACE_BOUND('',#162,.T.);
#21=FACE_BOUND('',#163,.T.);
#22=FACE_BOUND('',#164,.T.);
#23=FACE_BOUND('',#165,.T.);
#24=FACE_BOUND('',#166,.T.);
#25=FACE_BOUND('',#167,.T.);
#26=FACE_BOUND('',#176,.T.);
#27=FACE_BOUND('',#177,.T.);
#28=FACE_BOUND('',#178,.T.);
#29=FACE_BOUND('',#179,.T.);
#30=FACE_BOUND('',#180,.T.);
#31=FACE_BOUND('',#181,.T.);
#32=PLANE('',#1056);
#33=PLANE('',#1057);
#34=PLANE('',#1068);
#35=PLANE('',#1069);
#36=PLANE('',#1073);
#37=PLANE('',#1077);
#38=PLANE('',#1078);
#39=PLANE('',#1079);
#40=PLANE('',#1080);
#41=PLANE('',#1081);
#42=PLANE('',#1094);
#43=PLANE('',#1095);
#44=PLANE('',#1096);
#45=PLANE('',#1097);
#46=PLANE('',#1098);
#47=PLANE('',#1101);
#48=PLANE('',#1102);
#49=PLANE('',#1103);
#50=PLANE('',#1104);
#51=PLANE('',#1108);
#52=PLANE('',#1112);
#53=PLANE('',#1116);
#54=PLANE('',#1120);
#55=PLANE('',#1124);
#56=PLANE('',#1125);
#57=PLANE('',#1132);
#58=PLANE('',#1138);
#59=PLANE('',#1139);
#60=PLANE('',#1140);
#61=TOROIDAL_SURFACE('',#1050,4.50000000000001,0.5);
#62=FACE_OUTER_BOUND('',#114,.T.);
#63=FACE_OUTER_BOUND('',#115,.T.);
#64=FACE_OUTER_BOUND('',#116,.T.);
#65=FACE_OUTER_BOUND('',#117,.T.);
#66=FACE_OUTER_BOUND('',#119,.T.);
#67=FACE_OUTER_BOUND('',#120,.T.);
#68=FACE_OUTER_BOUND('',#121,.T.);
#69=FACE_OUTER_BOUND('',#122,.T.);
#70=FACE_OUTER_BOUND('',#123,.T.);
#71=FACE_OUTER_BOUND('',#124,.T.);
#72=FACE_OUTER_BOUND('',#125,.T.);
#73=FACE_OUTER_BOUND('',#126,.T.);
#74=FACE_OUTER_BOUND('',#127,.T.);
#75=FACE_OUTER_BOUND('',#128,.T.);
#76=FACE_OUTER_BOUND('',#129,.T.);
#77=FACE_OUTER_BOUND('',#130,.T.);
#78=FACE_OUTER_BOUND('',#131,.T.);
#79=FACE_OUTER_BOUND('',#132,.T.);
#80=FACE_OUTER_BOUND('',#133,.T.);
#81=FACE_OUTER_BOUND('',#134,.T.);
#82=FACE_OUTER_BOUND('',#135,.T.);
#83=FACE_OUTER_BOUND('',#136,.T.);
#84=FACE_OUTER_BOUND('',#137,.T.);
#85=FACE_OUTER_BOUND('',#138,.T.);
#86=FACE_OUTER_BOUND('',#139,.T.);
#87=FACE_OUTER_BOUND('',#140,.T.);
#88=FACE_OUTER_BOUND('',#141,.T.);
#89=FACE_OUTER_BOUND('',#142,.T.);
#90=FACE_OUTER_BOUND('',#143,.T.);
#91=FACE_OUTER_BOUND('',#144,.T.);
#92=FACE_OUTER_BOUND('',#145,.T.);
#93=FACE_OUTER_BOUND('',#146,.T.);
#94=FACE_OUTER_BOUND('',#147,.T.);
#95=FACE_OUTER_BOUND('',#148,.T.);
#96=FACE_OUTER_BOUND('',#149,.T.);
#97=FACE_OUTER_BOUND('',#150,.T.);
#98=FACE_OUTER_BOUND('',#151,.T.);
#99=FACE_OUTER_BOUND('',#152,.T.);
#100=FACE_OUTER_BOUND('',#153,.T.);
#101=FACE_OUTER_BOUND('',#154,.T.);
#102=FACE_OUTER_BOUND('',#155,.T.);
#103=FACE_OUTER_BOUND('',#156,.T.);
#104=FACE_OUTER_BOUND('',#157,.T.);
#105=FACE_OUTER_BOUND('',#158,.T.);
#106=FACE_OUTER_BOUND('',#168,.T.);
#107=FACE_OUTER_BOUND('',#169,.T.);
#108=FACE_OUTER_BOUND('',#170,.T.);
#109=FACE_OUTER_BOUND('',#171,.T.);
#110=FACE_OUTER_BOUND('',#172,.T.);
#111=FACE_OUTER_BOUND('',#173,.T.);
#112=FACE_OUTER_BOUND('',#174,.T.);
#113=FACE_OUTER_BOUND('',#175,.T.);
#114=EDGE_LOOP('',(#670,#671,#672,#673));
#115=EDGE_LOOP('',(#674,#675,#676,#677));
#116=EDGE_LOOP('',(#678,#679,#680,#681));
#117=EDGE_LOOP('',(#682,#683,#684,#685,#686,#687,#688,#689,#690,#691,#692,
#693,#694));
#118=EDGE_LOOP('',(#695,#696,#697,#698));
#119=EDGE_LOOP('',(#699,#700,#701,#702,#703,#704));
#120=EDGE_LOOP('',(#705,#706,#707));
#121=EDGE_LOOP('',(#708,#709,#710,#711));
#122=EDGE_LOOP('',(#712,#713,#714,#715));
#123=EDGE_LOOP('',(#716,#717,#718,#719));
#124=EDGE_LOOP('',(#720,#721,#722,#723));
#125=EDGE_LOOP('',(#724,#725,#726,#727,#728));
#126=EDGE_LOOP('',(#729,#730,#731,#732));
#127=EDGE_LOOP('',(#733,#734,#735,#736,#737));
#128=EDGE_LOOP('',(#738,#739,#740,#741));
#129=EDGE_LOOP('',(#742,#743,#744,#745));
#130=EDGE_LOOP('',(#746,#747,#748,#749,#750,#751,#752,#753,#754,#755));
#131=EDGE_LOOP('',(#756,#757,#758,#759));
#132=EDGE_LOOP('',(#760,#761,#762,#763));
#133=EDGE_LOOP('',(#764,#765,#766,#767));
#134=EDGE_LOOP('',(#768,#769,#770,#771));
#135=EDGE_LOOP('',(#772,#773,#774,#775));
#136=EDGE_LOOP('',(#776,#777,#778,#779));
#137=EDGE_LOOP('',(#780,#781,#782,#783));
#138=EDGE_LOOP('',(#784));
#139=EDGE_LOOP('',(#785,#786,#787,#788));
#140=EDGE_LOOP('',(#789,#790,#791,#792));
#141=EDGE_LOOP('',(#793,#794,#795,#796));
#142=EDGE_LOOP('',(#797,#798,#799,#800));
#143=EDGE_LOOP('',(#801,#802,#803,#804));
#144=EDGE_LOOP('',(#805,#806,#807,#808));
#145=EDGE_LOOP('',(#809,#810,#811,#812));
#146=EDGE_LOOP('',(#813,#814,#815,#816));
#147=EDGE_LOOP('',(#817,#818,#819,#820));
#148=EDGE_LOOP('',(#821,#822,#823,#824));
#149=EDGE_LOOP('',(#825,#826,#827,#828));
#150=EDGE_LOOP('',(#829,#830,#831,#832));
#151=EDGE_LOOP('',(#833,#834,#835,#836));
#152=EDGE_LOOP('',(#837,#838,#839,#840));
#153=EDGE_LOOP('',(#841,#842,#843,#844));
#154=EDGE_LOOP('',(#845,#846,#847,#848));
#155=EDGE_LOOP('',(#849,#850,#851,#852));
#156=EDGE_LOOP('',(#853,#854,#855,#856));
#157=EDGE_LOOP('',(#857,#858,#859,#860));
#158=EDGE_LOOP('',(#861,#862,#863,#864,#865,#866,#867,#868));
#159=EDGE_LOOP('',(#869));
#160=EDGE_LOOP('',(#870));
#161=EDGE_LOOP('',(#871));
#162=EDGE_LOOP('',(#872));
#163=EDGE_LOOP('',(#873,#874,#875,#876));
#164=EDGE_LOOP('',(#877,#878,#879,#880));
#165=EDGE_LOOP('',(#881));
#166=EDGE_LOOP('',(#882,#883,#884,#885,#886,#887,#888,#889));
#167=EDGE_LOOP('',(#890,#891,#892,#893));
#168=EDGE_LOOP('',(#894,#895,#896,#897));
#169=EDGE_LOOP('',(#898,#899,#900,#901,#902,#903,#904));
#170=EDGE_LOOP('',(#905,#906,#907,#908));
#171=EDGE_LOOP('',(#909,#910,#911,#912));
#172=EDGE_LOOP('',(#913,#914,#915,#916));
#173=EDGE_LOOP('',(#917,#918,#919,#920));
#174=EDGE_LOOP('',(#921,#922,#923,#924,#925,#926,#927,#928,#929,#930,#931,
#932,#933));
#175=EDGE_LOOP('',(#934,#935,#936,#937,#938,#939,#940,#941,#942,#943));
#176=EDGE_LOOP('',(#944,#945,#946,#947,#948,#949,#950,#951));
#177=EDGE_LOOP('',(#952));
#178=EDGE_LOOP('',(#953,#954,#955,#956));
#179=EDGE_LOOP('',(#957));
#180=EDGE_LOOP('',(#958));
#181=EDGE_LOOP('',(#959));
#182=LINE('',#1440,#285);
#183=LINE('',#1443,#286);
#184=LINE('',#1454,#287);
#185=LINE('',#1455,#288);
#186=LINE('',#1458,#289);
#187=LINE('',#1460,#290);
#188=LINE('',#1462,#291);
#189=LINE('',#1464,#292);
#190=LINE('',#1466,#293);
#191=LINE('',#1468,#294);
#192=LINE('',#1470,#295);
#193=LINE('',#1472,#296);
#194=LINE('',#1474,#297);
#195=LINE('',#1475,#298);
#196=LINE('',#1478,#299);
#197=LINE('',#1480,#300);
#198=LINE('',#1482,#301);
#199=LINE('',#1483,#302);
#200=LINE('',#1486,#303);
#201=LINE('',#1488,#304);
#202=LINE('',#1490,#305);
#203=LINE('',#1502,#306);
#204=LINE('',#1503,#307);
#205=LINE('',#1507,#308);
#206=LINE('',#1509,#309);
#207=LINE('',#1511,#310);
#208=LINE('',#1514,#311);
#209=LINE('',#1516,#312);
#210=LINE('',#1517,#313);
#211=LINE('',#1523,#314);
#212=LINE('',#1526,#315);
#213=LINE('',#1528,#316);
#214=LINE('',#1529,#317);
#215=LINE('',#1534,#318);
#216=LINE('',#1537,#319);
#217=LINE('',#1538,#320);
#218=LINE('',#1541,#321);
#219=LINE('',#1543,#322);
#220=LINE('',#1544,#323);
#221=LINE('',#1547,#324);
#222=LINE('',#1548,#325);
#223=LINE('',#1551,#326);
#224=LINE('',#1552,#327);
#225=LINE('',#1554,#328);
#226=LINE('',#1559,#329);
#227=LINE('',#1565,#330);
#228=LINE('',#1571,#331);
#229=LINE('',#1577,#332);
#230=LINE('',#1582,#333);
#231=LINE('',#1584,#334);
#232=LINE('',#1585,#335);
#233=LINE('',#1588,#336);
#234=LINE('',#1589,#337);
#235=LINE('',#1592,#338);
#236=LINE('',#1593,#339);
#237=LINE('',#1595,#340);
#238=LINE('',#1598,#341);
#239=LINE('',#1601,#342);
#240=LINE('',#1605,#343);
#241=LINE('',#1607,#344);
#242=LINE('',#1609,#345);
#243=LINE('',#1610,#346);
#244=LINE('',#1613,#347);
#245=LINE('',#1615,#348);
#246=LINE('',#1616,#349);
#247=LINE('',#1619,#350);
#248=LINE('',#1621,#351);
#249=LINE('',#1622,#352);
#250=LINE('',#1624,#353);
#251=LINE('',#1625,#354);
#252=LINE('',#1631,#355);
#253=LINE('',#1634,#356);
#254=LINE('',#1637,#357);
#255=LINE('',#1639,#358);
#256=LINE('',#1640,#359);
#257=LINE('',#1646,#360);
#258=LINE('',#1649,#361);
#259=LINE('',#1651,#362);
#260=LINE('',#1652,#363);
#261=LINE('',#1658,#364);
#262=LINE('',#1661,#365);
#263=LINE('',#1663,#366);
#264=LINE('',#1664,#367);
#265=LINE('',#1669,#368);
#266=LINE('',#1672,#369);
#267=LINE('',#1673,#370);
#268=LINE('',#1679,#371);
#269=LINE('',#1682,#372);
#270=LINE('',#1685,#373);
#271=LINE('',#1687,#374);
#272=LINE('',#1688,#375);
#273=LINE('',#1691,#376);
#274=LINE('',#1695,#377);
#275=LINE('',#1699,#378);
#276=LINE('',#1707,#379);
#277=LINE('',#1708,#380);
#278=LINE('',#1710,#381);
#279=LINE('',#1711,#382);
#280=LINE('',#1713,#383);
#281=LINE('',#1717,#384);
#282=LINE('',#1721,#385);
#283=LINE('',#1723,#386);
#284=LINE('',#1725,#387);
#285=VECTOR('',#1147,10.);
#286=VECTOR('',#1150,10.);
#287=VECTOR('',#1163,10.);
#288=VECTOR('',#1164,10.);
#289=VECTOR('',#1167,10.);
#290=VECTOR('',#1168,10.);
#291=VECTOR('',#1169,10.);
#292=VECTOR('',#1170,10.);
#293=VECTOR('',#1171,10.);
#294=VECTOR('',#1172,10.);
#295=VECTOR('',#1173,10.);
#296=VECTOR('',#1174,10.);
#297=VECTOR('',#1175,10.);
#298=VECTOR('',#1176,10.);
#299=VECTOR('',#1177,10.);
#300=VECTOR('',#1178,10.);
#301=VECTOR('',#1179,10.);
#302=VECTOR('',#1180,10.);
#303=VECTOR('',#1183,10.);
#304=VECTOR('',#1184,10.);
#305=VECTOR('',#1185,10.);
#306=VECTOR('',#1200,10.);
#307=VECTOR('',#1201,10.);
#308=VECTOR('',#1206,10.);
#309=VECTOR('',#1209,10.);
#310=VECTOR('',#1212,10.);
#311=VECTOR('',#1215,10.);
#312=VECTOR('',#1216,10.);
#313=VECTOR('',#1217,10.);
#314=VECTOR('',#1222,10.);
#315=VECTOR('',#1225,10.);
#316=VECTOR('',#1228,10.);
#317=VECTOR('',#1229,10.);
#318=VECTOR('',#1234,10.);
#319=VECTOR('',#1239,10.);
#320=VECTOR('',#1240,10.);
#321=VECTOR('',#1243,10.);
#322=VECTOR('',#1244,10.);
#323=VECTOR('',#1245,10.);
#324=VECTOR('',#1248,10.);
#325=VECTOR('',#1249,10.);
#326=VECTOR('',#1252,10.);
#327=VECTOR('',#1253,10.);
#328=VECTOR('',#1256,10.);
#329=VECTOR('',#1261,1.5);
#330=VECTOR('',#1268,1.5);
#331=VECTOR('',#1275,1.5);
#332=VECTOR('',#1282,1.5);
#333=VECTOR('',#1289,10.);
#334=VECTOR('',#1290,10.);
#335=VECTOR('',#1291,10.);
#336=VECTOR('',#1294,10.);
#337=VECTOR('',#1295,10.);
#338=VECTOR('',#1298,10.);
#339=VECTOR('',#1299,10.);
#340=VECTOR('',#1302,10.);
#341=VECTOR('',#1305,10.);
#342=VECTOR('',#1308,10.);
#343=VECTOR('',#1311,10.);
#344=VECTOR('',#1312,10.);
#345=VECTOR('',#1313,10.);
#346=VECTOR('',#1314,10.);
#347=VECTOR('',#1317,10.);
#348=VECTOR('',#1318,10.);
#349=VECTOR('',#1319,10.);
#350=VECTOR('',#1322,10.);
#351=VECTOR('',#1323,10.);
#352=VECTOR('',#1324,10.);
#353=VECTOR('',#1327,10.);
#354=VECTOR('',#1328,10.);
#355=VECTOR('',#1333,10.);
#356=VECTOR('',#1336,10.);
#357=VECTOR('',#1339,10.);
#358=VECTOR('',#1340,10.);
#359=VECTOR('',#1341,10.);
#360=VECTOR('',#1346,10.);
#361=VECTOR('',#1349,10.);
#362=VECTOR('',#1352,10.);
#363=VECTOR('',#1353,10.);
#364=VECTOR('',#1358,10.);
#365=VECTOR('',#1361,10.);
#366=VECTOR('',#1364,10.);
#367=VECTOR('',#1365,10.);
#368=VECTOR('',#1370,10.);
#369=VECTOR('',#1375,10.);
#370=VECTOR('',#1376,10.);
#371=VECTOR('',#1381,10.);
#372=VECTOR('',#1384,10.);
#373=VECTOR('',#1387,10.);
#374=VECTOR('',#1388,10.);
#375=VECTOR('',#1389,10.);
#376=VECTOR('',#1392,10.);
#377=VECTOR('',#1395,10.);
#378=VECTOR('',#1398,10.);
#379=VECTOR('',#1407,10.);
#380=VECTOR('',#1408,10.);
#381=VECTOR('',#1411,10.);
#382=VECTOR('',#1412,10.);
#383=VECTOR('',#1415,10.);
#384=VECTOR('',#1420,10.);
#385=VECTOR('',#1425,4.5);
#386=VECTOR('',#1428,10.);
#387=VECTOR('',#1431,10.);
#388=CIRCLE('',#1048,0.5);
#389=CIRCLE('',#1049,0.5);
#390=CIRCLE('',#1051,0.500000000000007);
#391=CIRCLE('',#1052,4.50000000000001);
#392=CIRCLE('',#1053,5.00000000000001);
#393=CIRCLE('',#1055,0.5);
#394=CIRCLE('',#1058,0.5);
#395=CIRCLE('',#1060,0.499999999999998);
#396=CIRCLE('',#1061,0.5);
#397=CIRCLE('',#1062,0.5);
#398=CIRCLE('',#1064,0.5);
#399=CIRCLE('',#1066,0.5);
#400=CIRCLE('',#1071,1.);
#401=CIRCLE('',#1072,1.);
#402=CIRCLE('',#1075,1.);
#403=CIRCLE('',#1076,1.);
#404=CIRCLE('',#1083,1.5);
#405=CIRCLE('',#1084,1.5);
#406=CIRCLE('',#1086,1.5);
#407=CIRCLE('',#1087,1.5);
#408=CIRCLE('',#1089,1.5);
#409=CIRCLE('',#1090,1.5);
#410=CIRCLE('',#1092,1.5);
#411=CIRCLE('',#1093,1.5);
#412=CIRCLE('',#1100,5.);
#413=CIRCLE('',#1106,1.);
#414=CIRCLE('',#1107,1.);
#415=CIRCLE('',#1110,1.);
#416=CIRCLE('',#1111,1.);
#417=CIRCLE('',#1114,1.);
#418=CIRCLE('',#1115,1.);
#419=CIRCLE('',#1118,1.);
#420=CIRCLE('',#1119,1.);
#421=CIRCLE('',#1122,5.);
#422=CIRCLE('',#1123,5.);
#423=CIRCLE('',#1126,5.);
#424=CIRCLE('',#1127,5.);
#425=CIRCLE('',#1128,5.);
#426=CIRCLE('',#1129,4.5);
#427=CIRCLE('',#1131,5.);
#428=CIRCLE('',#1135,5.);
#429=CIRCLE('',#1137,4.5);
#430=VERTEX_POINT('',#1436);
#431=VERTEX_POINT('',#1437);
#432=VERTEX_POINT('',#1439);
#433=VERTEX_POINT('',#1441);
#434=VERTEX_POINT('',#1445);
#435=VERTEX_POINT('',#1446);
#436=VERTEX_POINT('',#1451);
#437=VERTEX_POINT('',#1452);
#438=VERTEX_POINT('',#1457);
#439=VERTEX_POINT('',#1459);
#440=VERTEX_POINT('',#1461);
#441=VERTEX_POINT('',#1463);
#442=VERTEX_POINT('',#1465);
#443=VERTEX_POINT('',#1467);
#444=VERTEX_POINT('',#1469);
#445=VERTEX_POINT('',#1471);
#446=VERTEX_POINT('',#1473);
#447=VERTEX_POINT('',#1476);
#448=VERTEX_POINT('',#1477);
#449=VERTEX_POINT('',#1479);
#450=VERTEX_POINT('',#1481);
#451=VERTEX_POINT('',#1485);
#452=VERTEX_POINT('',#1487);
#453=VERTEX_POINT('',#1489);
#454=VERTEX_POINT('',#1493);
#455=VERTEX_POINT('',#1495);
#456=VERTEX_POINT('',#1499);
#457=VERTEX_POINT('',#1500);
#458=VERTEX_POINT('',#1505);
#459=VERTEX_POINT('',#1513);
#460=VERTEX_POINT('',#1515);
#461=VERTEX_POINT('',#1519);
#462=VERTEX_POINT('',#1520);
#463=VERTEX_POINT('',#1522);
#464=VERTEX_POINT('',#1524);
#465=VERTEX_POINT('',#1531);
#466=VERTEX_POINT('',#1533);
#467=VERTEX_POINT('',#1540);
#468=VERTEX_POINT('',#1542);
#469=VERTEX_POINT('',#1546);
#470=VERTEX_POINT('',#1550);
#471=VERTEX_POINT('',#1556);
#472=VERTEX_POINT('',#1558);
#473=VERTEX_POINT('',#1562);
#474=VERTEX_POINT('',#1564);
#475=VERTEX_POINT('',#1568);
#476=VERTEX_POINT('',#1570);
#477=VERTEX_POINT('',#1574);
#478=VERTEX_POINT('',#1576);
#479=VERTEX_POINT('',#1581);
#480=VERTEX_POINT('',#1583);
#481=VERTEX_POINT('',#1587);
#482=VERTEX_POINT('',#1591);
#483=VERTEX_POINT('',#1597);
#484=VERTEX_POINT('',#1599);
#485=VERTEX_POINT('',#1603);
#486=VERTEX_POINT('',#1604);
#487=VERTEX_POINT('',#1606);
#488=VERTEX_POINT('',#1608);
#489=VERTEX_POINT('',#1612);
#490=VERTEX_POINT('',#1614);
#491=VERTEX_POINT('',#1618);
#492=VERTEX_POINT('',#1620);
#493=VERTEX_POINT('',#1627);
#494=VERTEX_POINT('',#1628);
#495=VERTEX_POINT('',#1630);
#496=VERTEX_POINT('',#1632);
#497=VERTEX_POINT('',#1636);
#498=VERTEX_POINT('',#1638);
#499=VERTEX_POINT('',#1642);
#500=VERTEX_POINT('',#1643);
#501=VERTEX_POINT('',#1645);
#502=VERTEX_POINT('',#1647);
#503=VERTEX_POINT('',#1654);
#504=VERTEX_POINT('',#1655);
#505=VERTEX_POINT('',#1657);
#506=VERTEX_POINT('',#1659);
#507=VERTEX_POINT('',#1666);
#508=VERTEX_POINT('',#1668);
#509=VERTEX_POINT('',#1675);
#510=VERTEX_POINT('',#1676);
#511=VERTEX_POINT('',#1678);
#512=VERTEX_POINT('',#1680);
#513=VERTEX_POINT('',#1684);
#514=VERTEX_POINT('',#1686);
#515=VERTEX_POINT('',#1690);
#516=VERTEX_POINT('',#1692);
#517=VERTEX_POINT('',#1694);
#518=VERTEX_POINT('',#1696);
#519=VERTEX_POINT('',#1698);
#520=VERTEX_POINT('',#1701);
#521=VERTEX_POINT('',#1704);
#522=VERTEX_POINT('',#1705);
#523=VERTEX_POINT('',#1715);
#524=VERTEX_POINT('',#1719);
#525=EDGE_CURVE('',#430,#431,#388,.T.);
#526=EDGE_CURVE('',#431,#432,#182,.T.);
#527=EDGE_CURVE('',#432,#433,#389,.T.);
#528=EDGE_CURVE('',#433,#430,#183,.T.);
#529=EDGE_CURVE('',#434,#435,#390,.T.);
#530=EDGE_CURVE('',#435,#433,#391,.T.);
#531=EDGE_CURVE('',#432,#434,#392,.T.);
#532=EDGE_CURVE('',#436,#437,#393,.T.);
#533=EDGE_CURVE('',#437,#435,#184,.T.);
#534=EDGE_CURVE('',#434,#436,#185,.T.);
#535=EDGE_CURVE('',#437,#438,#186,.T.);
#536=EDGE_CURVE('',#439,#438,#187,.T.);
#537=EDGE_CURVE('',#440,#439,#188,.T.);
#538=EDGE_CURVE('',#440,#441,#189,.T.);
#539=EDGE_CURVE('',#441,#442,#190,.T.);
#540=EDGE_CURVE('',#442,#443,#191,.T.);
#541=EDGE_CURVE('',#443,#444,#192,.T.);
#542=EDGE_CURVE('',#444,#445,#193,.T.);
#543=EDGE_CURVE('',#445,#446,#194,.T.);
#544=EDGE_CURVE('',#446,#430,#195,.T.);
#545=EDGE_CURVE('',#447,#448,#196,.T.);
#546=EDGE_CURVE('',#448,#449,#197,.T.);
#547=EDGE_CURVE('',#449,#450,#198,.T.);
#548=EDGE_CURVE('',#450,#447,#199,.T.);
#549=EDGE_CURVE('',#451,#436,#200,.T.);
#550=EDGE_CURVE('',#452,#451,#201,.T.);
#551=EDGE_CURVE('',#452,#453,#202,.T.);
#552=EDGE_CURVE('',#438,#453,#394,.T.);
#553=EDGE_CURVE('',#454,#439,#395,.F.);
#554=EDGE_CURVE('',#455,#454,#396,.F.);
#555=EDGE_CURVE('',#439,#455,#397,.F.);
#556=EDGE_CURVE('',#456,#457,#398,.F.);
#557=EDGE_CURVE('',#457,#455,#203,.T.);
#558=EDGE_CURVE('',#454,#456,#204,.T.);
#559=EDGE_CURVE('',#458,#440,#399,.T.);
#560=EDGE_CURVE('',#455,#458,#205,.T.);
#561=EDGE_CURVE('',#453,#454,#206,.T.);
#562=EDGE_CURVE('',#456,#452,#207,.T.);
#563=EDGE_CURVE('',#459,#458,#208,.T.);
#564=EDGE_CURVE('',#460,#459,#209,.T.);
#565=EDGE_CURVE('',#441,#460,#210,.T.);
#566=EDGE_CURVE('',#461,#462,#400,.T.);
#567=EDGE_CURVE('',#462,#463,#211,.T.);
#568=EDGE_CURVE('',#463,#464,#401,.T.);
#569=EDGE_CURVE('',#464,#461,#212,.T.);
#570=EDGE_CURVE('',#463,#446,#213,.T.);
#571=EDGE_CURVE('',#431,#462,#214,.T.);
#572=EDGE_CURVE('',#459,#465,#402,.T.);
#573=EDGE_CURVE('',#465,#466,#215,.T.);
#574=EDGE_CURVE('',#466,#460,#403,.T.);
#575=EDGE_CURVE('',#466,#464,#216,.T.);
#576=EDGE_CURVE('',#461,#465,#217,.T.);
#577=EDGE_CURVE('',#467,#445,#218,.T.);
#578=EDGE_CURVE('',#468,#467,#219,.T.);
#579=EDGE_CURVE('',#468,#442,#220,.T.);
#580=EDGE_CURVE('',#469,#468,#221,.T.);
#581=EDGE_CURVE('',#469,#443,#222,.T.);
#582=EDGE_CURVE('',#470,#469,#223,.T.);
#583=EDGE_CURVE('',#470,#444,#224,.T.);
#584=EDGE_CURVE('',#467,#470,#225,.T.);
#585=EDGE_CURVE('',#471,#471,#404,.T.);
#586=EDGE_CURVE('',#471,#472,#226,.T.);
#587=EDGE_CURVE('',#472,#472,#405,.T.);
#588=EDGE_CURVE('',#473,#473,#406,.T.);
#589=EDGE_CURVE('',#473,#474,#227,.T.);
#590=EDGE_CURVE('',#474,#474,#407,.T.);
#591=EDGE_CURVE('',#475,#475,#408,.T.);
#592=EDGE_CURVE('',#475,#476,#228,.T.);
#593=EDGE_CURVE('',#476,#476,#409,.T.);
#594=EDGE_CURVE('',#477,#477,#410,.T.);
#595=EDGE_CURVE('',#477,#478,#229,.T.);
#596=EDGE_CURVE('',#478,#478,#411,.T.);
#597=EDGE_CURVE('',#479,#449,#230,.T.);
#598=EDGE_CURVE('',#480,#479,#231,.T.);
#599=EDGE_CURVE('',#480,#450,#232,.T.);
#600=EDGE_CURVE('',#481,#480,#233,.T.);
#601=EDGE_CURVE('',#481,#447,#234,.T.);
#602=EDGE_CURVE('',#482,#481,#235,.T.);
#603=EDGE_CURVE('',#482,#448,#236,.T.);
#604=EDGE_CURVE('',#479,#482,#237,.T.);
#605=EDGE_CURVE('',#483,#432,#238,.T.);
#606=EDGE_CURVE('',#484,#483,#412,.T.);
#607=EDGE_CURVE('',#484,#434,#239,.T.);
#608=EDGE_CURVE('',#485,#486,#240,.T.);
#609=EDGE_CURVE('',#485,#487,#241,.T.);
#610=EDGE_CURVE('',#488,#487,#242,.T.);
#611=EDGE_CURVE('',#486,#488,#243,.T.);
#612=EDGE_CURVE('',#489,#485,#244,.T.);
#613=EDGE_CURVE('',#489,#490,#245,.T.);
#614=EDGE_CURVE('',#487,#490,#246,.T.);
#615=EDGE_CURVE('',#491,#489,#247,.T.);
#616=EDGE_CURVE('',#491,#492,#248,.T.);
#617=EDGE_CURVE('',#490,#492,#249,.T.);
#618=EDGE_CURVE('',#486,#491,#250,.T.);
#619=EDGE_CURVE('',#492,#488,#251,.T.);
#620=EDGE_CURVE('',#493,#494,#413,.T.);
#621=EDGE_CURVE('',#494,#495,#252,.T.);
#622=EDGE_CURVE('',#495,#496,#414,.T.);
#623=EDGE_CURVE('',#496,#493,#253,.T.);
#624=EDGE_CURVE('',#497,#494,#254,.T.);
#625=EDGE_CURVE('',#498,#497,#255,.T.);
#626=EDGE_CURVE('',#495,#498,#256,.T.);
#627=EDGE_CURVE('',#499,#500,#415,.T.);
#628=EDGE_CURVE('',#500,#501,#257,.T.);
#629=EDGE_CURVE('',#501,#502,#416,.T.);
#630=EDGE_CURVE('',#502,#499,#258,.T.);
#631=EDGE_CURVE('',#501,#496,#259,.T.);
#632=EDGE_CURVE('',#493,#500,#260,.T.);
#633=EDGE_CURVE('',#503,#504,#417,.T.);
#634=EDGE_CURVE('',#504,#505,#261,.T.);
#635=EDGE_CURVE('',#505,#506,#418,.T.);
#636=EDGE_CURVE('',#506,#503,#262,.T.);
#637=EDGE_CURVE('',#505,#502,#263,.T.);
#638=EDGE_CURVE('',#499,#504,#264,.T.);
#639=EDGE_CURVE('',#497,#507,#419,.T.);
#640=EDGE_CURVE('',#507,#508,#265,.T.);
#641=EDGE_CURVE('',#508,#498,#420,.T.);
#642=EDGE_CURVE('',#508,#506,#266,.T.);
#643=EDGE_CURVE('',#503,#507,#267,.T.);
#644=EDGE_CURVE('',#509,#510,#421,.T.);
#645=EDGE_CURVE('',#510,#511,#268,.T.);
#646=EDGE_CURVE('',#511,#512,#422,.T.);
#647=EDGE_CURVE('',#512,#509,#269,.T.);
#648=EDGE_CURVE('',#512,#513,#270,.T.);
#649=EDGE_CURVE('',#514,#513,#271,.T.);
#650=EDGE_CURVE('',#509,#514,#272,.T.);
#651=EDGE_CURVE('',#515,#511,#273,.T.);
#652=EDGE_CURVE('',#516,#515,#423,.T.);
#653=EDGE_CURVE('',#517,#516,#274,.T.);
#654=EDGE_CURVE('',#518,#517,#424,.T.);
#655=EDGE_CURVE('',#519,#518,#275,.T.);
#656=EDGE_CURVE('',#513,#519,#425,.T.);
#657=EDGE_CURVE('',#520,#520,#426,.T.);
#658=EDGE_CURVE('',#521,#522,#427,.T.);
#659=EDGE_CURVE('',#522,#516,#276,.T.);
#660=EDGE_CURVE('',#515,#521,#277,.T.);
#661=EDGE_CURVE('',#517,#484,#278,.T.);
#662=EDGE_CURVE('',#451,#522,#279,.T.);
#663=EDGE_CURVE('',#483,#518,#280,.T.);
#664=EDGE_CURVE('',#523,#514,#428,.T.);
#665=EDGE_CURVE('',#519,#523,#281,.T.);
#666=EDGE_CURVE('',#524,#524,#429,.T.);
#667=EDGE_CURVE('',#524,#520,#282,.T.);
#668=EDGE_CURVE('',#521,#510,#283,.T.);
#669=EDGE_CURVE('',#523,#457,#284,.T.);
#670=ORIENTED_EDGE('',*,*,#525,.T.);
#671=ORIENTED_EDGE('',*,*,#526,.T.);
#672=ORIENTED_EDGE('',*,*,#527,.T.);
#673=ORIENTED_EDGE('',*,*,#528,.T.);
#674=ORIENTED_EDGE('',*,*,#529,.T.);
#675=ORIENTED_EDGE('',*,*,#530,.T.);
#676=ORIENTED_EDGE('',*,*,#527,.F.);
#677=ORIENTED_EDGE('',*,*,#531,.T.);
#678=ORIENTED_EDGE('',*,*,#532,.T.);
#679=ORIENTED_EDGE('',*,*,#533,.T.);
#680=ORIENTED_EDGE('',*,*,#529,.F.);
#681=ORIENTED_EDGE('',*,*,#534,.T.);
#682=ORIENTED_EDGE('',*,*,#528,.F.);
#683=ORIENTED_EDGE('',*,*,#530,.F.);
#684=ORIENTED_EDGE('',*,*,#533,.F.);
#685=ORIENTED_EDGE('',*,*,#535,.T.);
#686=ORIENTED_EDGE('',*,*,#536,.F.);
#687=ORIENTED_EDGE('',*,*,#537,.F.);
#688=ORIENTED_EDGE('',*,*,#538,.T.);
#689=ORIENTED_EDGE('',*,*,#539,.T.);
#690=ORIENTED_EDGE('',*,*,#540,.T.);
#691=ORIENTED_EDGE('',*,*,#541,.T.);
#692=ORIENTED_EDGE('',*,*,#542,.T.);
#693=ORIENTED_EDGE('',*,*,#543,.T.);
#694=ORIENTED_EDGE('',*,*,#544,.T.);
#695=ORIENTED_EDGE('',*,*,#545,.T.);
#696=ORIENTED_EDGE('',*,*,#546,.T.);
#697=ORIENTED_EDGE('',*,*,#547,.T.);
#698=ORIENTED_EDGE('',*,*,#548,.T.);
#699=ORIENTED_EDGE('',*,*,#532,.F.);
#700=ORIENTED_EDGE('',*,*,#549,.F.);
#701=ORIENTED_EDGE('',*,*,#550,.F.);
#702=ORIENTED_EDGE('',*,*,#551,.T.);
#703=ORIENTED_EDGE('',*,*,#552,.F.);
#704=ORIENTED_EDGE('',*,*,#535,.F.);
#705=ORIENTED_EDGE('',*,*,#553,.F.);
#706=ORIENTED_EDGE('',*,*,#554,.F.);
#707=ORIENTED_EDGE('',*,*,#555,.F.);
#708=ORIENTED_EDGE('',*,*,#556,.T.);
#709=ORIENTED_EDGE('',*,*,#557,.T.);
#710=ORIENTED_EDGE('',*,*,#554,.T.);
#711=ORIENTED_EDGE('',*,*,#558,.T.);
#712=ORIENTED_EDGE('',*,*,#559,.T.);
#713=ORIENTED_EDGE('',*,*,#537,.T.);
#714=ORIENTED_EDGE('',*,*,#555,.T.);
#715=ORIENTED_EDGE('',*,*,#560,.T.);
#716=ORIENTED_EDGE('',*,*,#552,.T.);
#717=ORIENTED_EDGE('',*,*,#561,.T.);
#718=ORIENTED_EDGE('',*,*,#553,.T.);
#719=ORIENTED_EDGE('',*,*,#536,.T.);
#720=ORIENTED_EDGE('',*,*,#558,.F.);
#721=ORIENTED_EDGE('',*,*,#561,.F.);
#722=ORIENTED_EDGE('',*,*,#551,.F.);
#723=ORIENTED_EDGE('',*,*,#562,.F.);
#724=ORIENTED_EDGE('',*,*,#559,.F.);
#725=ORIENTED_EDGE('',*,*,#563,.F.);
#726=ORIENTED_EDGE('',*,*,#564,.F.);
#727=ORIENTED_EDGE('',*,*,#565,.F.);
#728=ORIENTED_EDGE('',*,*,#538,.F.);
#729=ORIENTED_EDGE('',*,*,#566,.T.);
#730=ORIENTED_EDGE('',*,*,#567,.T.);
#731=ORIENTED_EDGE('',*,*,#568,.T.);
#732=ORIENTED_EDGE('',*,*,#569,.T.);
#733=ORIENTED_EDGE('',*,*,#525,.F.);
#734=ORIENTED_EDGE('',*,*,#544,.F.);
#735=ORIENTED_EDGE('',*,*,#570,.F.);
#736=ORIENTED_EDGE('',*,*,#567,.F.);
#737=ORIENTED_EDGE('',*,*,#571,.F.);
#738=ORIENTED_EDGE('',*,*,#572,.T.);
#739=ORIENTED_EDGE('',*,*,#573,.T.);
#740=ORIENTED_EDGE('',*,*,#574,.T.);
#741=ORIENTED_EDGE('',*,*,#564,.T.);
#742=ORIENTED_EDGE('',*,*,#569,.F.);
#743=ORIENTED_EDGE('',*,*,#575,.F.);
#744=ORIENTED_EDGE('',*,*,#573,.F.);
#745=ORIENTED_EDGE('',*,*,#576,.F.);
#746=ORIENTED_EDGE('',*,*,#565,.T.);
#747=ORIENTED_EDGE('',*,*,#574,.F.);
#748=ORIENTED_EDGE('',*,*,#575,.T.);
#749=ORIENTED_EDGE('',*,*,#568,.F.);
#750=ORIENTED_EDGE('',*,*,#570,.T.);
#751=ORIENTED_EDGE('',*,*,#543,.F.);
#752=ORIENTED_EDGE('',*,*,#577,.F.);
#753=ORIENTED_EDGE('',*,*,#578,.F.);
#754=ORIENTED_EDGE('',*,*,#579,.T.);
#755=ORIENTED_EDGE('',*,*,#539,.F.);
#756=ORIENTED_EDGE('',*,*,#540,.F.);
#757=ORIENTED_EDGE('',*,*,#579,.F.);
#758=ORIENTED_EDGE('',*,*,#580,.F.);
#759=ORIENTED_EDGE('',*,*,#581,.T.);
#760=ORIENTED_EDGE('',*,*,#541,.F.);
#761=ORIENTED_EDGE('',*,*,#581,.F.);
#762=ORIENTED_EDGE('',*,*,#582,.F.);
#763=ORIENTED_EDGE('',*,*,#583,.T.);
#764=ORIENTED_EDGE('',*,*,#542,.F.);
#765=ORIENTED_EDGE('',*,*,#583,.F.);
#766=ORIENTED_EDGE('',*,*,#584,.F.);
#767=ORIENTED_EDGE('',*,*,#577,.T.);
#768=ORIENTED_EDGE('',*,*,#585,.F.);
#769=ORIENTED_EDGE('',*,*,#586,.T.);
#770=ORIENTED_EDGE('',*,*,#587,.F.);
#771=ORIENTED_EDGE('',*,*,#586,.F.);
#772=ORIENTED_EDGE('',*,*,#588,.F.);
#773=ORIENTED_EDGE('',*,*,#589,.T.);
#774=ORIENTED_EDGE('',*,*,#590,.F.);
#775=ORIENTED_EDGE('',*,*,#589,.F.);
#776=ORIENTED_EDGE('',*,*,#591,.F.);
#777=ORIENTED_EDGE('',*,*,#592,.T.);
#778=ORIENTED_EDGE('',*,*,#593,.F.);
#779=ORIENTED_EDGE('',*,*,#592,.F.);
#780=ORIENTED_EDGE('',*,*,#594,.T.);
#781=ORIENTED_EDGE('',*,*,#595,.T.);
#782=ORIENTED_EDGE('',*,*,#596,.F.);
#783=ORIENTED_EDGE('',*,*,#595,.F.);
#784=ORIENTED_EDGE('',*,*,#594,.F.);
#785=ORIENTED_EDGE('',*,*,#547,.F.);
#786=ORIENTED_EDGE('',*,*,#597,.F.);
#787=ORIENTED_EDGE('',*,*,#598,.F.);
#788=ORIENTED_EDGE('',*,*,#599,.T.);
#789=ORIENTED_EDGE('',*,*,#548,.F.);
#790=ORIENTED_EDGE('',*,*,#599,.F.);
#791=ORIENTED_EDGE('',*,*,#600,.F.);
#792=ORIENTED_EDGE('',*,*,#601,.T.);
#793=ORIENTED_EDGE('',*,*,#545,.F.);
#794=ORIENTED_EDGE('',*,*,#601,.F.);
#795=ORIENTED_EDGE('',*,*,#602,.F.);
#796=ORIENTED_EDGE('',*,*,#603,.T.);
#797=ORIENTED_EDGE('',*,*,#546,.F.);
#798=ORIENTED_EDGE('',*,*,#603,.F.);
#799=ORIENTED_EDGE('',*,*,#604,.F.);
#800=ORIENTED_EDGE('',*,*,#597,.T.);
#801=ORIENTED_EDGE('',*,*,#531,.F.);
#802=ORIENTED_EDGE('',*,*,#605,.F.);
#803=ORIENTED_EDGE('',*,*,#606,.F.);
#804=ORIENTED_EDGE('',*,*,#607,.T.);
#805=ORIENTED_EDGE('',*,*,#608,.F.);
#806=ORIENTED_EDGE('',*,*,#609,.T.);
#807=ORIENTED_EDGE('',*,*,#610,.F.);
#808=ORIENTED_EDGE('',*,*,#611,.F.);
#809=ORIENTED_EDGE('',*,*,#612,.F.);
#810=ORIENTED_EDGE('',*,*,#613,.T.);
#811=ORIENTED_EDGE('',*,*,#614,.F.);
#812=ORIENTED_EDGE('',*,*,#609,.F.);
#813=ORIENTED_EDGE('',*,*,#615,.F.);
#814=ORIENTED_EDGE('',*,*,#616,.T.);
#815=ORIENTED_EDGE('',*,*,#617,.F.);
#816=ORIENTED_EDGE('',*,*,#613,.F.);
#817=ORIENTED_EDGE('',*,*,#618,.F.);
#818=ORIENTED_EDGE('',*,*,#611,.T.);
#819=ORIENTED_EDGE('',*,*,#619,.F.);
#820=ORIENTED_EDGE('',*,*,#616,.F.);
#821=ORIENTED_EDGE('',*,*,#620,.T.);
#822=ORIENTED_EDGE('',*,*,#621,.T.);
#823=ORIENTED_EDGE('',*,*,#622,.T.);
#824=ORIENTED_EDGE('',*,*,#623,.T.);
#825=ORIENTED_EDGE('',*,*,#621,.F.);
#826=ORIENTED_EDGE('',*,*,#624,.F.);
#827=ORIENTED_EDGE('',*,*,#625,.F.);
#828=ORIENTED_EDGE('',*,*,#626,.F.);
#829=ORIENTED_EDGE('',*,*,#627,.T.);
#830=ORIENTED_EDGE('',*,*,#628,.T.);
#831=ORIENTED_EDGE('',*,*,#629,.T.);
#832=ORIENTED_EDGE('',*,*,#630,.T.);
#833=ORIENTED_EDGE('',*,*,#623,.F.);
#834=ORIENTED_EDGE('',*,*,#631,.F.);
#835=ORIENTED_EDGE('',*,*,#628,.F.);
#836=ORIENTED_EDGE('',*,*,#632,.F.);
#837=ORIENTED_EDGE('',*,*,#633,.T.);
#838=ORIENTED_EDGE('',*,*,#634,.T.);
#839=ORIENTED_EDGE('',*,*,#635,.T.);
#840=ORIENTED_EDGE('',*,*,#636,.T.);
#841=ORIENTED_EDGE('',*,*,#630,.F.);
#842=ORIENTED_EDGE('',*,*,#637,.F.);
#843=ORIENTED_EDGE('',*,*,#634,.F.);
#844=ORIENTED_EDGE('',*,*,#638,.F.);
#845=ORIENTED_EDGE('',*,*,#639,.T.);
#846=ORIENTED_EDGE('',*,*,#640,.T.);
#847=ORIENTED_EDGE('',*,*,#641,.T.);
#848=ORIENTED_EDGE('',*,*,#625,.T.);
#849=ORIENTED_EDGE('',*,*,#636,.F.);
#850=ORIENTED_EDGE('',*,*,#642,.F.);
#851=ORIENTED_EDGE('',*,*,#640,.F.);
#852=ORIENTED_EDGE('',*,*,#643,.F.);
#853=ORIENTED_EDGE('',*,*,#644,.T.);
#854=ORIENTED_EDGE('',*,*,#645,.T.);
#855=ORIENTED_EDGE('',*,*,#646,.T.);
#856=ORIENTED_EDGE('',*,*,#647,.T.);
#857=ORIENTED_EDGE('',*,*,#647,.F.);
#858=ORIENTED_EDGE('',*,*,#648,.T.);
#859=ORIENTED_EDGE('',*,*,#649,.F.);
#860=ORIENTED_EDGE('',*,*,#650,.F.);
#861=ORIENTED_EDGE('',*,*,#646,.F.);
#862=ORIENTED_EDGE('',*,*,#651,.F.);
#863=ORIENTED_EDGE('',*,*,#652,.F.);
#864=ORIENTED_EDGE('',*,*,#653,.F.);
#865=ORIENTED_EDGE('',*,*,#654,.F.);
#866=ORIENTED_EDGE('',*,*,#655,.F.);
#867=ORIENTED_EDGE('',*,*,#656,.F.);
#868=ORIENTED_EDGE('',*,*,#648,.F.);
#869=ORIENTED_EDGE('',*,*,#587,.T.);
#870=ORIENTED_EDGE('',*,*,#590,.T.);
#871=ORIENTED_EDGE('',*,*,#593,.T.);
#872=ORIENTED_EDGE('',*,*,#596,.T.);
#873=ORIENTED_EDGE('',*,*,#602,.T.);
#874=ORIENTED_EDGE('',*,*,#600,.T.);
#875=ORIENTED_EDGE('',*,*,#598,.T.);
#876=ORIENTED_EDGE('',*,*,#604,.T.);
#877=ORIENTED_EDGE('',*,*,#610,.T.);
#878=ORIENTED_EDGE('',*,*,#614,.T.);
#879=ORIENTED_EDGE('',*,*,#617,.T.);
#880=ORIENTED_EDGE('',*,*,#619,.T.);
#881=ORIENTED_EDGE('',*,*,#657,.T.);
#882=ORIENTED_EDGE('',*,*,#631,.T.);
#883=ORIENTED_EDGE('',*,*,#622,.F.);
#884=ORIENTED_EDGE('',*,*,#626,.T.);
#885=ORIENTED_EDGE('',*,*,#641,.F.);
#886=ORIENTED_EDGE('',*,*,#642,.T.);
#887=ORIENTED_EDGE('',*,*,#635,.F.);
#888=ORIENTED_EDGE('',*,*,#637,.T.);
#889=ORIENTED_EDGE('',*,*,#629,.F.);
#890=ORIENTED_EDGE('',*,*,#584,.T.);
#891=ORIENTED_EDGE('',*,*,#582,.T.);
#892=ORIENTED_EDGE('',*,*,#580,.T.);
#893=ORIENTED_EDGE('',*,*,#578,.T.);
#894=ORIENTED_EDGE('',*,*,#658,.T.);
#895=ORIENTED_EDGE('',*,*,#659,.T.);
#896=ORIENTED_EDGE('',*,*,#652,.T.);
#897=ORIENTED_EDGE('',*,*,#660,.T.);
#898=ORIENTED_EDGE('',*,*,#534,.F.);
#899=ORIENTED_EDGE('',*,*,#607,.F.);
#900=ORIENTED_EDGE('',*,*,#661,.F.);
#901=ORIENTED_EDGE('',*,*,#653,.T.);
#902=ORIENTED_EDGE('',*,*,#659,.F.);
#903=ORIENTED_EDGE('',*,*,#662,.F.);
#904=ORIENTED_EDGE('',*,*,#549,.T.);
#905=ORIENTED_EDGE('',*,*,#606,.T.);
#906=ORIENTED_EDGE('',*,*,#663,.T.);
#907=ORIENTED_EDGE('',*,*,#654,.T.);
#908=ORIENTED_EDGE('',*,*,#661,.T.);
#909=ORIENTED_EDGE('',*,*,#664,.T.);
#910=ORIENTED_EDGE('',*,*,#649,.T.);
#911=ORIENTED_EDGE('',*,*,#656,.T.);
#912=ORIENTED_EDGE('',*,*,#665,.T.);
#913=ORIENTED_EDGE('',*,*,#666,.F.);
#914=ORIENTED_EDGE('',*,*,#667,.T.);
#915=ORIENTED_EDGE('',*,*,#657,.F.);
#916=ORIENTED_EDGE('',*,*,#667,.F.);
#917=ORIENTED_EDGE('',*,*,#645,.F.);
#918=ORIENTED_EDGE('',*,*,#668,.F.);
#919=ORIENTED_EDGE('',*,*,#660,.F.);
#920=ORIENTED_EDGE('',*,*,#651,.T.);
#921=ORIENTED_EDGE('',*,*,#526,.F.);
#922=ORIENTED_EDGE('',*,*,#571,.T.);
#923=ORIENTED_EDGE('',*,*,#566,.F.);
#924=ORIENTED_EDGE('',*,*,#576,.T.);
#925=ORIENTED_EDGE('',*,*,#572,.F.);
#926=ORIENTED_EDGE('',*,*,#563,.T.);
#927=ORIENTED_EDGE('',*,*,#560,.F.);
#928=ORIENTED_EDGE('',*,*,#557,.F.);
#929=ORIENTED_EDGE('',*,*,#669,.F.);
#930=ORIENTED_EDGE('',*,*,#665,.F.);
#931=ORIENTED_EDGE('',*,*,#655,.T.);
#932=ORIENTED_EDGE('',*,*,#663,.F.);
#933=ORIENTED_EDGE('',*,*,#605,.T.);
#934=ORIENTED_EDGE('',*,*,#550,.T.);
#935=ORIENTED_EDGE('',*,*,#662,.T.);
#936=ORIENTED_EDGE('',*,*,#658,.F.);
#937=ORIENTED_EDGE('',*,*,#668,.T.);
#938=ORIENTED_EDGE('',*,*,#644,.F.);
#939=ORIENTED_EDGE('',*,*,#650,.T.);
#940=ORIENTED_EDGE('',*,*,#664,.F.);
#941=ORIENTED_EDGE('',*,*,#669,.T.);
#942=ORIENTED_EDGE('',*,*,#556,.F.);
#943=ORIENTED_EDGE('',*,*,#562,.T.);
#944=ORIENTED_EDGE('',*,*,#632,.T.);
#945=ORIENTED_EDGE('',*,*,#627,.F.);
#946=ORIENTED_EDGE('',*,*,#638,.T.);
#947=ORIENTED_EDGE('',*,*,#633,.F.);
#948=ORIENTED_EDGE('',*,*,#643,.T.);
#949=ORIENTED_EDGE('',*,*,#639,.F.);
#950=ORIENTED_EDGE('',*,*,#624,.T.);
#951=ORIENTED_EDGE('',*,*,#620,.F.);
#952=ORIENTED_EDGE('',*,*,#666,.T.);
#953=ORIENTED_EDGE('',*,*,#608,.T.);
#954=ORIENTED_EDGE('',*,*,#618,.T.);
#955=ORIENTED_EDGE('',*,*,#615,.T.);
#956=ORIENTED_EDGE('',*,*,#612,.T.);
#957=ORIENTED_EDGE('',*,*,#591,.T.);
#958=ORIENTED_EDGE('',*,*,#588,.T.);
#959=ORIENTED_EDGE('',*,*,#585,.T.);
#960=CYLINDRICAL_SURFACE('',#1047,0.5);
#961=CYLINDRICAL_SURFACE('',#1054,0.5);
#962=CYLINDRICAL_SURFACE('',#1063,0.5);
#963=CYLINDRICAL_SURFACE('',#1065,0.5);
#964=CYLINDRICAL_SURFACE('',#1067,0.5);
#965=CYLINDRICAL_SURFACE('',#1070,1.);
#966=CYLINDRICAL_SURFACE('',#1074,1.);
#967=CYLINDRICAL_SURFACE('',#1082,1.5);
#968=CYLINDRICAL_SURFACE('',#1085,1.5);
#969=CYLINDRICAL_SURFACE('',#1088,1.5);
#970=CYLINDRICAL_SURFACE('',#1091,1.5);
#971=CYLINDRICAL_SURFACE('',#1099,5.00000000000001);
#972=CYLINDRICAL_SURFACE('',#1105,1.);
#973=CYLINDRICAL_SURFACE('',#1109,1.);
#974=CYLINDRICAL_SURFACE('',#1113,1.);
#975=CYLINDRICAL_SURFACE('',#1117,1.);
#976=CYLINDRICAL_SURFACE('',#1121,5.);
#977=CYLINDRICAL_SURFACE('',#1130,5.);
#978=CYLINDRICAL_SURFACE('',#1133,5.);
#979=CYLINDRICAL_SURFACE('',#1134,5.);
#980=CYLINDRICAL_SURFACE('',#1136,4.5);
#981=ADVANCED_FACE('',(#62),#960,.T.);
#982=ADVANCED_FACE('',(#63),#61,.T.);
#983=ADVANCED_FACE('',(#64),#961,.T.);
#984=ADVANCED_FACE('',(#65,#16),#32,.T.);
#985=ADVANCED_FACE('',(#66),#33,.T.);
#986=ADVANCED_FACE('',(#67),#15,.T.);
#987=ADVANCED_FACE('',(#68),#962,.T.);
#988=ADVANCED_FACE('',(#69),#963,.T.);
#989=ADVANCED_FACE('',(#70),#964,.T.);
#990=ADVANCED_FACE('',(#71),#34,.T.);
#991=ADVANCED_FACE('',(#72),#35,.F.);
#992=ADVANCED_FACE('',(#73),#965,.F.);
#993=ADVANCED_FACE('',(#74),#36,.F.);
#994=ADVANCED_FACE('',(#75),#966,.F.);
#995=ADVANCED_FACE('',(#76),#37,.F.);
#996=ADVANCED_FACE('',(#77),#38,.F.);
#997=ADVANCED_FACE('',(#78),#39,.F.);
#998=ADVANCED_FACE('',(#79),#40,.F.);
#999=ADVANCED_FACE('',(#80),#41,.F.);
#1000=ADVANCED_FACE('',(#81),#967,.F.);
#1001=ADVANCED_FACE('',(#82),#968,.F.);
#1002=ADVANCED_FACE('',(#83),#969,.F.);
#1003=ADVANCED_FACE('',(#84),#970,.F.);
#1004=ADVANCED_FACE('',(#85),#42,.F.);
#1005=ADVANCED_FACE('',(#86),#43,.F.);
#1006=ADVANCED_FACE('',(#87),#44,.F.);
#1007=ADVANCED_FACE('',(#88),#45,.F.);
#1008=ADVANCED_FACE('',(#89),#46,.F.);
#1009=ADVANCED_FACE('',(#90),#971,.T.);
#1010=ADVANCED_FACE('',(#91),#47,.F.);
#1011=ADVANCED_FACE('',(#92),#48,.F.);
#1012=ADVANCED_FACE('',(#93),#49,.F.);
#1013=ADVANCED_FACE('',(#94),#50,.F.);
#1014=ADVANCED_FACE('',(#95),#972,.F.);
#1015=ADVANCED_FACE('',(#96),#51,.F.);
#1016=ADVANCED_FACE('',(#97),#973,.F.);
#1017=ADVANCED_FACE('',(#98),#52,.F.);
#1018=ADVANCED_FACE('',(#99),#974,.F.);
#1019=ADVANCED_FACE('',(#100),#53,.F.);
#1020=ADVANCED_FACE('',(#101),#975,.F.);
#1021=ADVANCED_FACE('',(#102),#54,.F.);
#1022=ADVANCED_FACE('',(#103),#976,.T.);
#1023=ADVANCED_FACE('',(#104),#55,.T.);
#1024=ADVANCED_FACE('',(#105,#17,#18,#19,#20,#21,#22,#23,#24,#25),#56,.F.);
#1025=ADVANCED_FACE('',(#106),#977,.T.);
#1026=ADVANCED_FACE('',(#107),#57,.T.);
#1027=ADVANCED_FACE('',(#108),#978,.T.);
#1028=ADVANCED_FACE('',(#109),#979,.T.);
#1029=ADVANCED_FACE('',(#110),#980,.F.);
#1030=ADVANCED_FACE('',(#111),#58,.T.);
#1031=ADVANCED_FACE('',(#112),#59,.T.);
#1032=ADVANCED_FACE('',(#113,#26,#27,#28,#29,#30,#31),#60,.T.);
#1033=CLOSED_SHELL('',(#981,#982,#983,#984,#985,#986,#987,#988,#989,#990,
#991,#992,#993,#994,#995,#996,#997,#998,#999,#1000,#1001,#1002,#1003,#1004,
#1005,#1006,#1007,#1008,#1009,#1010,#1011,#1012,#1013,#1014,#1015,#1016,
#1017,#1018,#1019,#1020,#1021,#1022,#1023,#1024,#1025,#1026,#1027,#1028,
#1029,#1030,#1031,#1032));
#1034=DERIVED_UNIT_ELEMENT(#1036,1.);
#1035=DERIVED_UNIT_ELEMENT(#1732,-3.);
#1036=(
MASS_UNIT()
NAMED_UNIT(*)
SI_UNIT(.KILO.,.GRAM.)
);
#1037=DERIVED_UNIT((#1034,#1035));
#1038=MEASURE_REPRESENTATION_ITEM('density measure',
POSITIVE_RATIO_MEASURE(7850.),#1037);
#1039=PROPERTY_DEFINITION_REPRESENTATION(#1044,#1041);
#1040=PROPERTY_DEFINITION_REPRESENTATION(#1045,#1042);
#1041=REPRESENTATION('material name',(#1043),#1729);
#1042=REPRESENTATION('density',(#1038),#1729);
#1043=DESCRIPTIVE_REPRESENTATION_ITEM('Steel','Steel');
#1044=PROPERTY_DEFINITION('material property','material name',#1739);
#1045=PROPERTY_DEFINITION('material property','density of part',#1739);
#1046=AXIS2_PLACEMENT_3D('',#1434,#1141,#1142);
#1047=AXIS2_PLACEMENT_3D('',#1435,#1143,#1144);
#1048=AXIS2_PLACEMENT_3D('',#1438,#1145,#1146);
#1049=AXIS2_PLACEMENT_3D('',#1442,#1148,#1149);
#1050=AXIS2_PLACEMENT_3D('',#1444,#1151,#1152);
#1051=AXIS2_PLACEMENT_3D('',#1447,#1153,#1154);
#1052=AXIS2_PLACEMENT_3D('',#1448,#1155,#1156);
#1053=AXIS2_PLACEMENT_3D('',#1449,#1157,#1158);
#1054=AXIS2_PLACEMENT_3D('',#1450,#1159,#1160);
#1055=AXIS2_PLACEMENT_3D('',#1453,#1161,#1162);
#1056=AXIS2_PLACEMENT_3D('',#1456,#1165,#1166);
#1057=AXIS2_PLACEMENT_3D('',#1484,#1181,#1182);
#1058=AXIS2_PLACEMENT_3D('',#1491,#1186,#1187);
#1059=AXIS2_PLACEMENT_3D('',#1492,#1188,#1189);
#1060=AXIS2_PLACEMENT_3D('',#1494,#1190,#1191);
#1061=AXIS2_PLACEMENT_3D('',#1496,#1192,#1193);
#1062=AXIS2_PLACEMENT_3D('',#1497,#1194,#1195);
#1063=AXIS2_PLACEMENT_3D('',#1498,#1196,#1197);
#1064=AXIS2_PLACEMENT_3D('',#1501,#1198,#1199);
#1065=AXIS2_PLACEMENT_3D('',#1504,#1202,#1203);
#1066=AXIS2_PLACEMENT_3D('',#1506,#1204,#1205);
#1067=AXIS2_PLACEMENT_3D('',#1508,#1207,#1208);
#1068=AXIS2_PLACEMENT_3D('',#1510,#1210,#1211);
#1069=AXIS2_PLACEMENT_3D('',#1512,#1213,#1214);
#1070=AXIS2_PLACEMENT_3D('',#1518,#1218,#1219);
#1071=AXIS2_PLACEMENT_3D('',#1521,#1220,#1221);
#1072=AXIS2_PLACEMENT_3D('',#1525,#1223,#1224);
#1073=AXIS2_PLACEMENT_3D('',#1527,#1226,#1227);
#1074=AXIS2_PLACEMENT_3D('',#1530,#1230,#1231);
#1075=AXIS2_PLACEMENT_3D('',#1532,#1232,#1233);
#1076=AXIS2_PLACEMENT_3D('',#1535,#1235,#1236);
#1077=AXIS2_PLACEMENT_3D('',#1536,#1237,#1238);
#1078=AXIS2_PLACEMENT_3D('',#1539,#1241,#1242);
#1079=AXIS2_PLACEMENT_3D('',#1545,#1246,#1247);
#1080=AXIS2_PLACEMENT_3D('',#1549,#1250,#1251);
#1081=AXIS2_PLACEMENT_3D('',#1553,#1254,#1255);
#1082=AXIS2_PLACEMENT_3D('',#1555,#1257,#1258);
#1083=AXIS2_PLACEMENT_3D('',#1557,#1259,#1260);
#1084=AXIS2_PLACEMENT_3D('',#1560,#1262,#1263);
#1085=AXIS2_PLACEMENT_3D('',#1561,#1264,#1265);
#1086=AXIS2_PLACEMENT_3D('',#1563,#1266,#1267);
#1087=AXIS2_PLACEMENT_3D('',#1566,#1269,#1270);
#1088=AXIS2_PLACEMENT_3D('',#1567,#1271,#1272);
#1089=AXIS2_PLACEMENT_3D('',#1569,#1273,#1274);
#1090=AXIS2_PLACEMENT_3D('',#1572,#1276,#1277);
#1091=AXIS2_PLACEMENT_3D('',#1573,#1278,#1279);
#1092=AXIS2_PLACEMENT_3D('',#1575,#1280,#1281);
#1093=AXIS2_PLACEMENT_3D('',#1578,#1283,#1284);
#1094=AXIS2_PLACEMENT_3D('',#1579,#1285,#1286);
#1095=AXIS2_PLACEMENT_3D('',#1580,#1287,#1288);
#1096=AXIS2_PLACEMENT_3D('',#1586,#1292,#1293);
#1097=AXIS2_PLACEMENT_3D('',#1590,#1296,#1297);
#1098=AXIS2_PLACEMENT_3D('',#1594,#1300,#1301);
#1099=AXIS2_PLACEMENT_3D('',#1596,#1303,#1304);
#1100=AXIS2_PLACEMENT_3D('',#1600,#1306,#1307);
#1101=AXIS2_PLACEMENT_3D('',#1602,#1309,#1310);
#1102=AXIS2_PLACEMENT_3D('',#1611,#1315,#1316);
#1103=AXIS2_PLACEMENT_3D('',#1617,#1320,#1321);
#1104=AXIS2_PLACEMENT_3D('',#1623,#1325,#1326);
#1105=AXIS2_PLACEMENT_3D('',#1626,#1329,#1330);
#1106=AXIS2_PLACEMENT_3D('',#1629,#1331,#1332);
#1107=AXIS2_PLACEMENT_3D('',#1633,#1334,#1335);
#1108=AXIS2_PLACEMENT_3D('',#1635,#1337,#1338);
#1109=AXIS2_PLACEMENT_3D('',#1641,#1342,#1343);
#1110=AXIS2_PLACEMENT_3D('',#1644,#1344,#1345);
#1111=AXIS2_PLACEMENT_3D('',#1648,#1347,#1348);
#1112=AXIS2_PLACEMENT_3D('',#1650,#1350,#1351);
#1113=AXIS2_PLACEMENT_3D('',#1653,#1354,#1355);
#1114=AXIS2_PLACEMENT_3D('',#1656,#1356,#1357);
#1115=AXIS2_PLACEMENT_3D('',#1660,#1359,#1360);
#1116=AXIS2_PLACEMENT_3D('',#1662,#1362,#1363);
#1117=AXIS2_PLACEMENT_3D('',#1665,#1366,#1367);
#1118=AXIS2_PLACEMENT_3D('',#1667,#1368,#1369);
#1119=AXIS2_PLACEMENT_3D('',#1670,#1371,#1372);
#1120=AXIS2_PLACEMENT_3D('',#1671,#1373,#1374);
#1121=AXIS2_PLACEMENT_3D('',#1674,#1377,#1378);
#1122=AXIS2_PLACEMENT_3D('',#1677,#1379,#1380);
#1123=AXIS2_PLACEMENT_3D('',#1681,#1382,#1383);
#1124=AXIS2_PLACEMENT_3D('',#1683,#1385,#1386);
#1125=AXIS2_PLACEMENT_3D('',#1689,#1390,#1391);
#1126=AXIS2_PLACEMENT_3D('',#1693,#1393,#1394);
#1127=AXIS2_PLACEMENT_3D('',#1697,#1396,#1397);
#1128=AXIS2_PLACEMENT_3D('',#1700,#1399,#1400);
#1129=AXIS2_PLACEMENT_3D('',#1702,#1401,#1402);
#1130=AXIS2_PLACEMENT_3D('',#1703,#1403,#1404);
#1131=AXIS2_PLACEMENT_3D('',#1706,#1405,#1406);
#1132=AXIS2_PLACEMENT_3D('',#1709,#1409,#1410);
#1133=AXIS2_PLACEMENT_3D('',#1712,#1413,#1414);
#1134=AXIS2_PLACEMENT_3D('',#1714,#1416,#1417);
#1135=AXIS2_PLACEMENT_3D('',#1716,#1418,#1419);
#1136=AXIS2_PLACEMENT_3D('',#1718,#1421,#1422);
#1137=AXIS2_PLACEMENT_3D('',#1720,#1423,#1424);
#1138=AXIS2_PLACEMENT_3D('',#1722,#1426,#1427);
#1139=AXIS2_PLACEMENT_3D('',#1724,#1429,#1430);
#1140=AXIS2_PLACEMENT_3D('',#1726,#1432,#1433);
#1141=DIRECTION('axis',(0.,0.,1.));
#1142=DIRECTION('refdir',(1.,0.,0.));
#1143=DIRECTION('center_axis',(1.,0.,0.));
#1144=DIRECTION('ref_axis',(0.,-0.707106781186548,0.707106781186548));
#1145=DIRECTION('center_axis',(1.,0.,0.));
#1146=DIRECTION('ref_axis',(0.,-0.707106781186548,0.707106781186548));
#1147=DIRECTION('',(1.,0.,0.));
#1148=DIRECTION('center_axis',(-1.,0.,0.));
#1149=DIRECTION('ref_axis',(0.,-1.,0.));
#1150=DIRECTION('',(-1.,0.,0.));
#1151=DIRECTION('center_axis',(0.,0.,1.));
#1152=DIRECTION('ref_axis',(1.,0.,0.));
#1153=DIRECTION('center_axis',(-1.11022302462514E-15,-1.,0.));
#1154=DIRECTION('ref_axis',(1.,-1.11022302462514E-15,0.));
#1155=DIRECTION('center_axis',(0.,0.,-1.));
#1156=DIRECTION('ref_axis',(0.707106781186548,-0.707106781186547,0.));
#1157=DIRECTION('center_axis',(0.,0.,1.));
#1158=DIRECTION('ref_axis',(0.707106781186548,-0.707106781186547,0.));
#1159=DIRECTION('center_axis',(0.,1.,0.));
#1160=DIRECTION('ref_axis',(0.707106781186552,0.,0.707106781186543));
#1161=DIRECTION('center_axis',(0.,-1.,0.));
#1162=DIRECTION('ref_axis',(0.707106781186552,0.,0.707106781186543));
#1163=DIRECTION('',(0.,-1.,0.));
#1164=DIRECTION('',(0.,1.,0.));
#1165=DIRECTION('center_axis',(0.,0.,1.));
#1166=DIRECTION('ref_axis',(-1.,0.,0.));
#1167=DIRECTION('',(-1.,0.,0.));
#1168=DIRECTION('',(0.,1.,0.));
#1169=DIRECTION('',(-1.,0.,0.));
#1170=DIRECTION('',(0.,1.,0.));
#1171=DIRECTION('',(-1.,0.,0.));
#1172=DIRECTION('',(0.,1.,0.));
#1173=DIRECTION('',(1.,0.,0.));
#1174=DIRECTION('',(0.,-1.,0.));
#1175=DIRECTION('',(-1.,0.,0.));
#1176=DIRECTION('',(0.,-1.,0.));
#1177=DIRECTION('',(0.,-1.,0.));
#1178=DIRECTION('',(-1.,0.,0.));
#1179=DIRECTION('',(0.,1.,0.));
#1180=DIRECTION('',(1.,0.,0.));
#1181=DIRECTION('center_axis',(0.,1.,0.));
#1182=DIRECTION('ref_axis',(-1.,0.,0.));
#1183=DIRECTION('',(0.,0.,1.));
#1184=DIRECTION('',(1.,0.,0.));
#1185=DIRECTION('',(0.,0.,1.));
#1186=DIRECTION('center_axis',(0.,-1.,0.));
#1187=DIRECTION('ref_axis',(-0.707106781186546,0.,0.707106781186549));
#1188=DIRECTION('center_axis',(-0.816496580927727,0.408248290463863,-0.408248290463862));
#1189=DIRECTION('ref_axis',(-0.577350269189623,-0.577350269189629,0.577350269189626));
#1190=DIRECTION('center_axis',(0.,-1.,0.));
#1191=DIRECTION('ref_axis',(-1.,0.,0.));
#1192=DIRECTION('center_axis',(0.,0.,1.));
#1193=DIRECTION('ref_axis',(0.,-1.,0.));
#1194=DIRECTION('center_axis',(-1.,0.,0.));
#1195=DIRECTION('ref_axis',(0.,0.,1.));
#1196=DIRECTION('center_axis',(0.,0.,1.));
#1197=DIRECTION('ref_axis',(-0.707106781186546,-0.707106781186549,0.));
#1198=DIRECTION('center_axis',(0.,0.,-1.));
#1199=DIRECTION('ref_axis',(-0.707106781186546,-0.707106781186549,0.));
#1200=DIRECTION('',(0.,0.,1.));
#1201=DIRECTION('',(0.,0.,-1.));
#1202=DIRECTION('center_axis',(1.,0.,0.));
#1203=DIRECTION('ref_axis',(0.,-0.707106781186548,0.707106781186548));
#1204=DIRECTION('center_axis',(-1.,0.,0.));
#1205=DIRECTION('ref_axis',(0.,-0.707106781186548,0.707106781186548));
#1206=DIRECTION('',(1.,0.,0.));
#1207=DIRECTION('center_axis',(0.,-1.,0.));
#1208=DIRECTION('ref_axis',(-0.707106781186546,0.,0.707106781186549));
#1209=DIRECTION('',(0.,-1.,0.));
#1210=DIRECTION('center_axis',(-1.,0.,0.));
#1211=DIRECTION('ref_axis',(0.,-1.,0.));
#1212=DIRECTION('',(0.,1.,0.));
#1213=DIRECTION('center_axis',(-1.,0.,0.));
#1214=DIRECTION('ref_axis',(0.,0.,1.));
#1215=DIRECTION('',(0.,0.,1.));
#1216=DIRECTION('',(0.,-1.,0.));
#1217=DIRECTION('',(0.,0.,-1.));
#1218=DIRECTION('center_axis',(0.,1.,0.));
#1219=DIRECTION('ref_axis',(0.707106781186546,0.,-0.707106781186549));
#1220=DIRECTION('center_axis',(0.,-1.,0.));
#1221=DIRECTION('ref_axis',(0.707106781186546,0.,-0.707106781186549));
#1222=DIRECTION('',(0.,1.,0.));
#1223=DIRECTION('center_axis',(0.,1.,0.));
#1224=DIRECTION('ref_axis',(0.707106781186546,0.,-0.707106781186549));
#1225=DIRECTION('',(0.,-1.,0.));
#1226=DIRECTION('center_axis',(1.,0.,0.));
#1227=DIRECTION('ref_axis',(0.,0.,-1.));
#1228=DIRECTION('',(0.,0.,1.));
#1229=DIRECTION('',(0.,0.,-1.));
#1230=DIRECTION('center_axis',(0.,1.,0.));
#1231=DIRECTION('ref_axis',(-0.707106781186546,0.,-0.707106781186549));
#1232=DIRECTION('center_axis',(0.,-1.,0.));
#1233=DIRECTION('ref_axis',(-0.707106781186546,0.,-0.707106781186549));
#1234=DIRECTION('',(0.,1.,0.));
#1235=DIRECTION('center_axis',(0.,1.,0.));
#1236=DIRECTION('ref_axis',(-0.707106781186546,0.,-0.707106781186549));
#1237=DIRECTION('center_axis',(0.,0.,-1.));
#1238=DIRECTION('ref_axis',(-1.,0.,0.));
#1239=DIRECTION('',(1.,0.,0.));
#1240=DIRECTION('',(-1.,0.,0.));
#1241=DIRECTION('center_axis',(0.,-1.,0.));
#1242=DIRECTION('ref_axis',(1.,0.,0.));
#1243=DIRECTION('',(0.,0.,1.));
#1244=DIRECTION('',(1.,0.,0.));
#1245=DIRECTION('',(0.,0.,1.));
#1246=DIRECTION('center_axis',(-1.,0.,0.));
#1247=DIRECTION('ref_axis',(0.,-1.,0.));
#1248=DIRECTION('',(0.,-1.,0.));
#1249=DIRECTION('',(0.,0.,1.));
#1250=DIRECTION('center_axis',(0.,1.,0.));
#1251=DIRECTION('ref_axis',(-1.,0.,0.));
#1252=DIRECTION('',(-1.,0.,0.));
#1253=DIRECTION('',(0.,0.,1.));
#1254=DIRECTION('center_axis',(1.,0.,0.));
#1255=DIRECTION('ref_axis',(0.,1.,0.));
#1256=DIRECTION('',(0.,1.,0.));
#1257=DIRECTION('center_axis',(0.,0.,-1.));
#1258=DIRECTION('ref_axis',(-1.,0.,0.));
#1259=DIRECTION('center_axis',(0.,0.,-1.));
#1260=DIRECTION('ref_axis',(-1.,0.,0.));
#1261=DIRECTION('',(0.,0.,-1.));
#1262=DIRECTION('center_axis',(0.,0.,1.));
#1263=DIRECTION('ref_axis',(-1.,0.,0.));
#1264=DIRECTION('center_axis',(0.,0.,-1.));
#1265=DIRECTION('ref_axis',(-1.,0.,0.));
#1266=DIRECTION('center_axis',(0.,0.,-1.));
#1267=DIRECTION('ref_axis',(-1.,0.,0.));
#1268=DIRECTION('',(0.,0.,-1.));
#1269=DIRECTION('center_axis',(0.,0.,1.));
#1270=DIRECTION('ref_axis',(-1.,0.,0.));
#1271=DIRECTION('center_axis',(0.,0.,-1.));
#1272=DIRECTION('ref_axis',(-1.,0.,0.));
#1273=DIRECTION('center_axis',(0.,0.,-1.));
#1274=DIRECTION('ref_axis',(-1.,0.,0.));
#1275=DIRECTION('',(0.,0.,-1.));
#1276=DIRECTION('center_axis',(0.,0.,1.));
#1277=DIRECTION('ref_axis',(-1.,0.,0.));
#1278=DIRECTION('center_axis',(0.,0.,-1.));
#1279=DIRECTION('ref_axis',(-1.,0.,0.));
#1280=DIRECTION('center_axis',(0.,0.,1.));
#1281=DIRECTION('ref_axis',(-1.,0.,0.));
#1282=DIRECTION('',(0.,0.,-1.));
#1283=DIRECTION('center_axis',(0.,0.,1.));
#1284=DIRECTION('ref_axis',(-1.,0.,0.));
#1285=DIRECTION('center_axis',(0.,0.,1.));
#1286=DIRECTION('ref_axis',(-1.,0.,0.));
#1287=DIRECTION('center_axis',(-1.,0.,0.));
#1288=DIRECTION('ref_axis',(0.,-1.,0.));
#1289=DIRECTION('',(0.,0.,1.));
#1290=DIRECTION('',(0.,-1.,0.));
#1291=DIRECTION('',(0.,0.,1.));
#1292=DIRECTION('center_axis',(0.,1.,0.));
#1293=DIRECTION('ref_axis',(-1.,0.,0.));
#1294=DIRECTION('',(-1.,0.,0.));
#1295=DIRECTION('',(0.,0.,1.));
#1296=DIRECTION('center_axis',(1.,0.,0.));
#1297=DIRECTION('ref_axis',(0.,1.,0.));
#1298=DIRECTION('',(0.,1.,0.));
#1299=DIRECTION('',(0.,0.,1.));
#1300=DIRECTION('center_axis',(0.,-1.,0.));
#1301=DIRECTION('ref_axis',(1.,0.,0.));
#1302=DIRECTION('',(1.,0.,0.));
#1303=DIRECTION('center_axis',(0.,0.,1.));
#1304=DIRECTION('ref_axis',(3.55271367880049E-15,-1.,0.));
#1305=DIRECTION('',(0.,0.,1.));
#1306=DIRECTION('center_axis',(0.,0.,-1.));
#1307=DIRECTION('ref_axis',(0.707106781186547,-0.707106781186547,0.));
#1308=DIRECTION('',(0.,0.,1.));
#1309=DIRECTION('center_axis',(1.,-7.40148683083438E-17,0.));
#1310=DIRECTION('ref_axis',(-7.40148683083438E-17,-1.,0.));
#1311=DIRECTION('',(-7.40148683083438E-17,-1.,0.));
#1312=DIRECTION('',(0.,0.,-1.));
#1313=DIRECTION('',(7.40148683083438E-17,1.,0.));
#1314=DIRECTION('',(0.,0.,-1.));
#1315=DIRECTION('center_axis',(0.,1.,0.));
#1316=DIRECTION('ref_axis',(1.,0.,0.));
#1317=DIRECTION('',(1.,0.,0.));
#1318=DIRECTION('',(0.,0.,-1.));
#1319=DIRECTION('',(-1.,0.,0.));
#1320=DIRECTION('center_axis',(-1.,0.,0.));
#1321=DIRECTION('ref_axis',(0.,1.,0.));
#1322=DIRECTION('',(0.,1.,0.));
#1323=DIRECTION('',(0.,0.,-1.));
#1324=DIRECTION('',(0.,-1.,0.));
#1325=DIRECTION('center_axis',(0.,-1.,0.));
#1326=DIRECTION('ref_axis',(-1.,0.,0.));
#1327=DIRECTION('',(-1.,0.,0.));
#1328=DIRECTION('',(1.,0.,0.));
#1329=DIRECTION('center_axis',(0.,0.,-1.));
#1330=DIRECTION('ref_axis',(-0.707106781186557,0.707106781186538,0.));
#1331=DIRECTION('center_axis',(0.,0.,1.));
#1332=DIRECTION('ref_axis',(-0.707106781186557,0.707106781186538,0.));
#1333=DIRECTION('',(0.,0.,-1.));
#1334=DIRECTION('center_axis',(0.,0.,-1.));
#1335=DIRECTION('ref_axis',(-0.707106781186557,0.707106781186538,0.));
#1336=DIRECTION('',(0.,0.,1.));
#1337=DIRECTION('center_axis',(-1.,0.,0.));
#1338=DIRECTION('ref_axis',(0.,1.,0.));
#1339=DIRECTION('',(0.,1.,0.));
#1340=DIRECTION('',(0.,0.,1.));
#1341=DIRECTION('',(0.,-1.,0.));
#1342=DIRECTION('center_axis',(0.,0.,-1.));
#1343=DIRECTION('ref_axis',(0.70710678118656,0.707106781186535,0.));
#1344=DIRECTION('center_axis',(0.,0.,1.));
#1345=DIRECTION('ref_axis',(0.70710678118656,0.707106781186535,0.));
#1346=DIRECTION('',(0.,0.,-1.));
#1347=DIRECTION('center_axis',(0.,0.,-1.));
#1348=DIRECTION('ref_axis',(0.70710678118656,0.707106781186535,0.));
#1349=DIRECTION('',(0.,0.,1.));
#1350=DIRECTION('center_axis',(0.,1.,0.));
#1351=DIRECTION('ref_axis',(1.,0.,0.));
#1352=DIRECTION('',(-1.,0.,0.));
#1353=DIRECTION('',(1.,0.,0.));
#1354=DIRECTION('center_axis',(0.,0.,-1.));
#1355=DIRECTION('ref_axis',(0.707106781186551,-0.707106781186544,0.));
#1356=DIRECTION('center_axis',(0.,0.,1.));
#1357=DIRECTION('ref_axis',(0.707106781186551,-0.707106781186544,0.));
#1358=DIRECTION('',(0.,0.,-1.));
#1359=DIRECTION('center_axis',(0.,0.,-1.));
#1360=DIRECTION('ref_axis',(0.707106781186551,-0.707106781186544,0.));
#1361=DIRECTION('',(0.,0.,1.));
#1362=DIRECTION('center_axis',(1.,0.,0.));
#1363=DIRECTION('ref_axis',(0.,-1.,0.));
#1364=DIRECTION('',(0.,1.,0.));
#1365=DIRECTION('',(0.,-1.,0.));
#1366=DIRECTION('center_axis',(0.,0.,-1.));
#1367=DIRECTION('ref_axis',(-0.707106781186548,-0.707106781186548,0.));
#1368=DIRECTION('center_axis',(0.,0.,1.));
#1369=DIRECTION('ref_axis',(-0.707106781186548,-0.707106781186548,0.));
#1370=DIRECTION('',(0.,0.,-1.));
#1371=DIRECTION('center_axis',(0.,0.,-1.));
#1372=DIRECTION('ref_axis',(-0.707106781186548,-0.707106781186548,0.));
#1373=DIRECTION('center_axis',(7.36466351326804E-17,-1.,0.));
#1374=DIRECTION('ref_axis',(-1.,-7.36466351326804E-17,0.));
#1375=DIRECTION('',(1.,7.36466351326804E-17,0.));
#1376=DIRECTION('',(-1.,-7.36466351326804E-17,0.));
#1377=DIRECTION('center_axis',(0.,0.,1.));
#1378=DIRECTION('ref_axis',(-0.707106781186547,0.707106781186547,0.));
#1379=DIRECTION('center_axis',(0.,0.,-1.));
#1380=DIRECTION('ref_axis',(-0.707106781186547,0.707106781186547,0.));
#1381=DIRECTION('',(0.,0.,-1.));
#1382=DIRECTION('center_axis',(0.,0.,1.));
#1383=DIRECTION('ref_axis',(-0.707106781186547,0.707106781186547,0.));
#1384=DIRECTION('',(0.,0.,1.));
#1385=DIRECTION('center_axis',(-1.,0.,0.));
#1386=DIRECTION('ref_axis',(0.,-1.,0.));
#1387=DIRECTION('',(0.,-1.,0.));
#1388=DIRECTION('',(0.,0.,-1.));
#1389=DIRECTION('',(0.,-1.,0.));
#1390=DIRECTION('center_axis',(0.,0.,1.));
#1391=DIRECTION('ref_axis',(1.,0.,0.));
#1392=DIRECTION('',(-1.,0.,0.));
#1393=DIRECTION('center_axis',(0.,0.,1.));
#1394=DIRECTION('ref_axis',(0.707106781186547,0.707106781186547,0.));
#1395=DIRECTION('',(0.,1.,0.));
#1396=DIRECTION('center_axis',(0.,0.,1.));
#1397=DIRECTION('ref_axis',(0.707106781186547,-0.707106781186547,0.));
#1398=DIRECTION('',(1.,0.,0.));
#1399=DIRECTION('center_axis',(0.,0.,1.));
#1400=DIRECTION('ref_axis',(-0.707106781186547,-0.707106781186547,0.));
#1401=DIRECTION('center_axis',(0.,0.,1.));
#1402=DIRECTION('ref_axis',(-1.,0.,0.));
#1403=DIRECTION('center_axis',(0.,0.,1.));
#1404=DIRECTION('ref_axis',(0.707106781186547,0.707106781186547,0.));
#1405=DIRECTION('center_axis',(0.,0.,-1.));
#1406=DIRECTION('ref_axis',(0.707106781186547,0.707106781186547,0.));
#1407=DIRECTION('',(0.,0.,-1.));
#1408=DIRECTION('',(0.,0.,1.));
#1409=DIRECTION('center_axis',(1.,0.,0.));
#1410=DIRECTION('ref_axis',(0.,1.,0.));
#1411=DIRECTION('',(0.,0.,1.));
#1412=DIRECTION('',(0.,1.,0.));
#1413=DIRECTION('center_axis',(0.,0.,1.));
#1414=DIRECTION('ref_axis',(0.707106781186547,-0.707106781186547,0.));
#1415=DIRECTION('',(0.,0.,-1.));
#1416=DIRECTION('center_axis',(0.,0.,1.));
#1417=DIRECTION('ref_axis',(-0.707106781186547,-0.707106781186547,0.));
#1418=DIRECTION('center_axis',(0.,0.,-1.));
#1419=DIRECTION('ref_axis',(-0.707106781186547,-0.707106781186547,0.));
#1420=DIRECTION('',(0.,0.,1.));
#1421=DIRECTION('center_axis',(0.,0.,-1.));
#1422=DIRECTION('ref_axis',(-1.,0.,0.));
#1423=DIRECTION('center_axis',(0.,0.,-1.));
#1424=DIRECTION('ref_axis',(-1.,0.,0.));
#1425=DIRECTION('',(0.,0.,-1.));
#1426=DIRECTION('center_axis',(0.,1.,0.));
#1427=DIRECTION('ref_axis',(-1.,0.,0.));
#1428=DIRECTION('',(-1.,0.,0.));
#1429=DIRECTION('center_axis',(0.,-1.,0.));
#1430=DIRECTION('ref_axis',(1.,0.,0.));
#1431=DIRECTION('',(1.,0.,0.));
#1432=DIRECTION('center_axis',(0.,0.,1.));
#1433=DIRECTION('ref_axis',(1.,0.,0.));
#1434=CARTESIAN_POINT('',(0.,0.,0.));
#1435=CARTESIAN_POINT('Origin',(29.2499989438802,0.5,7.5));
#1436=CARTESIAN_POINT('',(38.9999978877604,0.5,8.));
#1437=CARTESIAN_POINT('',(38.9999978877604,0.,7.5));
#1438=CARTESIAN_POINT('Origin',(38.9999978877604,0.5,7.5));
#1439=CARTESIAN_POINT('',(89.4999978877604,0.,7.5));
#1440=CARTESIAN_POINT('',(29.2499989438802,0.,7.5));
#1441=CARTESIAN_POINT('',(89.4999978877604,0.5,8.));
#1442=CARTESIAN_POINT('Origin',(89.4999978877604,0.5,7.5));
#1443=CARTESIAN_POINT('',(29.2499989438802,0.5,8.));
#1444=CARTESIAN_POINT('Origin',(89.4999978877604,5.00000000000001,7.5));
#1445=CARTESIAN_POINT('',(94.4999978877604,5.,7.5));
#1446=CARTESIAN_POINT('',(93.9999978877604,5.,8.));
#1447=CARTESIAN_POINT('Origin',(93.9999978877604,5.,7.5));
#1448=CARTESIAN_POINT('Origin',(89.4999978877604,5.00000000000001,8.));
#1449=CARTESIAN_POINT('Origin',(89.4999978877604,5.00000000000001,7.5));
#1450=CARTESIAN_POINT('Origin',(94.,7.749999826774,7.5));
#1451=CARTESIAN_POINT('',(94.4999978877604,30.999999307096,7.5));
#1452=CARTESIAN_POINT('',(94.,30.999999307096,8.));
#1453=CARTESIAN_POINT('Origin',(94.,30.999999307096,7.5));
#1454=CARTESIAN_POINT('',(94.,7.749999826774,8.));
#1455=CARTESIAN_POINT('',(94.5,7.749999826774,7.5));
#1456=CARTESIAN_POINT('Origin',(58.4999978877604,15.499999653548,8.));
#1457=CARTESIAN_POINT('',(22.9999978877604,30.999999307096,8.));
#1458=CARTESIAN_POINT('',(22.4999978877604,30.999999307096,8.));
#1459=CARTESIAN_POINT('',(22.9999978877604,0.499999999999998,8.));
#1460=CARTESIAN_POINT('',(22.9999978877604,23.249999480322,8.));
#1461=CARTESIAN_POINT('',(28.9999978877604,0.5,8.));
#1462=CARTESIAN_POINT('',(29.2499989438802,0.5,8.));
#1463=CARTESIAN_POINT('',(28.9999978877604,2.35840346397769,8.));
#1464=CARTESIAN_POINT('',(28.9999978877604,7.749999826774,8.));
#1465=CARTESIAN_POINT('',(25.147374247441,2.35840346397769,8.));
#1466=CARTESIAN_POINT('',(41.8236860676007,2.35840346397769,8.));
#1467=CARTESIAN_POINT('',(25.147374247441,25.8757357190654,8.));
#1468=CARTESIAN_POINT('',(25.147374247441,20.6878676863067,8.));
#1469=CARTESIAN_POINT('',(43.3265762327496,25.8757357190654,8.));
#1470=CARTESIAN_POINT('',(50.913287060255,25.8757357190654,8.));
#1471=CARTESIAN_POINT('',(43.3265762327496,2.35840346397769,8.));
#1472=CARTESIAN_POINT('',(43.3265762327496,8.92920155876285,8.));
#1473=CARTESIAN_POINT('',(38.9999978877604,2.35840346397769,8.));
#1474=CARTESIAN_POINT('',(41.8236860676007,2.35840346397769,8.));
#1475=CARTESIAN_POINT('',(38.9999978877604,7.749999826774,8.));
#1476=CARTESIAN_POINT('',(86.5,23.5,8.));
#1477=CARTESIAN_POINT('',(86.5,8.5,8.));
#1478=CARTESIAN_POINT('',(86.5,11.999999826774,8.));
#1479=CARTESIAN_POINT('',(46.5,8.5,8.));
#1480=CARTESIAN_POINT('',(52.4999989438802,8.5,8.));
#1481=CARTESIAN_POINT('',(46.5,23.5,8.));
#1482=CARTESIAN_POINT('',(46.5,19.499999826774,8.));
#1483=CARTESIAN_POINT('',(72.4999989438802,23.5,8.));
#1484=CARTESIAN_POINT('Origin',(94.4999978877604,30.999999307096,3.));
#1485=CARTESIAN_POINT('',(94.4999978877604,30.999999307096,3.));
#1486=CARTESIAN_POINT('',(94.4999978877604,30.999999307096,3.));
#1487=CARTESIAN_POINT('',(22.4999978877604,30.999999307096,3.));
#1488=CARTESIAN_POINT('',(70.8749989438802,30.999999307096,3.));
#1489=CARTESIAN_POINT('',(22.4999978877604,30.999999307096,7.5));
#1490=CARTESIAN_POINT('',(22.4999978877604,30.999999307096,3.));
#1491=CARTESIAN_POINT('Origin',(22.9999978877604,30.999999307096,7.5));
#1492=CARTESIAN_POINT('Origin',(22.9999978877604,0.5,7.5));
#1493=CARTESIAN_POINT('',(22.4999978877604,0.5,7.5));
#1494=CARTESIAN_POINT('Origin',(22.9999978877604,0.499999999999998,7.5));
#1495=CARTESIAN_POINT('',(22.9999978877604,0.,7.5));
#1496=CARTESIAN_POINT('Origin',(22.9999978877604,0.5,7.5));
#1497=CARTESIAN_POINT('Origin',(22.9999978877604,0.5,7.5));
#1498=CARTESIAN_POINT('Origin',(22.9999978877604,0.5,1.5));
#1499=CARTESIAN_POINT('',(22.4999978877604,0.499999999999998,3.));
#1500=CARTESIAN_POINT('',(22.9999978877604,0.,3.));
#1501=CARTESIAN_POINT('Origin',(22.9999978877604,0.5,3.));
#1502=CARTESIAN_POINT('',(22.9999978877604,0.,1.5));
#1503=CARTESIAN_POINT('',(22.4999978877604,0.5,1.5));
#1504=CARTESIAN_POINT('Origin',(29.2499989438802,0.5,7.5));
#1505=CARTESIAN_POINT('',(28.9999978877604,0.,7.5));
#1506=CARTESIAN_POINT('Origin',(28.9999978877604,0.5,7.5));
#1507=CARTESIAN_POINT('',(29.2499989438802,0.,7.5));
#1508=CARTESIAN_POINT('Origin',(22.9999978877604,23.249999480322,7.5));
#1509=CARTESIAN_POINT('',(22.4999978877604,23.249999480322,7.5));
#1510=CARTESIAN_POINT('Origin',(22.4999978877604,30.999999307096,3.));
#1511=CARTESIAN_POINT('',(22.4999978877604,40.187499653548,3.));
#1512=CARTESIAN_POINT('Origin',(28.9999978877604,0.,5.9));
#1513=CARTESIAN_POINT('',(28.9999978877604,0.,6.9));
#1514=CARTESIAN_POINT('',(28.9999978877604,0.,2.95));
#1515=CARTESIAN_POINT('',(28.9999978877604,2.35840346397769,6.9));
#1516=CARTESIAN_POINT('',(28.9999978877604,0.,6.9));
#1517=CARTESIAN_POINT('',(28.9999978877604,2.35840346397769,2.95));
#1518=CARTESIAN_POINT('Origin',(37.9999978877604,0.,6.9));
#1519=CARTESIAN_POINT('',(37.9999978877604,0.,5.9));
#1520=CARTESIAN_POINT('',(38.9999978877604,0.,6.9));
#1521=CARTESIAN_POINT('Origin',(37.9999978877604,0.,6.9));
#1522=CARTESIAN_POINT('',(38.9999978877604,2.35840346397769,6.9));
#1523=CARTESIAN_POINT('',(38.9999978877604,0.,6.9));
#1524=CARTESIAN_POINT('',(37.9999978877604,2.35840346397769,5.9));
#1525=CARTESIAN_POINT('Origin',(37.9999978877604,2.35840346397769,6.9));
#1526=CARTESIAN_POINT('',(37.9999978877604,0.,5.9));
#1527=CARTESIAN_POINT('Origin',(38.9999978877604,0.,8.));
#1528=CARTESIAN_POINT('',(38.9999978877604,2.35840346397769,4.));
#1529=CARTESIAN_POINT('',(38.9999978877604,0.,4.));
#1530=CARTESIAN_POINT('Origin',(29.9999978877604,0.,6.9));
#1531=CARTESIAN_POINT('',(29.9999978877604,0.,5.9));
#1532=CARTESIAN_POINT('Origin',(29.9999978877604,0.,6.9));
#1533=CARTESIAN_POINT('',(29.9999978877604,2.35840346397769,5.9));
#1534=CARTESIAN_POINT('',(29.9999978877604,0.,5.9));
#1535=CARTESIAN_POINT('Origin',(29.9999978877604,2.35840346397769,6.9));
#1536=CARTESIAN_POINT('Origin',(38.9999978877604,0.,5.9));
#1537=CARTESIAN_POINT('',(32.0736860676007,2.35840346397769,5.9));
#1538=CARTESIAN_POINT('',(19.4999989438802,0.,5.9));
#1539=CARTESIAN_POINT('Origin',(25.147374247441,2.35840346397769,0.));
#1540=CARTESIAN_POINT('',(43.3265762327496,2.35840346397769,0.));
#1541=CARTESIAN_POINT('',(43.3265762327496,2.35840346397769,0.));
#1542=CARTESIAN_POINT('',(25.147374247441,2.35840346397769,0.));
#1543=CARTESIAN_POINT('',(36.1986871237205,2.35840346397769,0.));
#1544=CARTESIAN_POINT('',(25.147374247441,2.35840346397769,0.));
#1545=CARTESIAN_POINT('Origin',(25.147374247441,25.8757357190654,0.));
#1546=CARTESIAN_POINT('',(25.147374247441,25.8757357190654,0.));
#1547=CARTESIAN_POINT('',(25.147374247441,37.6253678595327,0.));
#1548=CARTESIAN_POINT('',(25.147374247441,25.8757357190654,0.));
#1549=CARTESIAN_POINT('Origin',(43.3265762327496,25.8757357190654,0.));
#1550=CARTESIAN_POINT('',(43.3265762327496,25.8757357190654,0.));
#1551=CARTESIAN_POINT('',(45.2882881163748,25.8757357190654,0.));
#1552=CARTESIAN_POINT('',(43.3265762327496,25.8757357190654,0.));
#1553=CARTESIAN_POINT('Origin',(43.3265762327496,2.35840346397769,0.));
#1554=CARTESIAN_POINT('',(43.3265762327496,25.8667017319888,0.));
#1555=CARTESIAN_POINT('Origin',(7.25,91.5,3.));
#1556=CARTESIAN_POINT('',(8.75,91.5,3.));
#1557=CARTESIAN_POINT('Origin',(7.25,91.5,3.));
#1558=CARTESIAN_POINT('',(8.75,91.5,0.));
#1559=CARTESIAN_POINT('',(8.75,91.5,3.));
#1560=CARTESIAN_POINT('Origin',(7.25,91.5,0.));
#1561=CARTESIAN_POINT('Origin',(7.25,7.25,3.));
#1562=CARTESIAN_POINT('',(8.75,7.25,3.));
#1563=CARTESIAN_POINT('Origin',(7.25,7.25,3.));
#1564=CARTESIAN_POINT('',(8.75,7.25,0.));
#1565=CARTESIAN_POINT('',(8.75,7.25,3.));
#1566=CARTESIAN_POINT('Origin',(7.25,7.25,0.));
#1567=CARTESIAN_POINT('Origin',(87.2499999242623,91.5,3.));
#1568=CARTESIAN_POINT('',(88.7499999242623,91.5,3.));
#1569=CARTESIAN_POINT('Origin',(87.2499999242623,91.5,3.));
#1570=CARTESIAN_POINT('',(88.7499999242623,91.5,0.));
#1571=CARTESIAN_POINT('',(88.7499999242623,91.5,3.));
#1572=CARTESIAN_POINT('Origin',(87.2499999242623,91.5,0.));
#1573=CARTESIAN_POINT('Origin',(87.249997820438,29.,3.));
#1574=CARTESIAN_POINT('',(88.749997820438,29.,3.));
#1575=CARTESIAN_POINT('Origin',(87.249997820438,29.,3.));
#1576=CARTESIAN_POINT('',(88.749997820438,29.,0.));
#1577=CARTESIAN_POINT('',(88.749997820438,29.,3.));
#1578=CARTESIAN_POINT('Origin',(87.249997820438,29.,0.));
#1579=CARTESIAN_POINT('Origin',(87.249997820438,29.,3.));
#1580=CARTESIAN_POINT('Origin',(46.5,23.5,0.));
#1581=CARTESIAN_POINT('',(46.5,8.5,0.));
#1582=CARTESIAN_POINT('',(46.5,8.5,0.));
#1583=CARTESIAN_POINT('',(46.5,23.5,0.));
#1584=CARTESIAN_POINT('',(46.5,36.4375,0.));
#1585=CARTESIAN_POINT('',(46.5,23.5,0.));
#1586=CARTESIAN_POINT('Origin',(86.5,23.5,0.));
#1587=CARTESIAN_POINT('',(86.5,23.5,0.));
#1588=CARTESIAN_POINT('',(66.875,23.5,0.));
#1589=CARTESIAN_POINT('',(86.5,23.5,0.));
#1590=CARTESIAN_POINT('Origin',(86.5,8.5,0.));
#1591=CARTESIAN_POINT('',(86.5,8.5,0.));
#1592=CARTESIAN_POINT('',(86.5,28.9375,0.));
#1593=CARTESIAN_POINT('',(86.5,8.5,0.));
#1594=CARTESIAN_POINT('Origin',(46.5,8.5,0.));
#1595=CARTESIAN_POINT('',(46.875,8.5,0.));
#1596=CARTESIAN_POINT('Origin',(89.4999978877604,5.00000000000001,3.));
#1597=CARTESIAN_POINT('',(89.5,0.,3.));
#1598=CARTESIAN_POINT('',(89.4999978877604,0.,3.));
#1599=CARTESIAN_POINT('',(94.5,5.,3.));
#1600=CARTESIAN_POINT('Origin',(89.5,5.,3.));
#1601=CARTESIAN_POINT('',(94.4999978877604,5.,3.));
#1602=CARTESIAN_POINT('Origin',(9.2,47.3,3.));
#1603=CARTESIAN_POINT('',(9.2,47.3,3.));
#1604=CARTESIAN_POINT('',(9.2,32.3,3.));
#1605=CARTESIAN_POINT('',(9.2,48.3375,3.));
#1606=CARTESIAN_POINT('',(9.2,47.3,0.));
#1607=CARTESIAN_POINT('',(9.2,47.3,3.));
#1608=CARTESIAN_POINT('',(9.2,32.3,0.));
#1609=CARTESIAN_POINT('',(9.2,48.3375,0.));
#1610=CARTESIAN_POINT('',(9.2,32.3,3.));
#1611=CARTESIAN_POINT('Origin',(5.8,47.3,3.));
#1612=CARTESIAN_POINT('',(5.8,47.3,3.));
#1613=CARTESIAN_POINT('',(26.525,47.3,3.));
#1614=CARTESIAN_POINT('',(5.8,47.3,0.));
#1615=CARTESIAN_POINT('',(5.8,47.3,3.));
#1616=CARTESIAN_POINT('',(26.525,47.3,0.));
#1617=CARTESIAN_POINT('Origin',(5.8,32.3,3.));
#1618=CARTESIAN_POINT('',(5.8,32.3,3.));
#1619=CARTESIAN_POINT('',(5.8,40.8375,3.));
#1620=CARTESIAN_POINT('',(5.8,32.3,0.));
#1621=CARTESIAN_POINT('',(5.8,32.3,3.));
#1622=CARTESIAN_POINT('',(5.8,40.8375,0.));
#1623=CARTESIAN_POINT('Origin',(9.2,32.3,3.));
#1624=CARTESIAN_POINT('',(28.225,32.3,3.));
#1625=CARTESIAN_POINT('',(28.225,32.3,0.));
#1626=CARTESIAN_POINT('Origin',(22.7,90.45,3.));
#1627=CARTESIAN_POINT('',(22.7,91.45,3.));
#1628=CARTESIAN_POINT('',(21.7,90.45,3.));
#1629=CARTESIAN_POINT('Origin',(22.7,90.45,3.));
#1630=CARTESIAN_POINT('',(21.7,90.45,0.));
#1631=CARTESIAN_POINT('',(21.7,90.45,3.));
#1632=CARTESIAN_POINT('',(22.7,91.45,0.));
#1633=CARTESIAN_POINT('Origin',(22.7,90.45,0.));
#1634=CARTESIAN_POINT('',(22.7,91.45,3.));
#1635=CARTESIAN_POINT('Origin',(21.7,31.2,3.));
#1636=CARTESIAN_POINT('',(21.7,32.2,3.));
#1637=CARTESIAN_POINT('',(21.7,40.2875,3.));
#1638=CARTESIAN_POINT('',(21.7,32.2,0.));
#1639=CARTESIAN_POINT('',(21.7,32.2,3.));
#1640=CARTESIAN_POINT('',(21.7,40.2875,0.));
#1641=CARTESIAN_POINT('Origin',(81.,90.45,3.));
#1642=CARTESIAN_POINT('',(82.,90.45,3.));
#1643=CARTESIAN_POINT('',(81.,91.45,3.));
#1644=CARTESIAN_POINT('Origin',(81.,90.45,3.));
#1645=CARTESIAN_POINT('',(81.,91.45,0.));
#1646=CARTESIAN_POINT('',(81.,91.45,3.));
#1647=CARTESIAN_POINT('',(82.,90.45,0.));
#1648=CARTESIAN_POINT('Origin',(81.,90.45,0.));
#1649=CARTESIAN_POINT('',(82.,90.45,3.));
#1650=CARTESIAN_POINT('Origin',(21.7,91.45,3.));
#1651=CARTESIAN_POINT('',(34.475,91.45,0.));
#1652=CARTESIAN_POINT('',(34.475,91.45,3.));
#1653=CARTESIAN_POINT('Origin',(81.,32.2,3.));
#1654=CARTESIAN_POINT('',(81.,31.2,3.));
#1655=CARTESIAN_POINT('',(82.,32.2,3.));
#1656=CARTESIAN_POINT('Origin',(81.,32.2,3.));
#1657=CARTESIAN_POINT('',(82.,32.2,0.));
#1658=CARTESIAN_POINT('',(82.,32.2,3.));
#1659=CARTESIAN_POINT('',(81.,31.2,0.));
#1660=CARTESIAN_POINT('Origin',(81.,32.2,0.));
#1661=CARTESIAN_POINT('',(81.,31.2,3.));
#1662=CARTESIAN_POINT('Origin',(82.,91.45,3.));
#1663=CARTESIAN_POINT('',(82.,70.4125,0.));
#1664=CARTESIAN_POINT('',(82.,70.4125,3.));
#1665=CARTESIAN_POINT('Origin',(22.7,32.2,3.));
#1666=CARTESIAN_POINT('',(22.7,31.2,3.));
#1667=CARTESIAN_POINT('Origin',(22.7,32.2,3.));
#1668=CARTESIAN_POINT('',(22.7,31.2,0.));
#1669=CARTESIAN_POINT('',(22.7,31.2,3.));
#1670=CARTESIAN_POINT('Origin',(22.7,32.2,0.));
#1671=CARTESIAN_POINT('Origin',(82.,31.2,3.));
#1672=CARTESIAN_POINT('',(64.625,31.2,0.));
#1673=CARTESIAN_POINT('',(64.625,31.2,3.));
#1674=CARTESIAN_POINT('Origin',(5.,93.75,0.));
#1675=CARTESIAN_POINT('',(0.,93.75,3.));
#1676=CARTESIAN_POINT('',(5.,98.75,3.));
#1677=CARTESIAN_POINT('Origin',(5.,93.75,3.));
#1678=CARTESIAN_POINT('',(5.,98.75,0.));
#1679=CARTESIAN_POINT('',(5.,98.75,0.));
#1680=CARTESIAN_POINT('',(0.,93.75,0.));
#1681=CARTESIAN_POINT('Origin',(5.,93.75,0.));
#1682=CARTESIAN_POINT('',(0.,93.75,0.));
#1683=CARTESIAN_POINT('Origin',(0.,98.75,0.));
#1684=CARTESIAN_POINT('',(0.,5.,0.));
#1685=CARTESIAN_POINT('',(0.,98.75,0.));
#1686=CARTESIAN_POINT('',(0.,5.,3.));
#1687=CARTESIAN_POINT('',(0.,5.,0.));
#1688=CARTESIAN_POINT('',(0.,98.75,3.));
#1689=CARTESIAN_POINT('Origin',(47.25,49.375,0.));
#1690=CARTESIAN_POINT('',(89.5,98.75,0.));
#1691=CARTESIAN_POINT('',(94.5,98.75,0.));
#1692=CARTESIAN_POINT('',(94.5,93.75,0.));
#1693=CARTESIAN_POINT('Origin',(89.5,93.75,0.));
#1694=CARTESIAN_POINT('',(94.5,5.,0.));
#1695=CARTESIAN_POINT('',(94.5,0.,0.));
#1696=CARTESIAN_POINT('',(89.5,0.,0.));
#1697=CARTESIAN_POINT('Origin',(89.5,5.,0.));
#1698=CARTESIAN_POINT('',(5.,0.,0.));
#1699=CARTESIAN_POINT('',(0.,0.,0.));
#1700=CARTESIAN_POINT('Origin',(5.,5.,0.));
#1701=CARTESIAN_POINT('',(19.,21.5,0.));
#1702=CARTESIAN_POINT('Origin',(14.5,21.5,0.));
#1703=CARTESIAN_POINT('Origin',(89.5,93.75,0.));
#1704=CARTESIAN_POINT('',(89.5,98.75,3.));
#1705=CARTESIAN_POINT('',(94.5,93.75,3.));
#1706=CARTESIAN_POINT('Origin',(89.5,93.75,3.));
#1707=CARTESIAN_POINT('',(94.5,93.75,0.));
#1708=CARTESIAN_POINT('',(89.5,98.75,0.));
#1709=CARTESIAN_POINT('Origin',(94.5,0.,0.));
#1710=CARTESIAN_POINT('',(94.5,5.,0.));
#1711=CARTESIAN_POINT('',(94.5,0.,3.));
#1712=CARTESIAN_POINT('Origin',(89.5,5.,0.));
#1713=CARTESIAN_POINT('',(89.5,0.,0.));
#1714=CARTESIAN_POINT('Origin',(5.,5.,0.));
#1715=CARTESIAN_POINT('',(5.,0.,3.));
#1716=CARTESIAN_POINT('Origin',(5.,5.,3.));
#1717=CARTESIAN_POINT('',(5.,0.,0.));
#1718=CARTESIAN_POINT('Origin',(14.5,21.5,3.));
#1719=CARTESIAN_POINT('',(19.,21.5,3.));
#1720=CARTESIAN_POINT('Origin',(14.5,21.5,3.));
#1721=CARTESIAN_POINT('',(19.,21.5,3.));
#1722=CARTESIAN_POINT('Origin',(94.5,98.75,0.));
#1723=CARTESIAN_POINT('',(94.5,98.75,3.));
#1724=CARTESIAN_POINT('Origin',(0.,0.,0.));
#1725=CARTESIAN_POINT('',(0.,0.,3.));
#1726=CARTESIAN_POINT('Origin',(47.25,49.375,3.));
#1727=UNCERTAINTY_MEASURE_WITH_UNIT(LENGTH_MEASURE(0.01),#1731,
'DISTANCE_ACCURACY_VALUE',
'Maximum model space distance between geometric entities at asserted c
onnectivities');
#1728=UNCERTAINTY_MEASURE_WITH_UNIT(LENGTH_MEASURE(0.01),#1731,
'DISTANCE_ACCURACY_VALUE',
'Maximum model space distance between geometric entities at asserted c
onnectivities');
#1729=(
GEOMETRIC_REPRESENTATION_CONTEXT(3)
GLOBAL_UNCERTAINTY_ASSIGNED_CONTEXT((#1727))
GLOBAL_UNIT_ASSIGNED_CONTEXT((#1731,#1733,#1734))
REPRESENTATION_CONTEXT('','3D')
);
#1730=(
GEOMETRIC_REPRESENTATION_CONTEXT(3)
GLOBAL_UNCERTAINTY_ASSIGNED_CONTEXT((#1728))
GLOBAL_UNIT_ASSIGNED_CONTEXT((#1731,#1733,#1734))
REPRESENTATION_CONTEXT('','3D')
);
#1731=(
LENGTH_UNIT()
NAMED_UNIT(*)
SI_UNIT(.MILLI.,.METRE.)
);
#1732=(
LENGTH_UNIT()
NAMED_UNIT(*)
SI_UNIT($,.METRE.)
);
#1733=(
NAMED_UNIT(*)
PLANE_ANGLE_UNIT()
SI_UNIT($,.RADIAN.)
);
#1734=(
NAMED_UNIT(*)
SI_UNIT($,.STERADIAN.)
SOLID_ANGLE_UNIT()
);
#1735=SHAPE_DEFINITION_REPRESENTATION(#1736,#1737);
#1736=PRODUCT_DEFINITION_SHAPE('',$,#1739);
#1737=SHAPE_REPRESENTATION('',(#1046),#1729);
#1738=PRODUCT_DEFINITION_CONTEXT('part definition',#1743,'design');
#1739=PRODUCT_DEFINITION('2026-07-13-15-13-16-403','Frontplate',#1740,#1738);
#1740=PRODUCT_DEFINITION_FORMATION('',$,#1745);
#1741=PRODUCT_RELATED_PRODUCT_CATEGORY('Frontplate','Frontplate',(#1745));
#1742=APPLICATION_PROTOCOL_DEFINITION('international standard',
'automotive_design',2009,#1743);
#1743=APPLICATION_CONTEXT(
'Core Data for Automotive Mechanical Design Process');
#1744=PRODUCT_CONTEXT('part definition',#1743,'mechanical');
#1745=PRODUCT('2026-07-13-15-13-16-403','Frontplate',$,(#1744));
#1746=PRESENTATION_STYLE_ASSIGNMENT((#1747));
#1747=SURFACE_STYLE_USAGE(.BOTH.,#1748);
#1748=SURFACE_SIDE_STYLE('',(#1749));
#1749=SURFACE_STYLE_FILL_AREA(#1750);
#1750=FILL_AREA_STYLE('Steel - Satin',(#1751));
#1751=FILL_AREA_STYLE_COLOUR('Steel - Satin',#1752);
#1752=COLOUR_RGB('Steel - Satin',0.627450980392157,0.627450980392157,0.627450980392157);
ENDSEC;
END-ISO-10303-21;
